<svg version="1.0" xmlns="http://www.w3.org/2000/svg"
 width="1052pt" height="1280pt" viewBox="0 0 1052 1280" preserveAspectRatio="xMidYMid meet">
<g transform="translate(0,1280) scale(0.1,-0.1)" fill="#00d0fa" stroke="none">
<path d="M2202 12778 c-41 -45 -185 -286 -252 -423 -312 -638 -538 -1507 -626
-2400 -21 -218 -30 -859 -15 -1091 84 -1300 506 -2454 1267 -3469 337 -450
763 -890 1237 -1278 65 -54 119 -97 121 -97 2 0 -12 41 -32 91 l-36 90 -201
189 c-425 399 -826 867 -1122 1310 -444 665 -740 1329 -928 2080 -308 1233
-245 2604 181 3912 61 189 242 663 250 655 2 -1 -2 -97 -8 -212 -19 -334 8
-628 82 -921 49 -192 93 -312 186 -500 221 -452 595 -857 1099 -1189 306 -202
634 -367 1080 -545 318 -126 638 -277 885 -418 171 -97 467 -296 620 -418 162
-129 446 -409 560 -554 260 -328 442 -705 515 -1064 26 -127 49 -373 39 -401
-11 -27 16 -16 102 40 l84 55 0 131 c0 305 -74 597 -235 924 -322 657 -935
1210 -1830 1650 -172 84 -297 139 -685 297 -196 80 -412 181 -575 269 -1027
555 -1595 1293 -1720 2234 -23 168 -30 469 -16 665 24 328 25 410 9 410 -8 0
-24 -10 -36 -22z"/>
<path d="M7715 12560 c-104 -115 -162 -215 -199 -341 -74 -256 -55 -555 64
-1030 45 -180 92 -340 245 -834 365 -1179 415 -1419 402 -1938 -7 -296 -34
-478 -113 -747 -60 -209 -170 -455 -272 -608 -21 -31 -41 -63 -46 -70 -4 -7
29 5 74 28 176 88 430 179 626 224 192 43 260 51 479 51 178 -1 227 -4 323
-23 298 -60 555 -187 775 -383 l72 -64 -50 65 c-167 220 -442 419 -694 500
-147 48 -224 61 -386 67 -296 11 -566 -54 -897 -216 -133 -65 -137 -66 -117
-36 231 350 368 763 410 1235 14 163 6 485 -16 650 -41 305 -121 612 -360
1380 -294 942 -351 1173 -374 1494 -17 246 13 428 98 599 26 53 48 97 47 97
-1 0 -41 -45 -91 -100z"/>
<path d="M6830 11973 c-238 -157 -527 -415 -731 -652 -380 -443 -621 -928
-729 -1471 -28 -144 -56 -357 -48 -366 3 -2 36 22 74 54 93 78 168 184 195
276 89 304 151 473 251 686 246 521 672 1080 1056 1386 42 34 70 66 83 94 11
24 18 45 16 46 -2 2 -17 6 -33 10 -25 5 -46 -5 -134 -63z"/>
<path d="M8631 6851 c-26 -24 -31 -37 -31 -74 0 -82 71 -133 143 -104 46 20
67 52 67 105 0 35 -6 49 -29 73 -42 41 -106 41 -150 0z"/>
<path d="M10350 6631 c-779 -263 -1334 -772 -1538 -1411 -31 -98 -54 -203 -97
-448 -46 -264 -170 -580 -320 -817 -194 -306 -494 -620 -809 -846 -432 -309
-963 -533 -1496 -628 -263 -47 -362 -55 -685 -55 -291 0 -326 2 -565 33 -305
39 -671 52 -886 32 -424 -40 -725 -154 -940 -355 -138 -128 -221 -263 -265
-431 -23 -90 -25 -170 -14 -520 13 -395 -29 -586 -158 -723 -91 -96 -204 -143
-387 -164 -138 -15 -343 1 -477 37 -393 105 -794 342 -1147 676 l-100 94 53
-101 c72 -139 158 -250 294 -380 233 -224 524 -393 887 -517 252 -86 325 -101
500 -101 133 -1 167 3 237 23 233 66 385 244 451 527 36 155 45 288 36 519
-18 414 -7 506 83 684 35 70 66 114 126 177 191 202 436 307 852 366 120 17
631 17 790 0 66 -7 185 -22 265 -32 623 -81 1162 -31 1740 160 567 187 1045
481 1440 886 394 403 627 848 695 1324 57 405 169 729 353 1020 141 223 376
477 587 635 132 99 191 135 463 279 154 83 195 107 180 106 -2 0 -68 -22 -148
-49z"/>
<path d="M634 4432 c-197 -70 -413 -346 -509 -652 -29 -92 -73 -335 -101 -555
-22 -174 -25 -554 -6 -695 22 -155 60 -331 104 -478 22 -75 44 -152 50 -170
20 -70 17 -21 -7 99 -41 210 -58 409 -58 684 0 448 51 829 143 1061 126 318
283 504 426 504 70 0 116 -33 196 -140 173 -233 436 -324 928 -324 392 0 776
56 1312 190 304 76 337 91 115 50 -394 -73 -705 -106 -1064 -113 -311 -6 -462
4 -649 42 -280 58 -453 162 -551 330 -91 155 -203 212 -329 167z"/>
</g>
</svg>
