<svg version="1.0" xmlns="http://www.w3.org/2000/svg" width="1097pt" height="1280pt" viewBox="0 -100 1097 1580" preserveAspectRatio="xMidYMid meet">
<g transform="translate(0,1280) scale(0.1,-0.1)" fill="#00d0fa" stroke="none">
<path d="M6301 12784 c-29 -8 -71 -25 -92 -37 -34 -21 -46 -23 -97 -16 -337
47 -823 58 -1062 25 -477 -65 -791 -203 -1064 -465 -288 -278 -464 -618 -711
-1371 -161 -492 -242 -731 -300 -885 -136 -363 -302 -704 -484 -993 -29 -46
-50 -86 -48 -88 7 -8 268 44 439 87 1023 257 1748 786 2312 1687 158 252 293
511 640 1227 114 234 267 527 272 522 5 -4 -41 -300 -80 -531 -182 -1050 -448
-1989 -811 -2862 -278 -667 -652 -1384 -1166 -2234 -294 -486 -882 -1430 -890
-1430 -5 0 -51 29 -102 64 -301 207 -589 335 -907 403 -120 25 -459 26 -577 0
-338 -73 -638 -261 -883 -555 -281 -336 -511 -837 -620 -1352 -52 -245 -64
-370 -64 -655 0 -338 27 -540 110 -835 272 -960 983 -1662 1884 -1864 386 -86
815 -72 1200 39 444 128 846 369 1190 714 451 452 730 994 879 1706 53 254 66
378 66 635 -1 198 -4 254 -23 359 -113 632 -511 1034 -1195 1207 -122 31 -327
62 -469 70 -60 4 -108 11 -108 15 0 5 68 129 151 276 443 783 703 1258 960
1753 932 1801 1412 3253 1558 4721 12 124 25 208 35 227 46 89 142 96 218 15
68 -72 295 -498 421 -788 457 -1059 765 -2472 892 -4085 52 -669 73 -1425 56
-2059 -6 -245 -13 -446 -15 -448 -2 -2 -61 4 -132 13 -174 22 -519 23 -668 0
-391 -58 -673 -192 -917 -435 -165 -165 -276 -340 -364 -570 -161 -426 -185
-1010 -65 -1601 231 -1136 1055 -2048 2085 -2310 233 -59 356 -74 605 -75 220
0 325 10 500 47 467 97 905 334 1248 675 669 666 975 1649 822 2644 -70 457
-196 858 -364 1157 -171 305 -416 546 -679 667 -203 94 -372 129 -622 129
-324 0 -647 -76 -996 -234 -164 -74 -149 -76 -149 16 0 44 -4 198 -10 344 -5
146 -14 411 -20 590 -46 1417 -122 2231 -285 3070 -211 1086 -588 2187 -1181
3444 -95 202 -100 210 -139 227 -48 22 -110 23 -184 3z"/>
</g>
</svg>
