<svg version="1.0" xmlns="http://www.w3.org/2000/svg" width="1280pt" height="935pt" viewBox="0 0 1280 1000" preserveAspectRatio="xMidYMid meet">
<g transform="translate(0,935) scale(0.1,-0.1)" fill="#00d0fa" stroke="none">
<path d="M6214 9334 c12 -30 63 -251 80 -344 31 -175 62 -457 68 -619 l2 -65
-65 3 c-77 2 -315 36 -407 57 -121 27 -295 82 -411 129 -63 25 -115 44 -116
43 -1 -2 -6 -147 -10 -322 -6 -303 -6 -318 11 -312 49 19 271 78 360 96 156
31 345 50 496 50 136 0 138 0 138 -22 0 -51 -21 -270 -36 -373 -25 -183 -79
-390 -140 -537 -13 -32 -24 -60 -24 -63 0 -3 23 -5 51 -5 l52 0 -6 -37 c-3
-21 -11 -85 -18 -143 -6 -58 -14 -113 -18 -122 -5 -14 -33 0 -171 86 -280 175
-485 292 -730 415 -539 270 -950 391 -1331 391 -238 0 -415 -40 -598 -135
-116 -60 -200 -126 -309 -239 -112 -117 -201 -250 -288 -429 -51 -106 -70
-136 -83 -133 -62 19 -389 70 -616 98 -172 20 -651 17 -795 -6 -692 -109
-1089 -463 -1249 -1111 -53 -216 -68 -523 -35 -744 83 -569 388 -1266 862
-1966 299 -442 562 -748 1194 -1393 346 -352 534 -551 674 -712 180 -208 385
-477 499 -653 l50 -77 53 0 c97 0 5563 -129 5757 -136 l190 -6 64 107 c248
416 643 846 1416 1540 594 534 767 712 1035 1070 381 507 699 1083 854 1547
88 264 125 457 133 683 11 321 -49 618 -178 874 -262 526 -788 780 -1610 781
-227 0 -385 -11 -668 -46 -112 -14 -205 -24 -206 -22 -2 2 -17 38 -35 82 -91
231 -207 415 -354 562 -193 193 -396 296 -671 339 -134 21 -428 16 -570 -9
-255 -46 -566 -142 -854 -264 -194 -82 -595 -282 -803 -400 l-157 -90 -5 27
c-3 14 -7 58 -11 96 -3 39 -8 91 -11 118 l-6 47 72 0 c65 0 71 2 65 18 -19 49
-75 260 -94 352 -32 158 -51 349 -51 501 l0 136 98 -14 c143 -19 326 -57 605
-125 137 -33 251 -58 253 -55 5 5 24 629 20 634 -1 1 -51 -11 -112 -28 -286
-80 -589 -141 -771 -155 l-92 -7 4 34 c38 285 66 435 146 776 29 123 51 224
48 227 -2 2 -148 7 -323 11 -308 7 -319 6 -312 -11z m-1589 -2980 c385 -61
844 -291 1328 -663 l99 -76 -6 -45 c-11 -91 -46 -481 -61 -685 -76 -1061 -69
-2177 21 -3308 9 -109 14 -200 12 -201 -2 -2 -308 4 -682 13 l-678 16 -71 140
c-280 557 -601 1257 -760 1660 -213 539 -385 1176 -449 1670 -20 156 -17 578
5 690 72 365 238 582 547 716 210 90 436 114 695 73z m3971 -89 c160 -26 298
-77 422 -158 237 -154 362 -356 408 -657 16 -112 18 -381 3 -518 -42 -385
-164 -846 -369 -1397 -175 -469 -467 -1067 -953 -1947 l-142 -258 -85 0 c-153
0 -1273 30 -1278 34 -2 3 10 116 27 253 50 411 91 818 121 1228 56 760 65
1792 23 2626 l-6 126 104 74 c214 152 523 330 719 415 207 89 453 162 615 183
112 14 292 12 391 -4z m-6376 -445 c80 -5 189 -18 244 -30 54 -11 100 -20 102
-20 2 0 4 -57 4 -127 0 -404 92 -964 245 -1498 161 -560 335 -949 728 -1625
177 -305 477 -772 644 -1002 35 -48 63 -91 63 -95 0 -5 -305 -1 -677 7 l-677
16 -59 64 c-509 556 -984 1122 -1225 1459 -315 440 -576 935 -691 1306 -135
436 -113 771 66 1043 58 87 198 228 289 288 185 123 404 193 667 213 56 5 109
9 117 9 8 1 80 -3 160 -8z m8755 -224 c202 -39 394 -116 539 -216 86 -60 214
-189 269 -273 166 -250 199 -529 107 -892 -114 -450 -466 -1057 -945 -1630
-250 -298 -661 -740 -1053 -1129 l-171 -169 -568 11 c-312 7 -618 15 -680 18
l-112 6 73 92 c431 542 973 1375 1211 1861 195 398 381 937 486 1410 60 273
119 678 119 827 0 29 4 59 8 65 4 7 46 19 92 27 112 20 508 15 625 -8z"/>
</g>
</svg>
