<svg version="1.0" xmlns="http://www.w3.org/2000/svg" width="1280pt" height="916pt" viewBox="0 -50 1280 1000" preserveAspectRatio="xMidYMid meet">
<g transform="translate(0,916) scale(0.1,-0.1)" fill="#00d0fa" stroke="none">
<path d="M2548 9150 c-134 -40 -397 -225 -537 -377 -118 -128 -240 -326 -306
-499 -23 -59 -34 -74 -61 -87 -40 -19 -59 -54 -69 -123 -6 -49 -10 -54 -61
-89 -76 -52 -233 -210 -301 -303 -32 -42 -102 -126 -158 -186 -157 -170 -165
-182 -165 -235 1 -25 7 -76 14 -113 21 -109 -3 -228 -100 -492 -72 -196 -163
-336 -306 -471 -100 -94 -167 -135 -295 -178 -126 -43 -162 -63 -187 -106 -18
-31 -18 -41 -8 -115 7 -57 7 -105 0 -162 -13 -99 2 -165 66 -298 50 -105 102
-170 151 -187 29 -11 35 -18 40 -53 8 -49 37 -96 123 -198 39 -46 73 -78 84
-78 17 0 17 3 -7 47 -21 41 -35 113 -20 113 2 0 21 -11 41 -25 20 -14 67 -34
103 -46 61 -19 74 -19 173 -8 107 12 107 12 145 -13 66 -44 114 -68 134 -68
24 0 24 6 -1 55 -27 52 -25 79 4 95 13 7 53 50 88 97 63 84 63 84 318 245 251
160 467 275 737 395 l128 57 140 1 c172 2 262 23 405 95 55 28 108 50 119 50
28 0 47 -38 54 -108 4 -49 13 -77 41 -122 20 -32 36 -67 36 -78 0 -11 -20 -57
-44 -103 -85 -162 -126 -320 -126 -492 0 -50 -4 -64 -30 -96 -33 -41 -118
-223 -173 -371 -44 -119 -56 -197 -64 -430 l-6 -185 26 -52 c23 -43 25 -57 16
-80 -17 -46 -13 -133 11 -218 34 -122 127 -387 173 -494 65 -154 86 -180 168
-204 9 -3 24 -29 33 -58 54 -163 173 -328 293 -405 29 -19 55 -40 57 -47 2 -6
13 -44 25 -83 36 -119 24 -222 -38 -349 -44 -89 -83 -130 -159 -167 l-67 -33
-372 0 c-368 0 -372 0 -395 -22 -13 -12 -45 -31 -71 -42 -34 -15 -51 -29 -58
-48 -6 -19 -31 -41 -75 -68 -66 -40 -154 -126 -154 -150 0 -7 9 -15 20 -18 32
-8 24 -35 -25 -83 -61 -59 -61 -108 0 -68 13 8 33 14 43 12 18 -3 15 -12 -29
-108 -27 -58 -49 -111 -49 -117 0 -20 39 -15 78 9 26 16 48 21 86 19 162 -8
190 -5 281 27 132 47 263 57 498 36 202 -17 397 -41 405 -49 3 -3 -72 -5 -167
-5 -164 0 -182 -2 -358 -40 -199 -43 -199 -43 -226 -77 -17 -21 -25 -23 -105
-21 -84 2 -90 1 -155 -35 -37 -20 -73 -37 -80 -37 -27 0 -147 -73 -178 -108
l-33 -37 32 -3 c18 -2 32 -7 32 -13 0 -5 -4 -9 -9 -9 -13 0 -51 -63 -51 -84 0
-15 2 -15 25 0 34 22 40 13 17 -27 -30 -52 -55 -137 -48 -165 l6 -24 53 40
c51 38 125 75 133 67 2 -2 -14 -18 -36 -36 -40 -32 -101 -135 -93 -157 3 -8
25 -5 71 9 54 16 104 20 265 23 114 2 215 8 240 15 23 7 65 12 92 10 28 -1
111 10 185 24 l135 26 410 -7 c459 -7 497 -4 568 50 50 38 72 67 258 333 123
176 166 227 320 387 165 169 179 187 179 220 0 20 5 36 11 36 6 0 38 -15 72
-34 144 -80 320 -138 627 -206 233 -51 214 -44 233 -84 27 -58 31 -99 10 -117
-10 -9 -88 -42 -173 -73 -85 -32 -171 -68 -190 -81 -69 -44 -138 -74 -231
-100 -110 -32 -164 -60 -209 -112 -60 -68 -68 -101 -71 -274 -1 -86 1 -161 5
-167 3 -5 -1 -26 -9 -46 -19 -45 -19 -95 -1 -102 8 -3 36 10 61 30 40 30 49
33 66 23 17 -10 22 -9 30 5 13 23 32 23 54 -2 9 -10 37 -22 61 -26 71 -10 127
3 192 47 56 38 70 42 174 55 62 8 178 30 258 49 211 50 546 120 690 145 249
42 369 70 575 134 401 124 438 151 475 344 l13 62 76 0 c42 0 121 -7 176 -15
311 -44 854 -85 1129 -85 173 0 556 24 783 50 196 22 246 36 468 135 372 165
471 230 701 460 165 163 217 236 423 580 110 183 140 263 237 620 42 156 47
182 51 316 3 91 -1 229 -12 368 -15 201 -20 237 -56 365 -104 370 -145 479
-294 786 -170 351 -164 337 -226 520 -60 175 -115 380 -128 474 -17 118 28
465 80 618 42 127 225 506 262 546 38 41 190 149 256 183 l65 32 45 -24 c57
-30 178 -149 213 -209 29 -50 83 -200 118 -325 30 -108 41 -125 88 -125 33 0
45 8 118 83 44 46 94 103 111 128 69 101 205 344 248 446 26 59 94 205 151
323 111 229 131 294 120 388 -19 164 -66 193 -411 252 -99 17 -223 40 -277 50
-171 35 -541 22 -723 -25 -121 -32 -305 -136 -305 -173 0 -27 48 -86 103 -127
82 -62 119 -160 93 -248 -28 -98 -79 -153 -222 -241 -219 -135 -376 -240 -442
-295 -132 -110 -315 -363 -437 -601 -108 -214 -143 -378 -152 -715 -6 -234 5
-347 57 -605 40 -199 81 -336 155 -519 130 -325 173 -486 182 -686 12 -283
-35 -517 -152 -760 -119 -246 -258 -364 -505 -430 -148 -39 -224 -30 -265 31
-22 33 -27 149 -11 262 11 77 9 77 -109 20 -138 -66 -221 -54 -267 40 -19 40
-20 49 -9 100 18 84 114 275 162 323 22 22 92 74 155 115 65 42 114 80 111 87
-5 16 -48 14 -122 -6 -83 -22 -327 -57 -412 -58 -87 -1 -129 17 -184 79 -57
65 -136 227 -145 298 -10 82 20 292 51 358 28 59 103 150 192 231 35 31 63 61
63 66 0 13 -51 11 -159 -8 -83 -14 -115 -15 -236 -5 -252 21 -489 66 -515 97
-8 9 5 27 53 72 131 122 367 270 492 308 95 29 246 44 368 37 114 -6 121 1 77
70 -69 109 -102 180 -125 274 -52 205 -17 429 84 537 83 90 249 117 570 94
l114 -9 -5 39 c-3 21 -35 101 -71 178 -85 183 -100 250 -99 435 0 234 34 350
143 495 66 88 304 323 386 381 164 118 396 186 728 214 206 18 229 22 233 44
8 39 -286 296 -578 506 -348 250 -572 371 -867 469 -334 111 -699 178 -1018
188 -410 12 -1184 -85 -1920 -242 -11 -2 -150 -25 -310 -50 -502 -79 -855
-148 -948 -184 -16 -6 -27 -17 -25 -24 3 -6 49 -36 103 -65 163 -88 333 -229
319 -265 -6 -17 -16 -22 -229 -107 -264 -105 -555 -260 -555 -296 0 -7 48 -50
108 -94 59 -45 109 -85 110 -91 2 -5 -8 -9 -22 -9 -86 0 -648 76 -735 100 -54
14 -115 62 -136 106 -30 60 -32 175 -5 246 39 106 139 170 398 254 79 26 139
50 135 54 -14 14 -448 52 -853 75 -262 15 -386 37 -442 76 -83 60 -43 212 92
350 72 72 115 104 270 196 74 45 98 63 81 63 -29 0 -30 0 -681 -185 -681 -194
-790 -221 -790 -195 0 20 121 149 196 210 87 69 221 160 397 269 64 40 117 75
117 78 0 18 -238 -36 -386 -88 -142 -49 -360 -161 -455 -233 -116 -88 -226
-207 -268 -289 -28 -56 -35 -82 -40 -155 -6 -81 -8 -87 -29 -90 -47 -7 -64 93
-38 218 58 272 220 505 459 659 118 77 148 101 141 112 -6 11 -19 10 -56 -1z
m2740 -1955 c18 -27 62 -108 97 -180 66 -134 94 -235 111 -399 6 -56 4 -66 -9
-66 -26 0 -158 29 -227 51 -35 11 -95 24 -133 29 -143 21 -221 95 -219 211 1
50 9 76 50 162 54 112 91 154 187 212 79 47 101 44 143 -20z m294 -941 c14
-108 8 -267 -17 -398 -13 -71 -28 -133 -33 -138 -6 -6 -29 3 -61 21 -83 49
-109 72 -121 104 -16 47 -12 128 10 176 50 109 181 295 204 288 6 -2 14 -26
18 -53z"/>
</g>
</svg>
