<svg version="1.0" xmlns="http://www.w3.org/2000/svg" width="1280pt" height="759pt" viewBox="0 0 1280 759" preserveAspectRatio="xMidYMid meet">
<g transform="translate(0,759) scale(0.1,-0.1)" fill="#121232" stroke="none">
<path d="M6510 5412 c0 -19 85 -91 162 -137 93 -56 279 -138 420 -185 95 -32
113 -45 99 -68 -5 -8 -30 -6 -91 9 -222 52 -644 190 -805 261 -89 40 -155 58
-155 42 0 -19 47 -73 94 -108 70 -52 262 -144 431 -205 77 -29 154 -58 170
-66 30 -14 30 -14 5 -14 -61 -2 -262 33 -378 66 -290 81 -312 85 -312 59 0
-21 73 -82 137 -114 66 -33 188 -78 313 -116 48 -14 109 -42 140 -63 63 -43
164 -86 244 -105 31 -7 56 -16 56 -20 0 -5 -28 -8 -62 -8 -60 0 -207 -14 -275
-25 -41 -7 -43 -31 -7 -74 40 -47 123 -89 252 -127 10 -3 9 -9 -3 -28 -13 -20
-14 -29 -5 -46 12 -23 84 -58 163 -80 32 -9 47 -18 47 -30 0 -9 10 -26 23 -38
23 -21 143 -82 163 -82 7 0 19 -11 28 -25 19 -30 71 -45 154 -45 34 0 62 -4
62 -10 0 -5 7 -10 15 -10 8 0 24 -9 36 -21 18 -18 28 -20 63 -15 119 19 119
19 141 -16 25 -40 67 -48 131 -23 l43 16 37 -36 c34 -35 39 -36 83 -31 79 11
94 10 148 -13 36 -16 55 -31 63 -52 7 -15 22 -31 34 -35 11 -4 34 -17 49 -30
36 -30 51 -30 71 1 28 43 51 32 71 -32 15 -50 31 -71 107 -147 85 -86 89 -91
83 -125 -3 -21 1 -57 9 -85 16 -54 13 -67 -28 -105 -31 -29 -32 -46 -6 -86 11
-17 20 -47 20 -68 0 -49 22 -100 51 -121 34 -23 44 -20 46 17 3 41 34 67 83
67 49 0 73 -27 74 -82 l1 -42 -95 -59 c-52 -31 -170 -95 -262 -140 -114 -56
-167 -87 -167 -99 -1 -23 15 -31 39 -18 16 8 24 6 41 -11 21 -21 69 -23 113
-4 19 8 19 8 3 -15 -9 -14 -17 -35 -17 -47 0 -19 5 -23 29 -23 21 0 30 -6 34
-21 5 -19 11 -21 42 -15 20 4 42 9 49 12 7 3 18 -7 24 -21 9 -19 19 -25 44
-25 18 0 42 -7 53 -16 14 -10 31 -13 58 -9 35 6 37 5 37 -19 0 -28 33 -56 67
-56 12 0 25 -4 28 -10 3 -5 17 -10 31 -10 36 0 30 -13 -32 -60 -109 -85 -118
-118 -52 -199 23 -28 49 -53 59 -56 22 -7 78 20 86 41 8 20 -5 30 -19 16 -15
-15 -65 -16 -73 -2 -13 21 66 120 96 120 10 0 27 -16 39 -35 12 -19 26 -35 31
-35 18 0 21 29 6 60 -15 30 -15 30 11 30 47 0 59 -14 45 -51 -16 -43 -10 -47
21 -16 33 33 33 59 0 103 l-26 34 58 0 c33 0 66 5 74 10 11 7 16 4 20 -13 3
-12 19 -29 35 -37 15 -8 37 -23 47 -33 23 -22 52 -23 44 -1 -5 14 -1 15 31 10
81 -13 78 -14 81 29 2 22 9 46 15 54 10 11 14 3 23 -45 l11 -59 14 32 c14 29
16 30 39 17 14 -7 40 -13 58 -14 30 0 32 -2 22 -20 -6 -11 -25 -27 -43 -34
l-32 -14 30 -1 c40 -1 93 32 108 67 11 27 13 28 42 16 17 -7 54 -13 82 -14 48
0 53 2 59 25 3 14 13 25 23 25 9 0 33 5 54 11 27 7 37 15 37 30 0 16 6 19 34
17 19 -1 41 3 49 10 11 10 17 9 27 -3 18 -21 50 -19 50 3 0 10 -16 37 -36 60
-19 23 -31 42 -25 42 5 0 13 -4 16 -10 7 -11 74 -14 99 -4 40 15 14 42 -108
112 -168 95 -503 307 -596 376 -59 44 -83 70 -112 122 -43 75 -46 97 -17 117
11 8 27 32 34 54 11 31 18 37 37 35 13 -2 35 -3 50 -3 14 0 32 -7 39 -15 10
-13 14 -13 30 2 28 25 50 16 76 -34 1 -2 15 4 31 14 69 40 59 101 -28 175 -83
70 -96 115 -18 61 24 -16 75 -45 114 -65 38 -19 76 -43 84 -52 7 -9 27 -23 42
-31 35 -18 62 -3 52 28 -4 13 1 26 15 39 25 23 28 80 6 99 -31 26 -17 38 50
42 36 2 70 9 77 16 17 17 24 150 9 165 -21 21 -13 56 15 63 25 6 26 9 20 51
-6 42 -4 45 30 65 35 21 36 23 32 70 l-5 48 37 0 c56 0 74 19 72 73 -2 38 1
48 24 66 32 25 56 27 89 5 25 -16 26 -15 74 29 45 43 50 45 94 40 36 -4 52 -1
75 15 16 12 50 26 76 32 67 15 123 45 177 96 26 23 82 61 125 82 51 26 98 60
134 96 37 38 69 61 101 71 26 9 65 29 87 45 22 16 62 40 89 54 28 13 57 36 67
50 12 20 25 26 51 26 79 0 226 84 212 122 -5 15 -9 14 -96 -7 -35 -9 -65 -14
-67 -12 -3 2 35 17 83 32 104 34 319 139 327 161 7 19 -16 28 -60 21 -42 -7
-37 5 16 34 76 43 61 81 -18 44 -28 -13 -52 -20 -52 -15 0 6 4 10 9 10 16 0
61 53 61 71 0 30 -32 23 -97 -20 -35 -24 -92 -50 -143 -64 -92 -27 -228 -52
-236 -44 -3 3 16 12 42 21 64 22 122 57 163 100 29 30 32 36 17 42 -10 4 -52
-7 -99 -26 -245 -97 -732 -182 -1142 -200 -115 -5 -232 -15 -260 -21 -27 -6
-100 -10 -161 -10 -163 3 -261 -31 -524 -182 -58 -33 -115 -69 -127 -80 -41
-37 -81 -165 -143 -466 -24 -118 -62 -259 -95 -357 l-55 -162 -73 -75 c-111
-114 -181 -141 -228 -91 -20 22 -25 39 -30 110 -4 66 -9 88 -26 106 -28 29
-109 202 -117 249 -3 19 -17 51 -31 69 -14 19 -25 42 -25 52 0 24 -24 70 -45
88 -8 7 -36 52 -60 99 -64 124 -153 238 -217 279 -174 111 -542 267 -778 330
-213 57 -986 326 -1129 392 -62 29 -111 39 -111 22z"/>
</g>
</svg>
