<svg version="1.0" xmlns="http://www.w3.org/2000/svg" width="1166pt" height="1280pt" viewBox="0 0 1166 1280" preserveAspectRatio="xMidYMid meet">
<g transform="translate(0,1280) scale(0.1,-0.1)" fill="#00d0fa" stroke="none">
<path d="M5799 12767 c-387 -474 -811 -1171 -1072 -1762 -341 -774 -510 -1494
-511 -2180 -1 -290 9 -363 79 -573 77 -228 182 -417 488 -873 112 -167 242
-365 289 -439 441 -700 665 -1371 738 -2210 6 -69 12 -154 13 -190 l2 -65 7
55 c4 30 12 124 18 209 44 613 201 1189 470 1730 127 255 218 405 525 866 296
446 327 496 415 677 181 370 218 638 164 1198 -92 964 -499 2010 -1178 3025
-121 181 -325 459 -387 527 l-34 37 -26 -32z"/>
<path d="M2145 7874 c-16 -2 -73 -9 -125 -15 -452 -51 -908 -239 -1260 -519
-96 -77 -273 -255 -341 -345 -257 -337 -396 -721 -415 -1149 -14 -304 38 -627
156 -972 94 -274 262 -531 528 -806 347 -358 717 -596 1138 -731 230 -74 437
-102 684 -94 688 24 1154 355 1283 911 25 112 30 371 8 481 -104 527 -489 868
-951 842 -135 -8 -241 -35 -360 -94 -79 -38 -109 -61 -180 -132 -71 -71 -94
-102 -132 -181 -66 -133 -81 -200 -82 -345 0 -94 5 -137 23 -200 66 -236 229
-410 459 -491 l65 -22 -38 -8 c-76 -14 -171 2 -259 45 -275 133 -460 525 -425
903 32 346 244 639 589 813 188 95 366 130 615 122 298 -10 556 -77 840 -219
584 -293 952 -779 1024 -1356 5 -41 12 -76 14 -79 3 -2 25 6 49 18 117 60 348
125 512 145 l58 7 -7 51 c-42 320 -163 801 -282 1121 -221 593 -517 1062 -914
1451 -471 460 -998 724 -1654 829 -95 16 -547 29 -620 19z"/>
<path d="M9060 7874 c-390 -43 -677 -121 -992 -267 -545 -254 -1049 -723
-1389 -1293 -289 -487 -485 -1029 -603 -1674 -14 -74 -28 -158 -31 -186 l-7
-51 58 -7 c164 -20 395 -85 512 -145 24 -12 46 -20 49 -18 2 3 9 38 14 79 16
128 30 190 70 312 203 618 811 1106 1546 1241 133 25 386 30 508 12 374 -58
705 -290 855 -600 176 -367 96 -847 -189 -1125 -115 -112 -278 -172 -406 -148
l-38 8 65 22 c230 81 393 255 459 491 18 63 23 106 23 200 -1 145 -16 212 -82
345 -38 79 -61 110 -132 181 -71 71 -101 94 -180 132 -336 166 -721 114 -982
-131 -166 -157 -280 -370 -329 -617 -22 -110 -17 -369 8 -481 112 -483 463
-785 1033 -890 117 -21 391 -29 518 -15 558 61 1093 343 1554 819 266 275 434
532 528 806 255 744 200 1425 -158 1976 -83 128 -136 194 -252 314 -359 370
-840 606 -1410 692 -99 15 -535 28 -620 18z"/>
<path d="M5503 4150 c-507 -77 -843 -307 -843 -578 0 -232 270 -445 687 -542
212 -50 539 -65 766 -35 424 56 754 227 856 445 21 45 26 70 26 135 0 99 -27
163 -106 249 -155 170 -412 280 -774 331 -145 21 -458 18 -612 -5z"/>
<path d="M5207 2660 c-9 -242 -72 -604 -144 -835 -93 -295 -278 -485 -538
-551 -80 -20 -282 -24 -352 -7 -24 6 -43 9 -43 7 0 -11 75 -71 162 -130 356
-240 746 -218 1055 60 45 41 121 133 185 226 15 21 15 18 -2 -20 -76 -181 -99
-458 -55 -665 53 -251 168 -503 320 -702 l33 -43 30 37 c101 129 216 345 271
511 54 161 74 281 73 437 0 176 -20 279 -87 450 -4 11 13 -10 39 -47 138 -201
323 -336 536 -389 71 -18 103 -21 205 -16 136 6 228 28 336 82 86 42 187 110
254 168 l50 44 -85 -14 c-209 -35 -444 23 -592 146 -157 129 -247 306 -317
621 -63 285 -91 490 -91 681 l0 116 -100 -23 c-160 -36 -268 -45 -530 -45
-253 0 -391 13 -536 49 l-71 18 -6 -166z"/>
</g>
</svg>
