<svg version="1.0" xmlns="http://www.w3.org/2000/svg" width="1010pt" height="1280pt" viewBox="0 0 1010 1280" preserveAspectRatio="xMidYMid meet">
<g transform="translate(0,1280) scale(0.1,-0.1)" fill="#F30" stroke="none">
<path d="M4885 12766 c-2 -6 -16 -78 -30 -161 -91 -535 -246 -1028 -452 -1440
-133 -266 -265 -475 -574 -912 -228 -322 -322 -471 -408 -644 -185 -373 -261
-721 -261 -1199 0 -513 67 -925 205 -1270 60 -150 135 -291 316 -591 352 -586
540 -1047 712 -1744 37 -150 129 -573 151 -692 6 -35 6 -35 -99 -49 -27 -3
-57 -12 -65 -18 -8 -7 -58 -25 -110 -40 -177 -51 -229 -68 -247 -81 -17 -12
-18 -36 -15 -326 2 -172 4 -314 5 -316 2 -1 54 16 116 37 212 75 412 105 771
115 374 11 612 -19 869 -112 69 -24 135 -47 145 -50 18 -6 19 -1 11 133 -4 76
-7 223 -6 325 l1 186 -83 40 c-103 51 -249 98 -372 120 -92 16 -94 17 -89 42
32 188 121 604 149 701 86 299 229 711 327 939 69 163 243 499 383 741 179
309 240 423 296 554 156 369 231 817 231 1371 0 356 -36 619 -123 878 -105
315 -230 535 -579 1017 -298 411 -411 590 -545 865 -214 439 -366 927 -445
1434 -10 68 -20 125 -22 126 -2 2 -38 10 -81 18 -58 11 -79 12 -82 3z m271
-8581 c31 -9 63 -28 84 -50 l34 -35 -155 0 c-84 0 -220 -5 -301 -12 -82 -6
-151 -8 -155 -5 -10 10 27 46 77 76 41 24 57 26 185 32 77 3 149 6 161 7 11 1
43 -5 70 -13z"/>
<path d="M1280 7215 c-461 -79 -850 -389 -1066 -850 -128 -274 -192 -621 -166
-903 37 -403 182 -714 461 -992 309 -308 694 -482 1255 -565 172 -26 509 -80
556 -90 32 -7 -14 19 -304 174 -263 140 -321 178 -417 268 -176 167 -251 363
-216 565 47 271 262 482 574 565 83 22 120 26 248 27 162 1 252 -11 380 -51
258 -81 497 -244 770 -526 257 -265 312 -325 360 -391 51 -72 71 -90 29 -27
-14 22 -23 45 -19 51 3 6 1 9 -6 8 -6 -2 -12 7 -14 19 -1 13 -1 22 1 20 29
-32 157 -201 192 -254 26 -41 54 -73 63 -73 9 0 60 11 114 25 98 25 165 56
199 94 21 23 35 111 17 111 -12 0 -65 99 -58 107 3 2 18 -17 33 -44 37 -63 92
-128 101 -120 10 10 -247 557 -342 728 -275 493 -567 905 -911 1280 -503 549
-1097 862 -1627 858 -73 -1 -166 -7 -207 -14z"/>
<path d="M8310 7200 c-178 -18 -342 -62 -519 -137 -295 -126 -545 -306 -857
-617 -248 -248 -384 -416 -651 -801 -273 -393 -513 -819 -583 -1031 -18 -55
-4 -52 24 5 59 115 26 16 -47 -141 -17 -37 -34 -65 -39 -62 -4 3 -8 -14 -8
-37 0 -76 78 -126 260 -165 l83 -18 18 24 c114 159 192 259 205 264 13 5 -6
-22 -89 -131 -5 -7 -7 -13 -5 -13 3 0 60 68 128 150 316 388 586 619 905 776
212 103 341 139 560 154 194 13 358 -20 520 -103 107 -55 254 -200 307 -302
58 -113 71 -171 66 -299 -4 -93 -10 -124 -35 -187 -55 -139 -155 -263 -283
-349 -36 -24 -204 -116 -375 -203 -310 -159 -353 -183 -305 -173 14 3 95 15
180 26 549 73 855 151 1136 289 303 149 524 330 696 572 371 520 386 1244 37
1817 -142 231 -367 442 -597 556 -214 107 -496 159 -732 136z"/>
<path d="M5076 3291 c-69 -65 -88 -71 -156 -51 -18 5 -53 29 -77 52 -23 23
-45 39 -48 36 -3 -3 -28 -95 -56 -204 -98 -386 -159 -553 -273 -748 -153 -261
-193 -396 -203 -691 -4 -135 -2 -175 15 -255 35 -170 91 -286 229 -472 138
-186 194 -282 257 -437 37 -93 81 -250 101 -367 l18 -102 68 -11 c37 -6 74
-13 82 -16 11 -5 18 14 31 87 38 209 102 407 184 563 20 39 93 153 161 255
141 210 211 347 241 470 40 168 36 434 -10 614 -29 115 -74 213 -160 349 -91
145 -147 252 -184 357 -33 90 -97 351 -125 509 -12 63 -23 116 -25 118 -3 3
-34 -23 -70 -56z"/>
<path d="M2746 3240 c-21 -41 -69 -129 -106 -195 -109 -193 -151 -312 -170
-478 -19 -160 17 -333 96 -468 112 -191 382 -366 624 -405 431 -68 802 116
1006 500 74 138 102 235 155 528 36 202 48 474 21 499 -4 4 -29 10 -57 13 -27
3 -43 3 -33 0 9 -3 19 -12 22 -20 4 -11 -9 -14 -71 -14 -85 0 -193 -28 -259
-66 -50 -30 -54 -30 -54 -1 0 20 -29 74 -30 56 -1 -32 -37 -194 -61 -276 -78
-271 -184 -430 -338 -506 -62 -30 -71 -32 -181 -32 -109 0 -118 2 -181 32
-144 71 -259 248 -298 463 -7 36 -20 151 -30 255 l-17 190 -38 -75z"/>
<path d="M7150 3294 c0 -5 -7 -110 -15 -234 -10 -158 -21 -247 -36 -300 -48
-175 -154 -310 -295 -377 -76 -36 -83 -38 -184 -38 -101 0 -108 2 -183 37
-106 51 -193 135 -245 237 -37 71 -91 221 -107 301 -4 19 -11 40 -14 45 -4 6
-13 29 -20 52 -15 53 -36 70 -27 22 8 -40 -8 -20 -18 24 -7 29 2 34 35 17 10
-6 19 -7 19 -2 0 5 -15 16 -32 23 -18 7 -48 29 -65 48 -24 25 -33 30 -33 18 0
-21 -6 -21 -61 -1 -24 8 -84 19 -134 23 -79 7 -87 9 -65 19 22 10 18 11 -30 9
-52 -2 -55 -3 -61 -32 -11 -51 -10 -412 2 -488 40 -264 144 -494 310 -681 56
-63 208 -180 284 -218 151 -77 359 -124 504 -115 177 11 338 72 471 177 101
80 173 167 225 275 76 155 99 304 75 477 -23 170 -64 276 -202 523 -95 169
-98 174 -98 159z"/>
</g>
</svg>
