<svg version="1.0" xmlns="http://www.w3.org/2000/svg" width="1280pt" height="640pt" viewBox="-100 0 1480 640" preserveAspectRatio="xMidYMid meet">
<g transform="translate(0,640) scale(0.1,-0.1)" fill="#00d0fa" stroke="none">
<path d="M8125 5953 c-399 -52 -1429 -372 -1889 -587 -195 -91 -701 -383 -814
-470 -30 -23 -70 -53 -89 -68 -20 -16 -44 -28 -53 -28 -28 0 -127 -71 -295
-211 -394 -330 -760 -571 -976 -644 -307 -104 -877 -219 -1489 -300 -291 -39
-431 -34 -651 20 -290 72 -474 196 -625 421 -111 166 -167 320 -184 509 -20
211 -67 304 -179 351 -97 41 -280 -11 -456 -128 -85 -57 -157 -130 -220 -223
-146 -217 -195 -419 -195 -799 0 -177 16 -306 50 -406 31 -94 155 -346 238
-483 121 -201 117 -249 -34 -498 -128 -212 -206 -402 -240 -589 -14 -72 -18
-150 -18 -320 -1 -275 11 -340 90 -512 30 -65 57 -133 61 -150 3 -18 13 -41
22 -52 50 -58 342 -278 415 -312 28 -13 73 -26 101 -29 123 -16 174 51 240
312 50 203 135 390 247 547 73 103 211 238 294 289 113 68 318 126 585 164
101 14 195 17 504 18 576 0 871 -31 1995 -210 897 -142 1183 -177 1480 -179
234 -1 263 5 268 60 2 24 -7 43 -39 83 -77 99 -107 105 -849 181 -413 43 -720
86 -1205 170 -713 125 -1179 170 -1751 170 -762 0 -1051 -78 -1343 -363 -161
-157 -273 -351 -330 -571 -17 -66 -38 -131 -47 -143 -16 -25 -20 -27 -68 -38
l-29 -6 33 -34 c28 -29 31 -37 20 -50 -20 -24 -81 -18 -141 13 -92 48 -165
183 -199 371 -16 90 -14 311 5 408 72 379 308 609 746 727 383 103 802 138
1854 156 726 12 874 20 1990 100 303 22 651 46 775 55 1160 77 2571 108 2622
57 20 -20 -78 -54 -232 -79 -692 -112 -1554 -299 -1768 -385 -98 -39 -130
-120 -98 -248 50 -198 265 -521 505 -760 130 -129 204 -188 317 -253 97 -55
154 -71 227 -64 196 19 918 345 968 438 18 34 6 281 -20 404 -36 174 -75 276
-113 296 -29 16 -118 6 -248 -27 -191 -48 -255 -103 -229 -199 21 -76 98 -94
234 -55 96 27 129 26 154 -6 26 -33 61 -126 61 -163 0 -48 -87 -112 -264 -196
-287 -136 -548 -190 -661 -135 -63 30 -256 218 -330 320 -73 102 -142 237
-151 297 -5 37 -3 48 16 68 76 80 403 183 940 295 509 106 635 113 713 41 60
-55 80 -111 177 -514 88 -360 126 -454 196 -483 41 -17 156 -18 172 -2 21 21
13 98 -34 323 -72 352 -102 512 -118 640 -19 146 -36 483 -36 701 0 235 -19
313 -89 356 -58 37 -255 32 -586 -15 -296 -42 -436 -56 -900 -92 -539 -42
-1622 -141 -2450 -225 -597 -60 -780 -75 -1345 -110 -96 -6 -377 -25 -625 -42
-559 -40 -1091 -45 -1330 -15 -264 34 -482 94 -621 172 -171 96 -364 349 -438
575 -80 241 -57 476 71 725 71 140 162 245 224 259 49 12 65 -20 84 -161 18
-140 44 -221 115 -368 97 -201 192 -332 308 -426 217 -178 492 -273 865 -301
444 -32 1222 68 1967 252 425 106 734 201 1205 372 418 152 1042 351 1450 463
833 228 1769 344 1990 246 72 -32 71 -61 -10 -246 -67 -151 -85 -213 -85 -290
0 -88 11 -99 105 -103 103 -6 145 8 192 62 21 24 98 154 171 288 l133 246 77
6 c42 4 156 7 252 7 224 1 290 -10 290 -49 0 -27 -51 -128 -120 -236 -95 -151
-118 -217 -96 -271 17 -40 74 -65 166 -71 53 -4 71 -2 97 15 17 11 87 86 155
168 165 198 256 293 297 310 41 17 164 18 291 2 129 -16 170 -28 170 -51 0
-23 -32 -87 -72 -146 -43 -63 -103 -196 -124 -277 -26 -98 -26 -322 0 -420
108 -413 515 -712 891 -655 204 31 356 116 611 343 48 42 98 80 112 84 36 9
73 -17 101 -71 70 -134 18 -250 -166 -373 -268 -178 -790 -322 -1263 -348
-121 -7 -146 1 -172 55 -18 36 -33 165 -44 373 l-6 117 -352 0 -351 0 -23 108
c-30 139 -66 259 -91 299 -31 50 -75 58 -301 55 -107 -1 -208 -5 -224 -10 -27
-7 -33 -18 -63 -108 -74 -219 -96 -337 -115 -625 -9 -146 -9 -232 0 -395 23
-401 63 -576 193 -839 69 -140 133 -226 189 -255 108 -55 322 -75 1105 -105
215 -8 532 -20 705 -27 173 -6 491 -12 705 -13 378 0 393 1 479 23 109 29 248
87 271 112 29 32 44 92 44 175 1 91 -21 153 -63 180 -34 23 -113 21 -207 -4
-150 -41 -415 -78 -737 -106 -301 -25 -382 -20 -453 28 -70 47 -88 125 -53
231 13 38 34 68 83 117 141 140 343 248 686 366 351 120 669 338 760 518 26
53 30 70 30 145 0 109 -22 174 -81 239 -25 28 -71 65 -102 83 -125 71 -181
153 -322 473 -176 399 -300 580 -473 692 -162 105 -359 163 -957 282 -562 112
-990 173 -1650 236 -252 24 -220 8 -307 143 -276 426 -408 610 -516 721 -90
92 -139 110 -262 94z m30 -344 c69 -26 134 -90 216 -212 68 -102 135 -235 144
-289 6 -29 3 -38 -12 -46 -27 -15 -119 -29 -298 -47 -642 -64 -1339 -238
-2539 -634 -551 -183 -666 -216 -666 -193 0 14 115 120 227 209 143 114 281
211 398 278 55 32 195 118 310 190 260 163 394 238 573 320 326 149 697 278
1092 381 259 67 451 82 555 43z m3286 -1305 c131 -39 229 -112 288 -215 56
-99 66 -146 66 -334 0 -160 -1 -173 -24 -215 -32 -61 -161 -191 -220 -223 -75
-41 -164 -60 -243 -53 -175 16 -380 142 -448 276 -48 94 -65 289 -35 405 59
223 250 374 476 375 50 0 108 -7 140 -16z m-1911 -1031 c7 -17 16 -100 21
-208 9 -201 17 -240 57 -283 55 -59 111 -63 394 -26 110 14 218 24 240 22 54
-4 56 -11 68 -258 5 -107 14 -212 20 -232 16 -56 60 -93 153 -128 148 -56 185
-84 230 -175 34 -67 77 -229 77 -286 0 -58 -16 -73 -95 -90 -77 -17 -389 -18
-545 0 -122 13 -479 57 -543 67 -35 5 -40 11 -71 73 -48 95 -111 285 -140 426
-73 354 -78 799 -11 1005 34 103 115 155 145 93z"/>
<path d="M11290 4079 c-63 -26 -132 -124 -156 -221 -18 -74 -9 -148 26 -205
48 -80 177 -119 286 -88 114 32 162 86 185 209 25 137 -13 206 -148 269 -85
40 -154 53 -193 36z"/>
<path d="M2685 5593 c-82 -13 -189 -48 -271 -88 -232 -113 -318 -327 -255
-633 32 -154 117 -304 243 -432 76 -77 126 -105 209 -119 161 -27 335 -3 478
66 179 86 249 225 266 528 10 172 -6 300 -45 373 -70 132 -181 234 -308 283
-45 17 -82 22 -172 25 -63 1 -128 0 -145 -3z m240 -326 c90 -46 150 -132 178
-253 18 -80 8 -129 -48 -222 -72 -120 -103 -152 -161 -165 -130 -30 -222 -6
-310 80 -55 53 -77 123 -77 248 0 148 39 244 119 291 103 60 208 68 299 21z"/>
</g>
</svg>
