<svg version="1.1" xmlns="http://www.w3.org/2000/svg" xmlns:xlink="http://www.w3.org/1999/xlink" x="0px" y="0px" viewBox="0 0 512 512" style="width: 512px; height: 512px; opacity: 1;" xml:space="preserve">
<g fill="#00d0fa">
	<path d="M215.954,110.6c-9.668-1.886-9.66,1.872-11.521,2.639c-1.856,0.744-7.424-1.143-11.148,0.368
		c-3.716,1.51-12.256,6.036-10.4,16.192c1.86,10.17,2.976,9.042,1.488,12.05c-1.488,3.022-3.344,12.425,7.432,16.951
		c10.781,4.518,23.782-0.384,29.362-1.511c5.569-1.128,8.176,0.375,11.148,2.63c2.973,2.27,10.708,8.668,13.308,11.298
		c2.6,2.639,1.787,3.398,1.787,6.037c0,2.624,0,32.008,0,32.008s-1.787,4.518-5.875,1.503c-4.084-3.014-9.255-4.902-10.002-9.044
		c-0.74-4.141-0.353-12.042,0.02-16.56c0.376-4.526-1.48-12.058-9.281-15.072c-7.804-3.008-10.772,0.383-13,1.127
		c-2.228,0.76-7.432-0.744-11.149-1.127c-3.716-0.384-9.668,1.127-11.521,4.909c-1.856,3.758-4.084,10.163-1.856,14.68
		c2.228,4.518,2.228,4.518,0.74,7.901c-1.488,3.39-2.968,13.185,8.921,16.951c11.889,3.758,24.158-3.014,30.849-0.752
		c6.693,2.255,6.693,4.142,13.384,7.524c6.178,3.137,9.653,5.276,15.23,5.276c5.576,0,9.054-2.14,15.236-5.276
		c6.693-3.383,6.693-5.27,13.384-7.524c6.693-2.263,18.953,4.51,30.85,0.752c11.888-3.766,10.401-13.561,8.92-16.951
		c-1.488-3.383-1.488-3.383,0.74-7.901c2.228-4.518,0-10.922-1.848-14.68c-1.868-3.782-7.801-5.293-11.521-4.909
		c-3.716,0.383-8.913,1.886-11.141,1.127c-2.228-0.744-5.184-4.134-12.986-1.127c-7.812,3.014-9.633,10.546-9.25,15.072
		c0.365,4.518,0.821,12.418,0.076,16.56c-0.744,4.142-6.228,6.029-10.324,9.044c-4.084,3.014-6.068-1.503-6.068-1.503
		s0-29.384,0-32.008c0-2.639-0.621-3.398,1.983-6.037c2.608-2.63,10.313-9.028,13.289-11.298c2.968-2.255,5.679-3.758,11.264-2.63
		c5.568,1.127,18.626,6.029,29.415,1.511c10.773-4.526,8.943-13.93,7.451-16.951c-1.484-3.008-0.356-1.88,1.507-12.05
		c1.86-10.156-6.673-14.681-10.39-16.192c-3.716-1.511-9.28,0.376-11.132-0.368c-1.868-0.767-1.849-4.526-11.51-2.639
		c-9.668,1.872-14.45,11.659-14.45,16.185s0.821,17.702-1.036,20.341c-1.86,2.631-8.084,6.029-12.18,9.036
		c-4.085,3.014-4.212-2.638-4.212-2.638s0-31.264,0-34.262c0-3.014-0.065-4.894,2.171-7.164c2.228-2.255,8.636-8.652,14.217-12.426
		c5.568-3.758,10.888-4.134,19.808-2.255c8.917,1.888,9.347,4.894,19.379,1.128c10.033-3.758,6.72-13.93,4.86-16.192
		c-1.857-2.255-3.697-1.888-1.105-5.654c2.604-3.758,3.732-13.169,0.388-17.695c-3.34-4.51-10.394-5.27-15.598-4.142
		c-5.196,1.135-4.437,1.51-10.385-0.744c-5.941-2.27-14.819-1.135-16.687,7.9c-1.86,9.066,3.429,19.206-0.656,25.235
		c-3.068,4.526-5.856,5.269-10.684,8.659c-4.84,3.391-5.707,0-5.707-2.638c0-2.631,0-15.44,0-19.95c0-4.525,0.882-5.3,1.994-8.69
		c1.116-3.39,6.612-4.541,18.136-17.726c11.513-13.185-0.613-28.318-6.934-29.416c-5.998-1.035-4.828,0.085-7.712-5.368
		c-3.789-7.188-9.726-6.589-11.582-6.214c-1.853-0.376-7.812-0.974-11.594,6.214c-2.888,5.453-1.768,4.333-7.758,5.368
		c-6.32,1.097-18.546,16.231-7.034,29.416c11.521,13.185,17.039,14.336,18.155,17.726c1.112,3.39,1.799,4.165,1.799,8.69
		c0,4.51,0,17.319,0,19.95c0,2.638-0.671,6.029-5.504,2.638c-4.828-3.39-7.305-4.134-10.374-8.659
		c-4.084-6.029,1.14-16.169-0.721-25.235c-1.86-9.036-10.769-10.17-16.713-7.9c-5.948,2.255-5.2,1.879-10.405,0.744
		c-5.204-1.128-12.256-0.368-15.605,4.142c-3.344,4.526-2.228,13.937,0.364,17.695c2.612,3.766,0.756,3.399-1.112,5.654
		c-1.857,2.262-5.197,12.433,4.836,16.192c10.032,3.766,10.408,0.76,19.328-1.128c8.913-1.879,14.117-1.503,19.694,2.255
		c5.572,3.774,12.008,10.171,14.236,12.426c2.228,2.27,1.975,4.15,1.975,7.164c0,2.999,0,34.262,0,34.262s0.069,5.653-4.015,2.638
		c-4.084-3.007-10.002-6.404-11.862-9.036c-1.848-2.638-1.092-15.815-1.092-20.341S225.615,112.472,215.954,110.6z"></path>
	<path d="M224.867,250.473c-7.072,0.92-14.178,2.754-21.453,4.035c-1.791,0.307-2.018,1.488-1.963,1.986
		c0.594,5.461,0.786,11.712,0.801,16.207c0,0.682,0.856,1.304,1.293,1.004c7.854-5.361,17.388-11.367,20.771-13.745
		C226.727,258.274,229.016,249.929,224.867,250.473z"></path>
	<path d="M167.498,306.926c7.873-8.284,17.58-17.933,23.198-23.209c0.472-0.446,1.416-2.808,1.469-3.666
		c0.353-6.106,0.668-14.19,0.257-19.943c-0.065-0.943-1.806-2.171-2.581-1.941c-7.01,2.102-13.921,4.479-20.594,7.049
		c-0.414,0.153-1.154,1.326-1.128,1.856c0.352,7.233-0.959,26.539-1.948,38.581C166.09,306.696,166.964,307.494,167.498,306.926z"></path>
	<path d="M159.168,272.518c0.157-1.273-1.236-2.684-1.891-2.393c-5.944,2.577-11.574,5.284-16.813,8.008
		c-0.552,0.299-1.642,2.01-1.66,2.961c-0.134,8.974-1.012,39.44-6.75,55.056c-6.784,18.454-14.692,32.775-19.954,34.271
		c-5.277,1.503-4.905-0.752-1.136-6.021c3.663-5.123,23.33-47.977,18.881-78.044c-0.108-0.705-1.733-1.265-2.409-0.851
		c-1.396,0.866-2.754,1.726-4.042,2.585c-3.03,1.994-6.312,4.564-9.742,7.54c-0.406,0.353-1.308,1.879-1.369,2.492
		c-0.848,8.261-4.683,41.703-12.242,56.483c-8.652,16.952-15.816,22.605-18.826,22.973c-3.011,0.375-4.898,0.752-1.884-3.766
		c2.819-4.218,26.336-44.288,23.551-64.874c-0.119-0.936-1.599-1.611-2.132-1.066c-22.367,22.788-46.076,53.852-48.656,57.533
		c-3.516,5.024-6.531,0.507-3.516-4.517c2.85-4.748,14.65-26.508,42.182-54.712c0.656-0.675-0.004-1.457-1.139-1.112
		c-11.889,3.651-33.837,12.626-49.078,30.335c-3.007,3.774-7.532,0.752-1.127-6.773c5.998-7.056,30.876-30.987,60.345-32.713
		c0.579-0.031,2.834-1.004,3.382-1.465c4.192-3.544,8.679-6.942,13.339-10.186c0.794-0.544,0.306-1.664-0.817-1.664
		c-14.788-0.016-38.259,1.902-53.653,8.751c-23.724,10.539-38.04,22.596-40.675,24.483c-2.634,1.872-6.397-3.014,2.263-10.546
		c8.659-7.532,37.285-29.001,67.789-32.384c18.638-2.078,31.363-1.326,38.96,0.675c0.702,0.185,3.222-0.153,3.85-0.522
		c5.91-3.42,11.82-6.573,17.507-9.419c0.733-0.368,0.618-1.488-0.168-1.68c-51.49-12.356-97.91,7.21-102.708,9.059
		c-4.897,1.886-5.277-0.76-3.014-3.014c2.255-2.263,13.557-10.93,40.675-17.327c27.107-6.397,74.554,2.255,77.569,4.142
		c0.92,0.583,3.298,1.434,3.992,1.127c5.511-2.431,10.439-4.456,14.47-5.998c0.748-0.292,0.939-1.435,0.28-1.749
		c-17.373-8.223-59.965-19.422-114.765-2.033c-10.166,4.142-10.926-3.39-1.886-7.532c8.905-4.088,76.003-27.92,130.209,5.308
		c0.633,0.383,1.308,1.181,3.996,0.729c7.578-1.289,17.02-3.084,24.917-3.851c3.183-0.306,2.956-2.6,2.056-3.443
		c-4.214-3.882-44.695-28.111-81.84-30.129c-37.159-2.002-87.372,3.521-108.456,26.109c-21.086,22.597-11.551,41.672-10.543,44.18
		c-18.574,7.034-37.653,39.172-18.574,59.758c19.076,20.58,21.082,25.098,23.092,37.155c2.005,12.042,6.025,29.116,36.652,25.603
		c30.631-3.521,37.66-13.561,37.66-13.561s3.01-2.009,6.528,2.018c3.508,4.003,13.055,5.016,14.554,3.006
		c1.507-2.01,2.508-26.11,9.541-39.164c5.665-10.508,14.236-21.66,17.634-27.444C156.817,308.774,158.528,277.61,159.168,272.518z"></path>
	<path d="M82.056,191.796c-2.735-0.544-7.885-0.544-9.254-5.737c-1.366-5.186-1.074-15.31-1.615-19.951
		c-0.544-4.655-5.235-8.675-9.553-9.572c-6.566-1.373-12.575,2.194-14.488,3.29c-1.914,1.082-12.303-3.29-16.399,5.461
		c-4.104,8.744,2.462,12.579,2.186,17.496c-0.2,3.582-3.555,13.944,7.106,17.772c10.662,3.82,26.248-7.654,31.452-4.372
		c5.189,3.275,10.78,7.655,17.89,7.655c7.107,0,12.702-4.38,17.902-7.655c5.188-3.282,20.774,8.192,31.44,4.372
		c10.658-3.827,7.306-14.19,7.107-17.772c-0.273-4.917,6.29-8.752,2.194-17.496c-4.107-8.752-14.489-4.38-16.403-5.461
		c-1.917-1.096-7.92-4.663-14.485-3.29c-4.322,0.897-9.005,4.917-9.553,9.572c-0.548,4.64-0.246,14.765-1.615,19.951
		c-1.361,5.192-6.704,5.192-9.442,5.737c-2.735,0.56-3.666-3.636-3.666-3.636s0-22.052,0-24.79c0-2.738,2.013-4.924,3.106-6.013
		c1.1-1.089,7.934-7.118,11.21-9.02c3.283-1.917,6.616-1.917,12.08-1.373c5.473,0.552,12.058,8.752,20.261,4.656
		c8.207-4.104,6.846-11.214,5.752-13.132c-1.093-1.91-1.089-2.194,1.373-6.013c2.454-3.82,4.376-14.22-0.54-18.048
		c-4.917-3.828-10.386-2.454-12.299-2.454c-1.918,0-1.638-0.276-4.373-3.559c-2.726-3.282-10.653-3.282-14.209-0.821
		c-3.555,2.462-6.818,9.296-6.547,14.765c0.276,5.469-1.614,16.407-2.427,18.861c-0.821,2.469-6.984,6.021-9.722,7.938
		c-2.735,1.91-3.666-3.168-3.666-3.168s0-16.522,0-18.992c0-2.454,1.461-5.446,1.461-7.908c0-2.462,6.29-6.574,15.041-13.676
		c7.694-6.251,10.677-17.181,7.402-22.366c-3.29-5.208-8.494-7.609-12.318-6.512c-3.836,1.097-3.348,0.108-3.897-3.72
		c-0.541-3.827-4.614-9.634-11.172-9.634c-6.566,0-10.635,5.807-11.183,9.634c-0.548,3.828-0.073,4.817-3.904,3.72
		c-3.827-1.097-9.05,1.304-12.341,6.512c-3.275,5.185-0.341,16.115,7.352,22.366c8.747,7.102,14.972,11.214,14.972,13.676
		c0,2.462,1.273,5.453,1.273,7.908c0,2.47,0,18.992,0,18.992s-0.76,5.078-3.49,3.168c-2.735-1.917-8.706-5.469-9.526-7.938
		c-0.821-2.454-2.707-13.392-2.436-18.861c0.28-5.469-2.995-12.303-6.55-14.765c-3.556-2.462-11.483-2.462-14.217,0.821
		c-2.731,3.283-2.45,3.559-4.372,3.559c-1.914,0-7.379-1.373-12.296,2.454c-4.924,3.828-3.007,14.229-0.544,18.048
		c2.454,3.819,2.454,4.104,1.365,6.013c-1.093,1.918-2.462,9.028,5.737,13.132c8.207,4.096,14.765-4.104,20.234-4.656
		c5.472-0.544,8.755-0.544,12.038,1.373c3.275,1.902,10.032,7.931,11.126,9.02c1.096,1.089,2.93,3.275,2.93,6.013
		c0,2.738,0,24.79,0,24.79S84.786,192.356,82.056,191.796z"></path>
	<path d="M284.978,267.862c-5.918-2.961-8.019,2.017-8.019,3.904c0,1.879,3.014,3.206,6.964,6.964
		c28.622,19.022,49.703,50.523,59.244,72.115c9.538,21.584,11.548,38.658,9.795,40.414c-1.756,1.757-4.771,0.254-6.025-6.527
		c-1.254-6.781-20.836-49.335-35.9-68.902c-15.057-19.589-41.212-35.536-45.227-37.53c-4.015-2.017-3.509,1.503-3.509,4.51
		c0,3.006,0.499,6.029,1.008,8.284c0.499,2.255-0.253,3.084,21.269,18.762c30.006,21.837,50.696,81.173,52.265,93.752
		c2.159,17.235-2.382,20.035-3.636,18.784c-1.257-1.258,0.077-18.079-13.472-48.199c-13.56-30.128-46.527-60.502-52.295-64.767
		c-5.779-4.273-5.412,2.255-5.412,2.255s0,3.015,0,6.274c0,4.772,0.641,6.282,1.14,7.532c0.502,1.258,7.858,5.522,22.412,24.1
		c21.031,26.83,23.141,58.999,24.157,73.312c1.001,14.297-2.489,31.371-5.25,31.371c-2.765,0-3.003-4.004-2.497-10.784
		c0.498-6.788,0.008-37.661-7.018-56.491c-7.037-18.831-27.663-41.166-29.669-43.184c-2.009-2.002-3.263-1.503-3.263,1.005
		c0,2.516-0.499,19.336,0,20.832c0.506,1.511,4.564,1.764,17.365,26.117c12.806,24.353,7.786,61.507,6.279,70.29
		c-1.507,8.79-6.263,18.079-9.032,18.079c-2.762,0-2.75-4.019-1.246-9.288c1.514-5.277,4.295-24.852,3.286-42.677
		c-1.004-17.833-7.49-27.114-12.008-34.892c-4.518-7.793-7.206-3.774-6.704-1.764c0,0-1.342,85.277-1.342,91.037
		c0,5.752-2.704,8.368-2.704,8.368s-2.627-2.616-2.627-8.368c0-5.76-1.32-91.037-1.32-91.037c0.499-2.01-2.17-6.029-6.681,1.764
		c-4.529,7.778-10.999,17.059-12.008,34.892c-1.008,17.825,1.776,37.4,3.291,42.677c1.507,5.269,1.511,9.288-1.25,9.288
		c-2.761,0-7.524-9.288-9.024-18.079c-1.515-8.783-6.532-45.936,6.27-70.29c12.802-24.353,16.871-24.606,17.365-26.117
		c0.506-1.496,0.008-18.316,0.008-20.832c0-2.508-1.261-3.007-3.263-1.005c-2.013,2.018-22.634,24.353-29.661,43.184
		c-7.034,18.83-7.54,49.702-7.034,56.491c0.503,6.78,0.25,10.784-2.516,10.784c-2.762,0-6.27-17.074-5.27-31.371
		c1.002-14.313,3.068-46.482,24.1-73.312c14.562-18.578,21.779-22.842,22.282-24.1c0.499-1.25,0.901-2.761,0.901-7.532
		c0-3.259,0-6.274,0-6.274s0.606-6.528-5.166-2.255c-5.775,4.265-38.528,34.639-52.077,64.767
		c-13.564,30.12-12.214,46.942-13.468,48.199c-1.262,1.25-3.977-6.021-2.224-18.577c1.756-12.556,14.8-63.249,49.825-92.349
		c20.476-17.005,21.796-18.117,22.301-20.372c0.507-2.255,1.008-5.277,1.008-8.284c0-3.007,0.507-6.527-3.509-4.51
		c-4.023,1.994-30.17,17.941-45.227,37.53c-15.064,19.566-34.646,62.121-35.9,68.902c-1.254,6.78-4.268,8.284-6.024,6.527
		c-1.753-1.756,0.257-18.83,9.786-40.414c9.55-21.592,30.631-53.092,59.252-72.115c3.95-3.758,6.964-5.086,6.964-6.964
		c0-1.887-2.102-6.865-8.019-3.904c-8.932,4.479-59.578,37.039-86.424,99.076c-12.947,38.121,7.145,56.007,22.972,58.876
		c-5.039,18.715,17.419,46.719,49.783,50.308c9.35,19.429,19.992,30.167,42.581,30.167c22.604,0,33.3-10.738,42.657-30.167
		c32.364-3.589,54.876-31.593,49.837-50.308c15.82-2.869,35.92-20.756,22.972-58.876
		C344.548,304.901,293.91,272.341,284.978,267.862z"></path>
	<path d="M308.46,273.706c0.441,0.299,1.288-0.322,1.288-1.004c0.016-4.495,0.207-10.746,0.802-16.207
		c0.054-0.498-0.173-1.68-1.956-1.986c-7.287-1.281-14.39-3.114-21.462-4.035c-4.142-0.544-1.864,7.801,0.552,9.488
		C291.076,262.339,300.602,268.345,308.46,273.706z"></path>
	<path d="M342.754,265.216c-6.673-2.57-13.584-4.948-20.595-7.049c-0.774-0.23-2.516,0.998-2.589,1.941
		c-0.395,5.752-0.088,13.837,0.265,19.943c0.053,0.858,0.997,3.221,1.469,3.666c5.619,5.276,15.325,14.925,23.202,23.209
		c0.53,0.568,1.408-0.23,1.324-1.273c-0.99-12.042-2.298-31.348-1.949-38.581C343.908,266.542,343.168,265.369,342.754,265.216z"></path>
	<path d="M485.511,277.534c1.001-2.508,10.546-21.584-10.543-44.18c-21.093-22.588-71.298-28.111-108.452-26.109
		c-37.15,2.018-77.63,26.248-81.834,30.129c-0.912,0.843-1.131,3.137,2.045,3.443c7.896,0.767,17.338,2.562,24.916,3.851
		c2.688,0.452,3.371-0.346,3.989-0.729c54.212-33.228,121.311-9.396,130.216-5.308c9.039,4.142,8.28,11.675-1.887,7.532
		c-54.799-17.389-97.384-6.19-114.757,2.033c-0.668,0.314-0.476,1.457,0.28,1.749c4.031,1.541,8.952,3.567,14.47,5.998
		c0.694,0.307,3.068-0.544,3.984-1.127c3.014-1.887,50.462-10.539,77.576-4.142c27.107,6.397,38.408,15.064,40.667,17.327
		c2.255,2.255,1.876,4.901-3.014,3.014c-4.798-1.849-51.218-21.416-102.707-9.059c-0.782,0.192-0.902,1.312-0.169,1.68
		c5.683,2.846,11.59,5.998,17.507,9.419c0.629,0.368,3.149,0.706,3.85,0.522c7.598-2.001,20.322-2.753,38.976-0.675
		c30.494,3.383,59.106,24.852,67.767,32.384c8.667,7.532,4.905,12.418,2.262,10.546c-2.627-1.887-16.94-13.944-40.663-24.483
		c-15.398-6.849-38.868-8.767-53.664-8.751c-1.116,0-1.603,1.12-0.809,1.664c4.663,3.245,9.154,6.642,13.338,10.186
		c0.548,0.46,2.803,1.434,3.383,1.465c29.468,1.726,54.339,25.657,60.345,32.713c6.404,7.524,1.879,10.547-1.128,6.773
		c-15.24-17.71-37.181-26.684-49.077-30.335c-1.139-0.345-1.795,0.437-1.147,1.112c27.54,28.204,39.34,49.964,42.19,54.712
		c3.014,5.024,0,9.541-3.517,4.517c-2.581-3.681-26.297-34.746-48.66-57.533c-0.533-0.545-2.01,0.13-2.136,1.066
		c-2.776,20.587,20.748,60.656,23.559,64.874c3.014,4.518,1.128,4.142-1.891,3.766c-3.006-0.368-10.152-6.021-18.819-22.973
		c-7.559-14.78-11.394-48.222-12.242-56.483c-0.061-0.614-0.962-2.14-1.361-2.492c-3.436-2.976-6.727-5.546-9.742-7.54
		c-1.3-0.859-2.653-1.718-4.058-2.585c-0.667-0.414-2.292,0.146-2.4,0.851c-4.456,30.067,15.225,72.921,18.88,78.044
		c3.762,5.27,4.138,7.524-1.128,6.021c-5.269-1.496-13.181-15.816-19.962-34.271c-5.737-15.616-6.619-46.082-6.749-55.056
		c-0.016-0.951-1.109-2.662-1.661-2.961c-5.239-2.723-10.876-5.43-16.809-8.008c-0.66-0.291-2.052,1.12-1.894,2.393
		c0.64,5.093,2.351,36.257,5.599,52.387c3.39,5.783,11.969,16.935,17.626,27.444c7.033,13.054,8.031,37.154,9.542,39.164
		c1.507,2.009,11.041,0.997,14.554-3.006c3.516-4.027,6.527-2.018,6.527-2.018s7.03,10.04,37.661,13.561
		c30.627,3.512,34.646-13.561,36.644-25.603c2.017-12.057,4.023-16.575,23.099-37.155
		C523.164,316.706,504.084,284.568,485.511,277.534z"></path>
	<path d="M415.233,191.796c-2.734-0.544-7.82-0.544-9.185-5.737c-1.369-5.186-1.078-15.31-1.622-19.951
		c-0.548-4.655-5.231-8.675-9.561-9.572c-6.558-1.373-12.568,2.194-14.485,3.29c-1.906,1.082-12.303-3.29-16.399,5.461
		c-4.103,8.744,2.462,12.579,2.19,17.496c-0.199,3.582-3.555,13.944,7.107,17.772c10.665,3.82,26.251-7.654,31.44-4.372
		c5.204,3.275,10.796,7.655,17.902,7.655c7.11,0,12.702-4.38,17.891-7.655c5.204-3.282,20.782,8.192,31.444,4.372
		c10.669-3.827,7.313-14.19,7.11-17.772c-0.265-4.917,6.293-8.752,2.182-17.496c-4.096-8.752-14.489-4.38-16.403-5.461
		c-1.91-1.096-7.934-4.663-14.493-3.29c-4.33,0.897-9.032,4.917-9.58,9.572c-0.545,4.64-0.288,14.765-1.654,19.951
		c-1.361,5.192-6.673,5.192-9.407,5.737c-2.735,0.56-3.732-3.636-3.732-3.636s0-22.052,0-24.79c0-2.738,2.074-4.924,3.172-6.013
		c1.092-1.089,8.046-7.118,11.321-9.02c3.283-1.917,6.585-1.917,12.054-1.373c5.472,0.552,12.038,8.752,20.241,4.656
		c8.199-4.104,6.838-11.214,5.752-13.132c-1.092-1.91-1.092-2.194,1.362-6.013c2.462-3.82,4.376-14.22-0.549-18.048
		c-4.916-3.828-10.381-2.454-12.303-2.454c-1.913,0-1.641-0.276-4.368-3.559c-2.735-3.282-10.669-3.282-14.232-0.821
		c-3.548,2.462-6.838,9.296-6.566,14.765c0.276,5.469-1.652,16.407-2.473,18.861c-0.821,2.469-6.946,6.021-9.68,7.938
		c-2.735,1.91-3.732-3.168-3.732-3.168s0-16.522,0-18.992c0-2.454,1.522-5.446,1.522-7.908c0-2.462,6.412-6.574,15.164-13.676
		c7.685-6.251,10.634-17.181,7.359-22.366c-3.283-5.208-8.498-7.609-12.337-6.512c-3.82,1.097-3.348,0.108-3.893-3.72
		c-0.548-3.827-4.618-9.634-11.176-9.634c-6.566,0-10.642,5.807-11.191,9.634c-0.54,3.828-0.072,4.817-3.908,3.72
		c-3.824-1.097-9.066,1.304-12.341,6.512c-3.283,5.185-0.361,16.115,7.325,22.366c8.744,7.102,14.949,11.214,14.949,13.676
		c0,2.462,1.224,5.453,1.224,7.908c0,2.47,0,18.992,0,18.992s-0.71,5.078-3.444,3.168c-2.734-1.917-8.64-5.469-9.461-7.938
		c-0.821-2.454-2.715-13.392-2.439-18.861c0.272-5.469-2.999-12.303-6.554-14.765c-3.548-2.462-11.474-2.462-14.209,0.821
		c-2.734,3.283-2.462,3.559-4.372,3.559c-1.914,0-7.379-1.373-12.307,2.454c-4.917,3.828-3.002,14.229-0.548,18.048
		c2.469,3.819,2.462,4.104,1.369,6.013c-1.093,1.918-2.462,9.028,5.745,13.132c8.2,4.096,14.749-4.104,20.218-4.656
		c5.465-0.544,8.733-0.544,12.015,1.373c3.283,1.902,10.018,7.931,11.111,9.02c1.092,1.089,2.876,3.275,2.876,6.013
		c0,2.738,0,24.79,0,24.79S417.968,192.356,415.233,191.796z"></path>
	<path d="M253.426,233.86c-8.97,0.99-17.564,9.541-16.065,19.068c1.503,9.55,7.532,18.087,18.083,18.087
		c10.539,0,19.168-7.034,19.574-18.578C275.524,238.37,262.47,232.847,253.426,233.86z"></path>
</g>
</svg>
