<svg version="1.0" xmlns="http://www.w3.org/2000/svg" width="872pt" height="1280pt" viewBox="0 0 872 1280" preserveAspectRatio="xMidYMid meet">
<g transform="translate(0,1280) scale(0.1,-0.1)" fill="#00d0fa" stroke="none">
<path d="M6428 12573 c-224 -460 -323 -779 -335 -1083 -4 -115 -2 -163 11
-230 29 -148 100 -269 198 -340 l37 -27 -62 -6 c-124 -12 -238 -70 -303 -155
-19 -25 -33 -46 -31 -48 1 -2 27 9 57 24 48 23 67 27 145 27 81 0 95 -3 142
-29 29 -16 59 -36 67 -45 13 -15 9 -16 -47 -17 -64 -1 -152 -29 -194 -62 -22
-17 -22 -17 40 -18 107 0 192 -54 241 -153 13 -25 42 -113 66 -196 49 -176
163 -487 230 -631 83 -177 268 -488 484 -811 54 -81 58 -62 -33 -206 -361
-575 -581 -1160 -646 -1722 -17 -148 -20 -447 -5 -580 26 -229 99 -484 194
-673 64 -127 173 -293 246 -375 29 -32 51 -59 49 -61 -2 -1 -20 -12 -39 -24
-19 -11 -49 -36 -67 -54 -32 -33 -103 -144 -103 -161 0 -4 24 -5 53 -2 99 13
225 -26 306 -93 l33 -29 -25 -100 c-79 -313 -230 -453 -492 -453 -88 0 -155 9
-234 30 -34 9 -38 15 -61 81 -39 115 -111 221 -234 345 -166 167 -333 285
-646 457 -80 44 -172 99 -205 122 -162 115 -274 279 -306 449 -14 75 -11 238
7 324 19 95 35 152 43 152 3 0 31 -51 61 -113 67 -137 153 -233 234 -260 58
-20 156 -21 206 -3 l35 13 -63 28 c-70 31 -113 74 -133 132 -17 48 -17 202 0
397 13 135 10 268 -5 336 -3 14 9 -2 28 -34 69 -124 163 -193 278 -203 58 -6
164 13 155 26 -2 4 -23 14 -45 21 -23 8 -61 31 -86 53 -79 70 -87 139 -55 542
6 66 6 148 2 183 -8 66 -2 79 17 37 20 -44 104 -126 155 -152 62 -31 132 -39
207 -23 55 12 82 30 45 30 -22 0 -95 38 -123 64 -38 34 -62 92 -69 161 -5 59
12 388 23 426 4 14 10 14 65 1 50 -13 71 -13 130 -3 38 7 69 16 69 20 0 4 -19
14 -41 21 -99 33 -153 104 -165 217 -4 33 1 158 11 277 15 182 16 233 6 314
-15 124 -43 216 -95 317 -22 44 -42 83 -44 87 -2 3 21 17 51 31 109 50 178
142 163 220 -22 119 -258 229 -426 199 -30 -6 -57 -8 -59 -6 -2 2 7 12 20 23
37 29 81 115 77 151 l-3 30 -75 -56 c-150 -114 -324 -174 -505 -174 -115 0
-205 15 -377 65 -287 82 -465 90 -559 24 -30 -21 -59 -76 -59 -112 0 -21 -7
-26 -65 -42 -136 -36 -281 -122 -399 -234 -58 -56 -156 -177 -156 -194 0 -3
12 -8 27 -12 15 -3 39 -15 54 -26 49 -35 67 -76 79 -189 6 -57 18 -120 26
-139 32 -77 101 -139 200 -181 l47 -20 -17 24 c-27 42 -21 83 19 123 l36 36
122 -7 c174 -10 257 13 353 97 42 37 46 38 39 17 -12 -40 -54 -108 -76 -123
l-20 -15 24 -58 c56 -132 54 -272 -5 -391 -40 -82 -58 -98 -51 -46 6 49 -11
93 -35 93 -11 0 -39 -7 -63 -16 -69 -24 -159 -20 -225 10 l-55 25 -43 -39
c-87 -80 -122 -192 -104 -325 5 -38 11 -72 13 -73 2 -2 10 9 19 26 8 16 31 43
51 61 44 38 77 40 202 10 113 -28 240 -30 308 -6 28 9 77 37 110 62 33 25 64
45 69 45 4 0 6 -27 4 -59 -5 -76 -37 -125 -109 -168 -105 -63 -258 -85 -784
-113 -565 -30 -867 -101 -1115 -261 -60 -39 -210 -175 -210 -190 0 -5 22 7 49
26 65 47 185 101 263 120 35 8 104 14 153 14 l90 0 -101 -24 c-56 -13 -134
-37 -175 -54 -73 -31 -109 -53 -304 -186 -151 -103 -279 -156 -378 -155 -18 0
-63 11 -100 24 l-68 23 32 -33 c17 -18 59 -45 93 -61 55 -25 71 -28 166 -27
88 0 116 4 175 27 38 14 70 25 72 23 1 -1 -32 -21 -75 -43 -303 -161 -576
-190 -770 -82 l-54 30 19 -32 c31 -55 135 -152 199 -186 87 -47 163 -64 279
-64 126 0 163 8 410 81 228 68 373 103 494 121 99 14 271 7 351 -15 l55 -15
-76 4 c-92 5 -233 -15 -311 -45 -115 -43 -224 -136 -275 -233 l-15 -30 29 21
c16 11 60 36 99 55 193 97 394 94 557 -8 94 -60 129 -144 103 -245 -21 -80
-61 -144 -140 -228 -183 -193 -476 -309 -691 -274 -33 6 -62 8 -64 7 -9 -9
101 -68 164 -87 52 -17 93 -22 161 -22 l92 1 -15 -41 c-19 -55 -40 -156 -48
-237 -15 -141 32 -294 116 -378 45 -45 155 -103 219 -116 19 -3 44 -9 55 -12
11 -3 -4 17 -37 46 -155 140 -188 314 -95 497 25 49 108 167 113 161 2 -2 -8
-30 -21 -64 -62 -152 -49 -298 32 -375 27 -25 114 -71 121 -63 2 2 -5 16 -15
31 -30 46 -25 165 9 234 16 30 37 66 49 80 l20 25 -8 -25 c-4 -14 -8 -54 -8
-90 0 -89 30 -147 120 -235 150 -146 395 -256 800 -359 230 -58 422 -127 638
-230 104 -49 297 -153 297 -160 0 -2 -9 -38 -20 -82 -43 -165 -34 -367 21
-493 10 -24 19 -47 19 -50 0 -4 -40 -59 -88 -124 -246 -325 -316 -636 -223
-984 80 -299 117 -563 107 -763 -3 -69 -9 -138 -12 -155 -8 -40 5 -27 50 49
46 77 75 154 91 241 l12 70 13 -75 c40 -233 150 -396 323 -479 45 -22 98 -42
117 -46 l35 -7 -40 29 c-64 47 -142 139 -174 206 -35 70 -71 202 -71 256 l0
36 29 -50 c39 -69 128 -150 202 -185 126 -59 263 -61 439 -4 110 35 111 39 18
53 -161 24 -298 83 -373 161 l-40 41 50 -21 c160 -68 349 -66 511 5 57 25 214
124 214 135 0 3 -39 2 -87 -4 -97 -10 -258 4 -315 27 l-33 14 39 7 c75 14 258
95 350 154 102 66 201 149 287 241 100 108 127 125 196 122 127 -4 264 -159
304 -343 31 -146 -68 -502 -179 -637 -56 -69 -91 -98 -158 -132 -66 -33 -44
-30 -419 -59 -220 -17 -334 -52 -387 -120 -17 -22 -39 -34 -82 -45 -132 -34
-255 -125 -306 -225 -26 -52 -50 -150 -50 -206 l0 -49 26 55 c51 111 136 184
255 221 87 27 115 25 133 -9 32 -62 142 -112 245 -112 l55 0 -56 -58 c-76 -78
-92 -111 -91 -197 0 -53 -4 -76 -19 -97 -62 -89 -97 -235 -79 -335 14 -74 59
-166 111 -223 36 -40 39 -41 26 -14 -8 17 -20 61 -27 98 -19 114 11 221 92
329 l44 58 70 3 c39 2 90 12 115 21 54 22 144 77 185 114 66 59 63 61 58 -32
-7 -103 6 -145 55 -188 30 -27 39 -44 49 -92 42 -207 183 -339 398 -371 l40
-6 -36 19 c-70 39 -137 110 -175 186 -32 66 -37 86 -42 170 -3 64 -1 95 6 95
23 0 130 112 160 167 18 34 45 117 65 200 57 233 169 438 336 616 125 133 263
227 386 262 55 16 58 18 39 32 -37 29 -106 54 -167 62 -62 8 -62 8 -32 21 17
7 62 15 100 17 110 8 217 -39 317 -139 35 -35 38 -36 38 -15 0 35 -54 141 -97
188 -48 53 -124 102 -193 125 l-53 17 59 22 c92 33 130 54 178 96 l45 40 -44
66 c-54 80 -98 184 -127 300 -20 77 -23 113 -22 283 0 200 11 278 60 448 l17
57 54 -60 c30 -33 73 -93 95 -133 22 -40 42 -71 45 -69 2 3 -1 42 -7 87 -53
390 -251 618 -562 647 -65 6 -68 7 -47 19 42 23 118 46 197 58 l77 13 -70 9
c-355 45 -719 -64 -1015 -306 -67 -55 -449 -341 -497 -372 -119 -77 -256 -101
-324 -55 -64 42 -99 154 -85 271 7 52 9 55 64 92 115 75 263 235 332 357 23
41 37 56 48 52 57 -22 207 -37 322 -32 149 6 215 22 335 82 229 113 375 328
451 665 23 104 24 106 78 157 78 72 144 96 268 97 l97 0 -27 49 c-37 68 -119
157 -164 177 l-37 16 43 50 c239 276 383 599 441 989 105 704 -133 1566 -664
2410 l-59 93 90 139 c399 611 523 864 673 1380 53 180 79 237 131 283 52 45
98 62 171 64 73 1 70 11 -20 52 -50 23 -76 29 -135 28 -73 0 -73 0 -50 19 13
10 51 32 86 49 58 28 70 30 140 26 57 -4 90 -12 130 -32 28 -14 52 -21 52 -16
0 21 -100 117 -148 143 -57 31 -150 57 -207 58 -35 0 -38 2 -21 12 91 56 177
186 212 322 24 94 24 323 1 455 -34 184 -103 408 -197 630 -75 179 -230 484
-240 474 -16 -16 -118 -271 -170 -422 -201 -593 -232 -1073 -87 -1364 18 -37
32 -68 31 -68 -1 0 -18 7 -37 15 -42 17 -116 20 -167 5 -35 -10 -140 -77 -140
-89 0 -4 27 -11 59 -18 33 -6 95 -28 138 -49 96 -46 196 -141 238 -227 27 -57
28 -60 22 -190 -16 -378 -153 -715 -528 -1299 -60 -93 -115 -179 -123 -190
-14 -19 -18 -14 -92 98 -215 331 -324 518 -410 707 -109 238 -170 476 -181
706 l-6 128 33 58 c64 112 172 196 316 245 32 11 71 20 87 20 l30 0 -23 25
c-13 14 -51 39 -84 55 -67 34 -152 40 -210 16 l-34 -14 34 71 c59 126 76 210
81 407 7 257 -29 486 -126 807 -64 212 -203 573 -220 573 -4 0 -55 -98 -113
-217z m-653 -3157 c43 -18 62 -54 46 -84 -32 -60 -124 -98 -255 -107 l-81 -6
57 19 c74 25 139 64 172 103 30 35 32 51 10 73 -14 15 -14 16 1 16 8 0 31 -7
50 -14z m-1069 -141 c106 -28 155 -35 226 -35 l92 0 -35 -36 c-95 -99 -287
-153 -379 -106 -19 9 -54 42 -77 73 -53 70 -113 99 -228 109 -88 7 -80 14 35
30 103 14 218 3 366 -35z m2725 -912 c285 -480 452 -914 535 -1390 35 -197 44
-536 20 -718 -39 -294 -127 -539 -274 -760 -54 -82 -163 -216 -180 -222 -4 -2
-15 17 -26 42 -10 25 -39 67 -65 93 l-46 47 -6 -85 c-5 -81 -33 -195 -50 -205
-15 -10 -50 110 -57 197 l-7 89 -47 -47 c-26 -26 -55 -66 -65 -90 -10 -24 -21
-44 -25 -44 -14 0 -123 130 -180 214 -348 520 -391 1228 -123 2031 60 177 146
381 239 561 81 156 247 444 257 444 4 0 49 -71 100 -157z"/>
<path d="M1991 9911 c79 -70 111 -145 117 -268 l4 -92 -28 -7 c-51 -12 -102
-43 -128 -77 -41 -53 -66 -171 -66 -305 0 -64 -2 -113 -5 -111 -2 3 -9 42 -14
87 -16 144 -78 233 -174 249 -32 5 -42 13 -72 63 -87 144 -226 215 -382 195
l-58 -7 63 -18 c34 -9 83 -30 109 -46 57 -35 124 -116 147 -176 l17 -44 -35
-37 c-19 -20 -40 -53 -46 -73 -17 -52 -7 -156 25 -245 15 -44 27 -102 29 -142
3 -56 11 -83 44 -151 50 -100 114 -164 225 -225 92 -50 149 -98 171 -145 14
-29 15 -45 5 -108 -28 -185 -28 -297 0 -370 8 -21 6 -29 -7 -41 -51 -45 -142
-66 -206 -49 -37 11 -38 11 -21 -9 10 -10 43 -31 74 -46 70 -35 152 -36 207
-4 26 16 40 19 54 11 29 -15 93 -12 119 6 12 9 26 12 30 8 4 -5 26 -54 49
-109 22 -55 60 -142 84 -193 l43 -92 75 60 c187 151 492 256 843 292 64 7 117
15 117 18 0 3 -38 29 -85 58 -221 139 -470 353 -622 535 -85 102 -107 143
-128 229 -38 163 -4 296 111 429 74 86 97 141 92 216 -3 45 -10 71 -26 93 -22
30 -22 31 -6 87 11 36 17 90 17 141 -1 73 -5 92 -32 147 -21 43 -51 81 -88
115 -58 51 -94 69 -56 28 52 -57 68 -107 68 -213 0 -84 -4 -109 -24 -152 l-23
-53 -55 0 c-103 0 -158 -48 -235 -205 -42 -85 -42 -67 0 25 35 79 42 192 13
247 -11 23 -34 51 -51 63 -27 19 -30 27 -30 73 0 54 -17 127 -43 188 -32 77
-117 149 -217 184 l-45 16 56 -50z"/>
<path d="M3935 8380 c-88 -18 -143 -33 -430 -120 -227 -68 -392 -67 -505 5
-21 13 -41 29 -45 35 -3 5 -11 10 -16 10 -19 0 52 -90 94 -118 60 -40 90 -51
167 -62 136 -19 273 10 549 120 209 82 336 116 466 127 66 5 82 9 60 14 -61
14 -249 7 -340 -11z"/>
<path d="M483 6661 c-54 -18 -138 -69 -130 -78 3 -2 15 0 26 7 12 6 49 13 84
16 96 9 226 -42 291 -115 17 -18 17 -24 5 -53 -7 -18 -13 -55 -13 -83 0 -67
35 -127 128 -219 74 -74 68 -72 -24 5 -112 95 -205 116 -293 67 -41 -23 -45
-24 -83 -10 -24 10 -77 16 -139 16 -94 1 -105 -1 -167 -32 -62 -30 -122 -85
-150 -136 -8 -15 -3 -14 23 7 61 46 108 60 199 60 67 0 97 -5 145 -24 l60 -24
2 -57 c3 -73 31 -129 86 -169 60 -44 184 -103 261 -124 86 -23 79 -30 -9 -10
-100 24 -177 21 -233 -7 -40 -20 -82 -64 -94 -99 -2 -5 -31 -16 -66 -24 -112
-27 -209 -88 -257 -166 -27 -41 -55 -130 -55 -168 1 -25 1 -25 15 6 22 51 102
130 159 157 44 21 144 46 182 46 7 0 22 -20 34 -45 43 -88 131 -125 301 -125
63 0 109 -5 132 -15 76 -32 230 -12 329 42 27 15 82 57 123 95 80 72 129 102
186 113 31 6 51 -1 142 -48 124 -65 219 -97 291 -97 50 0 52 -1 64 -33 24 -66
11 -150 -31 -211 l-20 -28 22 12 c41 22 102 83 124 124 15 29 21 60 21 106 1
47 6 73 21 94 13 20 19 44 18 81 l-1 52 171 13 c95 7 176 14 180 17 4 3 -23
20 -61 38 -49 23 -98 60 -174 131 -58 55 -102 100 -98 102 5 2 55 -11 112 -27
195 -57 303 -59 458 -10 250 80 480 302 480 465 0 74 -28 110 -123 159 -71 35
-86 39 -170 43 -173 8 -296 -43 -486 -199 -66 -54 -123 -99 -126 -99 -3 0 31
72 76 161 66 131 93 174 145 229 63 67 64 68 32 60 -94 -21 -127 -36 -178 -75
-261 -201 -675 -405 -819 -405 -68 0 -172 25 -230 55 -76 38 -126 88 -197 196
-67 102 -111 140 -181 159 -31 8 -54 8 -84 0 -38 -10 -43 -9 -93 24 -109 72
-238 94 -343 57z"/>
<path d="M4620 4464 c-25 -8 -99 -42 -166 -74 l-120 -58 -115 11 c-179 19
-449 15 -538 -6 -231 -56 -337 -123 -601 -382 -267 -261 -421 -379 -603 -465
l-81 -38 37 -7 c71 -14 261 21 338 61 18 9 -8 -22 -64 -78 -103 -104 -165
-207 -187 -314 -15 -73 -8 -234 13 -289 l16 -40 0 40 c4 156 113 352 253 452
l44 31 -32 -63 c-89 -177 -61 -366 79 -535 52 -63 197 -188 184 -159 -35 82
-70 181 -83 236 -18 79 -16 255 4 275 9 9 12 6 12 -17 0 -63 45 -191 95 -270
62 -99 183 -198 309 -255 111 -50 112 -49 50 32 -75 99 -174 308 -145 308 4 0
23 -16 42 -36 51 -52 211 -157 319 -208 127 -60 234 -94 353 -113 139 -23 190
-62 208 -158 23 -123 -61 -306 -187 -406 -41 -32 -202 -98 -319 -129 -98 -26
-250 -36 -327 -22 -79 15 -159 55 -210 105 -24 23 -81 97 -127 164 -180 264
-303 383 -397 383 -18 0 -44 17 -83 53 -105 96 -229 145 -346 134 -63 -6 -158
-37 -209 -68 l-29 -18 75 6 c60 5 90 1 146 -16 76 -23 174 -88 212 -141 22
-31 22 -32 5 -70 -26 -58 -17 -158 23 -240 17 -36 30 -66 28 -67 -1 -1 -21 5
-46 13 -52 18 -143 20 -185 4 -16 -6 -44 -22 -62 -36 -23 -18 -44 -24 -80 -24
-69 0 -179 -26 -241 -56 -75 -37 -144 -110 -186 -196 -57 -118 -56 -131 2 -67
91 100 212 146 356 136 63 -4 84 -10 94 -24 54 -78 84 -111 132 -144 56 -39
159 -84 218 -95 31 -6 45 -24 18 -24 -7 0 -35 -12 -62 -26 -86 -45 -134 -103
-134 -162 0 -23 -15 -45 -64 -95 -40 -40 -76 -90 -97 -133 -32 -65 -34 -74
-34 -179 1 -93 4 -119 25 -170 l25 -60 6 80 c4 44 14 99 23 123 29 81 96 159
185 219 l43 30 62 -26 c50 -20 78 -25 156 -25 86 0 107 4 218 42 168 58 289
76 472 68 291 -11 525 -89 669 -221 l43 -40 -4 75 c-3 56 -11 88 -30 128 -15
28 -23 52 -19 52 18 0 103 -102 122 -147 34 -79 36 -238 3 -328 -5 -14 3 -10
30 15 81 77 130 234 109 353 -6 34 -15 71 -19 82 -5 13 11 5 52 -27 68 -53
145 -94 195 -103 l36 -7 27 62 c45 106 192 298 212 278 3 -3 9 -28 13 -55 l7
-48 27 58 c93 202 124 431 97 722 -14 155 -34 262 -87 480 -41 172 -46 205
-51 341 l-4 151 -127 48 c-187 71 -274 118 -341 183 -101 99 -103 184 -7 277
158 154 452 187 708 81 11 -5 29 10 63 53 l47 60 -15 36 c-45 108 -59 307 -31
454 9 45 13 86 10 91 -14 22 -362 190 -393 190 -9 -1 -37 -8 -62 -16z"/>
</g>
</svg>
