<svg version="1.0" xmlns="http://www.w3.org/2000/svg" width="1240pt" height="1280pt" viewBox="0 0 1240 1280" preserveAspectRatio="xMidYMid meet">
<g transform="translate(0,1280) scale(0.1,-0.1)" fill="#00d0fa" stroke="none">
<path d="M6630 12674 c-290 -53 -362 -85 -778 -346 -358 -224 -516 -371 -748
-698 -91 -128 -128 -192 -193 -336 -76 -170 -91 -216 -101 -315 -11 -114 1
-185 70 -407 48 -154 61 -212 69 -304 6 -62 15 -130 21 -151 14 -49 63 -103
134 -147 33 -21 60 -47 68 -64 28 -69 -8 -290 -71 -435 -66 -152 -53 -223 50
-275 66 -32 144 -35 208 -6 24 11 49 20 55 20 13 0 46 -102 46 -142 1 -47 36
-105 81 -129 31 -18 46 -34 55 -62 16 -45 54 -81 112 -103 l42 -17 0 -71 0
-72 -67 -33 c-156 -76 -330 -198 -424 -297 -183 -195 -261 -439 -245 -769 8
-153 -9 -280 -48 -365 -50 -108 -76 -233 -87 -410 -5 -91 -18 -264 -29 -385
-17 -190 -51 -832 -47 -905 3 -68 -4 -109 -23 -130 -23 -26 -18 -57 11 -78 9
-6 23 -29 30 -50 6 -20 40 -96 75 -168 70 -142 123 -211 238 -304 36 -29 67
-59 71 -68 3 -8 -12 -60 -34 -116 -22 -55 -49 -134 -61 -174 l-23 -74 36 -111
c27 -82 39 -144 47 -230 13 -146 87 -593 103 -621 6 -12 12 -57 13 -101 1 -94
33 -209 99 -360 23 -55 59 -138 80 -185 20 -47 43 -101 52 -120 9 -19 15 -39
14 -45 -2 -5 -3 -33 -2 -60 3 -77 -53 -323 -110 -490 -60 -177 -139 -479 -131
-507 2 -11 23 -32 45 -46 l40 -27 -60 -18 -61 -18 -32 -92 c-72 -203 -160
-392 -262 -559 -87 -144 -111 -201 -113 -273 -1 -51 -7 -71 -37 -120 -20 -33
-55 -99 -78 -146 -36 -72 -42 -92 -36 -122 l7 -37 2324 0 c1279 0 2325 2 2325
4 0 2 -18 50 -41 106 -49 123 -93 200 -159 279 -51 61 -232 222 -332 294 -32
23 -58 46 -58 51 0 21 -195 402 -268 524 -89 149 -92 161 -92 366 0 146 13
174 87 192 29 8 75 25 103 39 69 35 270 203 423 355 71 70 130 122 132 116 2
-6 13 -49 25 -96 30 -120 201 -693 210 -705 4 -5 10 -26 14 -45 9 -50 121
-243 201 -345 90 -116 120 -130 319 -150 104 -10 159 -21 191 -36 51 -24 72
-45 28 -28 -93 36 -292 50 -393 28 -102 -22 -132 -70 -191 -301 -24 -97 -139
-628 -139 -644 0 -2 450 -4 999 -4 l999 0 7 58 c10 90 8 141 -6 158 -15 18
-155 89 -244 124 -33 13 -61 24 -63 25 -1 1 7 27 19 56 11 30 23 87 26 127 l6
73 114 -3 c105 -3 116 -1 130 17 17 23 14 76 -18 300 -32 220 -34 340 -11 620
24 279 23 372 -2 625 -34 334 -17 488 109 985 81 320 89 391 82 664 -10 359
-67 673 -164 899 l-35 82 35 108 c98 296 96 517 -8 842 -80 250 -261 761 -307
870 -131 307 -292 517 -516 674 -45 31 -97 78 -116 104 -19 26 -62 74 -96 107
-64 61 -67 65 -315 496 -142 247 -256 427 -285 453 -13 11 -49 48 -80 81 -231
250 -447 453 -490 462 -18 3 -30 13 -34 28 -3 12 -38 47 -78 78 -68 52 -180
161 -239 233 -14 17 -38 39 -53 49 -22 14 -27 24 -23 44 4 18 -6 44 -30 86
-42 71 -164 349 -169 385 -2 14 -8 79 -14 144 -9 100 -16 133 -46 205 -65 156
-75 196 -84 356 -19 327 -43 435 -172 785 -63 168 -118 279 -246 492 -213 354
-300 455 -487 568 -152 91 -276 145 -434 186 -79 21 -124 26 -256 29 -88 2
-171 1 -185 -1z m-1020 -12323 c0 -14 -7 -32 -16 -42 -14 -16 -17 -16 -38 5
l-22 21 30 32 c32 35 46 30 46 -16z"/>
</g>
</svg>
