<svg version="1.0" xmlns="http://www.w3.org/2000/svg" width="640pt" height="1280pt" viewBox="0 0 640 1280" preserveAspectRatio="xMidYMid meet">
<g transform="translate(0,1280) scale(0.1,-0.1)" fill="#9e9e9e" stroke="none">
<path d="M2230 12778 c-34 -23 -35 -26 -38 -94 -2 -48 5 -109 23 -188 38 -177
33 -281 -26 -546 -30 -132 -56 -207 -91 -265 -30 -48 -30 -52 -25 -140 11
-179 94 -417 181 -519 176 -206 195 -214 362 -161 18 6 20 3 16 -32 -3 -27
-17 -52 -48 -86 -68 -76 -86 -135 -94 -317 -4 -85 -13 -198 -20 -250 l-13 -96
-115 -74 -115 -73 -35 44 c-20 24 -92 102 -161 172 -224 229 -361 318 -525
342 -45 6 -48 5 -41 -12 24 -56 39 -108 65 -231 33 -151 74 -250 115 -278 72
-50 104 -88 153 -181 l51 -99 -62 -34 c-34 -18 -141 -84 -237 -145 -197 -127
-251 -155 -332 -179 -31 -9 -85 -30 -120 -46 -59 -28 -70 -30 -185 -30 -68 0
-123 -3 -123 -7 0 -21 67 -101 170 -205 110 -110 119 -116 175 -129 101 -23
386 -18 529 10 156 29 235 60 372 143 63 37 116 68 118 68 2 0 27 -43 55 -94
28 -52 69 -116 91 -141 49 -56 47 -73 -15 -130 -23 -22 -51 -53 -61 -70 -11
-18 15 1 65 50 l84 80 37 -44 38 -43 -65 -59 c-49 -44 -71 -58 -85 -53 -14 4
-29 -5 -57 -35 -21 -23 -40 -41 -42 -41 -3 0 -3 19 -2 43 4 57 -12 21 -22 -50
-6 -50 -9 -53 -41 -59 -21 -4 -36 -13 -40 -27 -3 -11 -26 -48 -49 -82 -23 -35
-57 -104 -76 -155 -25 -71 -43 -104 -79 -144 -50 -54 -82 -112 -119 -211 -12
-33 -31 -71 -41 -85 l-20 -25 0 68 c0 88 32 185 111 337 33 63 51 104 39 90
-47 -54 -132 -217 -186 -359 -20 -50 -26 -90 -31 -192 -6 -128 -6 -129 -30
-129 -18 0 -23 -4 -19 -17 6 -22 26 -133 26 -146 0 -5 -11 -2 -25 7 -37 24
-37 20 -3 -35 19 -32 33 -69 36 -98 4 -46 5 -47 34 -43 l30 5 -17 -33 c-9 -17
-15 -33 -13 -35 2 -2 27 -13 56 -24 84 -33 106 -29 201 40 47 33 104 65 128
72 24 6 43 14 43 17 0 4 -37 31 -78 56 -2 1 1 11 7 23 11 20 31 21 110 5 l24
-5 -24 -26 -24 -25 35 7 c63 13 139 46 193 82 28 20 83 52 122 71 83 41 192
142 273 252 31 41 101 125 157 185 56 61 130 147 164 193 35 46 82 96 104 112
23 16 55 40 70 54 15 15 36 26 46 26 40 0 98 76 208 278 97 177 126 220 217
330 42 50 141 181 220 290 128 175 150 201 197 227 92 51 175 83 233 90 48 6
56 5 56 -9 0 -30 -47 -109 -185 -311 -294 -430 -364 -576 -395 -830 -14 -113
-6 -186 36 -333 47 -162 117 -263 218 -311 55 -27 99 -28 244 -7 163 25 192
28 192 19 0 -13 -82 -113 -167 -203 -44 -47 -108 -124 -142 -172 -69 -97 -160
-174 -196 -163 -11 3 -85 19 -165 36 -80 16 -178 38 -218 49 -108 30 -264 110
-372 190 -132 99 -137 100 -86 26 32 -47 46 -78 51 -118 9 -65 81 -262 141
-381 24 -49 44 -95 44 -102 0 -8 13 -29 29 -47 16 -18 32 -48 36 -67 9 -43
111 -198 135 -206 9 -3 43 -26 75 -50 40 -31 82 -53 139 -71 l81 -25 85 43
c77 39 89 49 133 113 69 100 123 152 197 186 36 17 94 53 130 79 36 26 108 68
160 94 58 28 125 71 170 110 94 78 397 430 427 495 29 60 43 157 43 295 l0
110 -79 140 c-75 132 -119 220 -154 307 -13 31 -24 40 -73 58 -102 39 -184 51
-419 61 -214 10 -372 24 -383 35 -6 6 170 270 293 439 92 128 145 227 195 371
23 64 30 101 27 130 -7 59 -66 212 -95 246 l-25 31 41 36 c83 75 155 195 206
345 15 44 51 180 80 303 29 123 55 226 57 229 3 2 38 -5 79 -16 103 -27 199
-27 243 -2 18 11 57 28 85 37 29 10 52 23 52 29 -1 25 -67 185 -102 247 -23
40 -71 98 -125 151 l-88 86 -63 5 c-34 2 -64 7 -67 10 -4 3 3 68 14 145 34
227 46 406 35 520 l-10 100 -62 84 c-101 138 -128 166 -149 153 -30 -17 -121
-161 -138 -217 -10 -35 -15 -88 -14 -166 l2 -113 30 56 c16 31 33 56 37 56 10
0 20 -63 20 -130 0 -95 -41 -351 -60 -369 -10 -9 -20 -28 -24 -43 -8 -37 -50
-84 -100 -113 -42 -25 -195 -70 -204 -60 -3 2 22 52 56 110 33 58 57 105 53
105 -14 0 -117 -114 -159 -178 -24 -34 -53 -69 -65 -77 -23 -14 -111 -45 -132
-45 -6 0 -16 47 -23 108 -13 120 -57 309 -97 422 -26 71 -109 248 -123 261 -4
4 -24 10 -45 13 -40 7 -47 -1 -61 -66 -4 -16 -20 -35 -41 -48 -23 -14 -46 -42
-64 -79 -16 -31 -59 -108 -96 -171 -136 -232 -234 -457 -315 -720 -22 -74 -42
-136 -44 -137 -2 -2 -31 30 -64 72 -78 95 -178 178 -264 218 -61 29 -66 34
-61 57 10 47 176 385 199 405 12 11 69 49 126 84 174 109 256 177 448 371 188
191 247 235 336 254 28 6 35 3 57 -25 l25 -32 32 27 c18 14 78 48 134 75 118
56 151 81 201 156 l36 55 -80 89 c-197 215 -244 235 -451 191 -52 -12 -127
-26 -166 -34 -47 -8 -85 -23 -115 -43 -24 -17 -134 -75 -244 -131 -110 -55
-230 -120 -268 -145 l-67 -45 -148 146 c-81 81 -194 202 -250 269 -56 67 -108
125 -115 130 -6 4 -32 8 -57 9 -25 1 -63 4 -85 8 -33 6 -46 4 -75 -16z m1472
-1352 c12 -23 25 -57 30 -76 17 -70 28 -248 21 -356 l-6 -111 -95 -44 c-53
-24 -98 -45 -102 -47 -3 -1 -2 39 3 90 5 57 5 94 -1 96 -5 1 -17 9 -27 16 -16
11 -17 19 -6 82 7 38 24 106 39 152 22 69 24 86 14 103 -14 22 -5 45 48 117
36 50 47 47 82 -22z m778 -821 c0 -19 -80 -215 -121 -296 -65 -130 -286 -495
-295 -486 -2 2 3 75 11 163 8 87 15 218 16 289 2 193 -4 181 114 239 106 52
275 107 275 91z m-754 -422 c-3 -16 -8 -48 -12 -73 -3 -25 -15 -67 -25 -93
-24 -61 -25 -131 -1 -165 10 -15 40 -67 67 -116 26 -49 63 -106 82 -127 l35
-39 -19 -32 c-18 -32 -129 -115 -139 -105 -3 2 1 16 7 31 7 14 10 28 7 31 -2
3 -26 -2 -52 -11 -26 -9 -49 -14 -52 -11 -3 3 -18 63 -34 134 -15 71 -44 180
-64 241 -19 62 -38 138 -42 170 l-6 59 113 65 c63 36 120 66 127 67 10 1 12
-7 8 -26z m-779 -399 c-3 -18 2 -33 14 -45 24 -24 24 -51 -2 -129 l-22 -63
102 -95 c57 -53 118 -116 137 -141 l35 -45 -48 -21 c-101 -45 -345 -127 -352
-119 -4 5 -13 28 -20 52 -6 23 -25 61 -40 85 -36 53 -56 112 -77 228 l-17 93
43 35 c48 41 243 189 249 190 2 1 1 -11 -2 -25z m544 -706 c-34 -69 -238 -326
-437 -548 -178 -200 -329 -348 -474 -465 -74 -60 -165 -135 -202 -167 -61 -54
-69 -58 -90 -47 -38 19 -58 41 -58 62 0 75 155 428 265 602 83 132 71 127 163
66 l80 -52 83 16 c46 9 94 18 105 20 19 4 23 14 29 70 7 72 1 118 -22 154 -15
23 -13 106 2 132 22 34 554 223 574 204 2 -2 -6 -23 -18 -47z m-1007 -390
c-19 -64 -49 -98 -73 -84 -23 14 35 106 66 106 10 0 12 -7 7 -22z m-518 -673
c-9 -43 -16 -86 -16 -96 0 -21 -38 -79 -52 -79 -22 0 -5 87 34 171 22 49 43
87 45 85 3 -2 -2 -39 -11 -81z m250 -150 c4 -8 4 -22 0 -30 -7 -19 -36 -8 -36
14 0 32 26 43 36 16z m-65 -41 c11 -14 10 -18 -6 -30 -27 -20 -42 -17 -48 8
-10 36 29 51 54 22z"/>
<path d="M2918 7913 c-24 -26 -48 -65 -48 -77 0 -28 74 33 99 82 10 19 9 22
-7 22 -10 0 -30 -12 -44 -27z"/>
<path d="M3748 6225 c-68 -36 -169 -134 -219 -213 -23 -37 -85 -132 -136 -210
-89 -136 -95 -144 -120 -137 -30 7 -84 42 -96 62 -13 21 -58 40 -112 47 -75
11 -140 58 -176 129 -32 61 -48 63 -183 22 -65 -20 -136 -45 -157 -56 -36 -18
-39 -23 -39 -60 0 -23 -7 -69 -16 -102 -22 -85 -12 -130 47 -229 60 -99 78
-120 144 -163 28 -17 103 -82 168 -144 131 -123 228 -193 350 -252 88 -42 172
-58 306 -59 l73 0 -6 -27 c-24 -96 -23 -96 -129 -174 -207 -154 -580 -391
-671 -427 -41 -15 -354 -229 -534 -365 -52 -38 -133 -109 -180 -157 -121 -121
-181 -158 -126 -77 13 20 21 37 16 37 -20 0 -158 -138 -194 -194 -35 -54 -74
-154 -64 -163 2 -3 16 16 31 40 14 25 33 51 42 58 14 12 15 10 8 -21 -4 -19
-14 -51 -23 -70 -14 -28 -24 -36 -49 -38 -32 -3 -33 -5 -33 -49 0 -26 7 -72
16 -104 16 -56 16 -57 -9 -95 -14 -22 -29 -51 -32 -66 -4 -16 -11 -28 -15 -28
-5 0 -10 -26 -12 -57 -3 -32 -15 -96 -28 -143 -15 -53 -21 -93 -16 -105 6 -15
14 3 31 70 40 151 110 347 144 400 l32 50 -6 -56 c-7 -67 -24 -123 -59 -202
-15 -33 -36 -93 -47 -135 -45 -170 -46 -172 -88 -172 l-38 0 10 -45 c10 -42 9
-47 -16 -73 -14 -15 -31 -49 -38 -76 -10 -42 -10 -52 5 -76 15 -27 15 -29 -3
-35 -22 -7 -39 -51 -71 -190 -12 -49 -30 -119 -41 -154 -10 -35 -19 -79 -19
-98 0 -30 -3 -35 -20 -30 -24 6 -25 -2 -5 -29 16 -22 20 -60 6 -69 -5 -3 -15
21 -22 52 -13 67 -6 188 15 249 8 23 27 108 41 190 15 82 28 160 31 174 l4 25
-11 -25 c-6 -14 -26 -83 -45 -155 -19 -71 -46 -154 -59 -184 -29 -62 -30 -71
-10 -71 19 0 20 -16 2 -27 -8 -4 -13 -21 -13 -38 1 -25 -3 -30 -25 -33 l-27
-3 14 -46 c18 -60 18 -117 -2 -228 -29 -165 -6 -364 76 -665 58 -212 74 -280
68 -286 -3 -2 -17 0 -32 5 -26 10 -34 3 -17 -14 18 -19 71 -133 71 -152 0 -26
152 -323 196 -383 29 -40 41 -48 115 -72 l83 -28 29 28 c40 38 55 80 68 186
14 123 23 155 72 266 39 87 66 141 214 430 59 114 211 547 267 760 30 113 191
527 316 810 31 71 40 103 37 127 -5 28 -1 37 31 63 l36 30 -24 25 -23 25 21 0
c12 0 22 6 22 14 0 8 5 16 10 18 6 2 13 27 17 56 3 29 11 52 17 52 7 0 19 6
28 13 13 10 14 23 8 75 -8 62 -8 63 35 127 24 35 80 137 125 227 56 112 93
173 116 194 27 23 43 52 69 127 20 58 51 121 78 159 24 35 65 104 90 153 58
112 90 151 172 210 74 52 388 245 393 240 4 -3 -37 -80 -138 -255 -42 -74
-103 -184 -135 -245 -32 -60 -69 -122 -82 -136 -19 -20 -27 -45 -34 -98 -6
-50 -25 -109 -64 -200 -71 -165 -84 -209 -94 -306 -18 -178 49 -416 140 -505
85 -82 248 -139 426 -149 l112 -6 5 -180 c9 -290 25 -339 136 -399 71 -39 143
-48 240 -31 154 27 176 39 259 145 49 61 117 90 228 96 79 5 93 3 133 -18 32
-16 52 -36 68 -68 22 -42 23 -54 19 -165 -10 -243 -102 -559 -223 -770 -53
-92 -90 -135 -116 -135 -22 0 -23 -9 -2 -25 15 -10 2 -24 -95 -103 -114 -93
-184 -133 -306 -174 -60 -20 -90 -23 -210 -23 l-140 0 -90 39 c-49 21 -116 49
-147 62 -31 14 -103 31 -160 40 -104 15 -246 59 -393 121 -44 18 -82 33 -84
33 -3 0 9 -15 25 -32 17 -18 52 -61 78 -95 l47 -63 -25 -43 -26 -43 80 -39
c85 -42 107 -60 167 -142 26 -36 82 -84 178 -153 152 -110 206 -142 295 -170
52 -16 99 -39 164 -78 24 -14 287 -8 413 9 93 13 344 91 383 119 54 38 116
161 180 357 33 100 64 203 69 229 8 40 7 47 -9 51 -16 4 -17 8 -3 61 8 30 35
90 59 131 37 64 70 139 108 246 6 15 9 17 16 6 6 -10 10 1 15 35 4 27 18 117
31 199 13 83 30 205 36 272 10 109 14 122 32 127 20 5 20 5 -2 29 -13 14 -22
36 -22 54 0 52 -29 175 -53 223 -22 45 -162 178 -240 227 -58 36 -132 62 -210
73 -70 10 -72 12 -141 79 -39 37 -81 73 -94 80 -22 12 -22 13 -5 41 9 17 21
30 25 30 11 0 48 38 48 49 0 4 -27 11 -60 15 l-60 7 30 57 c34 65 36 75 16 91
-8 7 -18 26 -21 42 -9 40 -191 224 -245 248 -39 17 -43 17 -108 0 -84 -24 -82
-24 -82 9 -1 24 -2 25 -14 10 -7 -10 -23 -18 -34 -18 -19 0 -12 14 51 112 65
101 193 255 204 244 2 -2 -10 -33 -27 -67 -30 -62 -30 -63 -5 -34 14 17 35 48
46 70 29 61 139 181 205 223 33 21 106 88 162 149 82 88 112 113 140 120 34 8
41 16 85 103 27 52 72 136 101 185 85 143 93 173 77 296 -7 56 -19 119 -28
141 -28 69 -152 148 -235 148 -34 0 -57 6 -78 22 -37 27 -300 77 -440 83 -52
3 -122 10 -156 16 l-61 11 -184 -71 c-101 -39 -195 -76 -207 -81 -13 -6 -22
-7 -20 -3 1 5 42 80 89 168 106 195 150 304 183 455 81 367 75 465 -35 565
-61 57 -182 97 -304 102 -81 3 -95 1 -137 -22z m48 -635 c-13 -128 -76 -334
-91 -297 -4 9 -4 32 -1 50 3 17 7 84 9 147 2 96 6 123 25 165 l23 50 21 -25
c18 -22 19 -33 14 -90z m-570 -1681 c-13 -24 -27 -55 -31 -69 -3 -14 -37 -90
-75 -170 -79 -168 -194 -437 -239 -562 -56 -154 -146 -330 -183 -359 -36 -28
-53 -71 -83 -214 -11 -51 -41 -132 -85 -225 -37 -80 -103 -226 -145 -325 -112
-260 -175 -397 -235 -505 -56 -102 -171 -279 -181 -280 -23 -1 -79 55 -107
105 -31 57 -32 58 -26 23 5 -30 3 -38 -9 -38 -20 0 -23 6 -32 53 -7 33 -5 37
14 37 15 0 21 6 21 21 0 13 -5 19 -12 16 -53 -19 -57 -18 -73 14 l-17 32 26
-7 26 -6 0 85 c0 54 -6 99 -15 122 -21 50 -20 53 25 53 22 0 40 2 40 5 0 2 -9
19 -20 37 -11 18 -20 47 -20 64 0 37 33 141 65 204 15 31 20 51 14 65 -15 38
-11 45 17 34 15 -5 28 -8 30 -7 1 2 10 34 18 72 15 64 15 71 0 94 -22 34 -12
127 17 158 17 18 20 30 14 63 -4 23 0 81 9 138 9 54 20 138 26 188 5 49 15 92
21 94 6 2 21 13 32 24 18 18 19 28 13 95 l-6 76 45 58 45 58 -15 37 c-13 31
-13 39 -2 51 12 11 18 10 43 -11 l28 -24 78 82 c94 100 179 170 317 264 91 62
106 69 116 55 10 -14 27 -7 136 58 128 77 391 219 396 214 2 -2 -8 -23 -21
-47z m-1143 -673 c8 -20 -20 -43 -35 -28 -14 14 -3 42 16 42 7 0 16 -6 19 -14z
m-38 -93 c-14 -37 -92 -316 -121 -438 -10 -41 -13 -85 -9 -137 6 -70 4 -83
-21 -138 -15 -33 -30 -60 -34 -60 -23 0 -25 98 -5 190 16 71 19 156 7 164 -4
2 -36 -72 -71 -165 -48 -127 -68 -169 -81 -169 -15 0 -18 16 -24 107 -4 69 -3
110 4 117 5 5 10 22 10 37 0 23 3 26 23 21 22 -5 22 -5 4 16 -14 16 -17 29
-12 54 20 93 167 418 193 426 9 3 5 -13 -11 -45 l-25 -49 18 -53 c17 -51 18
-53 30 -31 7 13 10 40 7 60 -4 34 -1 42 32 73 39 37 69 56 88 57 10 0 9 -9 -2
-37z m3173 -707 c58 -29 146 -98 166 -129 8 -12 18 -35 22 -52 6 -26 -6 -18
-92 66 -55 53 -112 106 -128 117 -38 29 -27 28 32 -2z m-3338 -149 c0 -32 -1
-33 -35 -29 -30 4 -35 8 -35 31 1 24 2 24 14 9 12 -17 14 -17 31 2 24 26 25
26 25 -13z m-505 -628 c0 -17 -6 -25 -22 -27 -19 -3 -23 1 -23 21 0 25 14 38
35 33 6 -2 10 -14 10 -27z m299 -336 c7 -30 6 -33 -17 -33 -24 0 -26 4 -32 74
-5 53 -3 80 6 97 12 23 14 20 24 -41 7 -36 15 -80 19 -97z m-357 12 c-2 -5 -9
14 -16 43 -7 29 -10 60 -5 70 5 12 10 -2 16 -43 4 -33 6 -64 5 -70z m563 -144
l21 -54 -22 -23 c-13 -13 -26 -24 -31 -24 -4 0 -8 42 -8 93 0 100 5 101 40 8z"/>
<path d="M3545 1673 c-16 -2 -163 -31 -325 -62 -162 -32 -332 -64 -376 -71
l-82 -12 2 -117 c1 -94 -2 -122 -16 -148 -24 -43 -23 -53 13 -103 l31 -43 112
6 c86 4 143 14 256 45 80 22 215 54 300 72 177 37 220 55 258 110 24 34 32 39
67 40 61 1 68 9 50 55 l-16 38 63 -7 63 -6 -48 45 -48 44 38 16 37 16 -29 24
c-61 50 -94 59 -210 61 -60 1 -123 0 -140 -3z"/>
</g>
</svg>
