<svg version="1.0" xmlns="http://www.w3.org/2000/svg" width="975pt" height="1280pt" viewBox="0 0 975 1280" preserveAspectRatio="xMidYMid meet">
<g transform="translate(0,1280) scale(0.1,-0.1)" fill="#00d0fa" stroke="none">
<path d="M0 9227 l0 -3573 88 -89 c49 -50 121 -112 161 -140 39 -27 93 -67
119 -87 25 -21 54 -38 62 -38 9 0 45 -21 81 -46 35 -25 93 -59 128 -75 61 -28
119 -64 269 -165 268 -181 304 -209 476 -374 218 -209 358 -460 373 -671 8
-115 22 -137 76 -120 49 17 57 35 57 131 0 148 -84 434 -175 595 -41 73 -74
120 -190 271 -157 205 -499 500 -775 669 -113 69 -125 77 -256 177 -167 128
-327 338 -375 493 -49 158 -62 340 -33 465 16 70 34 101 34 58 0 -65 104 -316
171 -415 16 -23 29 -44 29 -48 0 -25 121 -172 227 -275 213 -209 321 -285 528
-372 135 -57 168 -62 435 -63 l245 0 145 58 c166 66 254 121 359 221 180 174
261 357 261 594 0 59 -4 76 -20 92 -51 51 -94 14 -177 -155 -30 -60 -70 -130
-89 -155 -19 -25 -37 -52 -41 -60 -27 -63 -187 -202 -295 -257 -179 -91 -349
-110 -531 -59 -279 77 -518 239 -615 417 -43 79 -88 204 -125 349 -18 72 -21
112 -21 260 1 151 5 193 29 305 42 199 111 432 149 502 22 40 20 16 -8 -90
-49 -186 -78 -400 -77 -562 1 -191 58 -471 124 -600 39 -77 131 -197 181 -238
54 -42 194 -113 286 -144 77 -25 384 -27 445 -2 22 10 64 26 93 37 30 12 65
29 79 39 14 10 35 23 45 29 36 21 109 98 150 157 43 63 115 243 124 311 8 56
-11 184 -39 265 -27 76 -103 193 -152 234 -66 54 -161 89 -265 96 -156 12
-262 -20 -362 -108 -59 -52 -83 -112 -82 -201 2 -116 56 -189 167 -231 114
-43 259 -21 335 51 60 57 55 156 -9 191 -17 9 -26 4 -64 -37 -51 -56 -88 -62
-148 -25 -50 31 -59 67 -23 97 44 38 100 49 161 29 69 -21 115 -61 150 -131
25 -51 29 -71 30 -144 0 -75 -3 -90 -27 -131 -53 -90 -143 -147 -263 -168 -93
-16 -153 -3 -265 55 -71 36 -96 56 -128 97 -60 80 -78 115 -111 212 -39 116
-51 220 -51 426 0 163 1 172 41 331 69 276 108 379 236 633 32 62 155 264 197
323 38 53 264 325 446 537 315 368 438 514 484 578 27 36 52 64 55 62 2 -3
-63 -141 -147 -308 -148 -296 -242 -491 -242 -503 0 -3 -13 -31 -29 -63 -15
-32 -34 -75 -41 -97 -7 -21 -28 -74 -47 -117 -31 -70 -86 -282 -113 -437 -6
-30 -10 -113 -10 -185 0 -170 29 -304 94 -432 54 -109 67 -123 112 -123 50 0
61 29 39 106 -49 170 -56 233 -52 409 4 168 5 172 50 315 24 80 54 165 65 190
11 25 27 63 35 85 56 152 77 191 200 374 26 39 47 73 47 76 0 3 30 49 67 103
61 89 195 245 449 522 185 202 277 332 453 640 59 103 156 316 171 375 7 27 8
25 9 -17 1 -64 -42 -264 -83 -378 -19 -52 -42 -120 -51 -150 -22 -69 -106
-239 -148 -297 -128 -177 -208 -271 -305 -356 -177 -154 -184 -162 -180 -198
2 -18 11 -37 20 -43 25 -15 134 33 234 104 47 33 88 60 93 60 5 0 56 46 113
103 96 95 175 195 223 285 11 21 48 89 82 152 68 127 123 261 148 360 9 36 32
110 50 165 60 180 100 478 98 740 -2 121 -6 156 -32 255 -43 165 -93 297 -137
358 -9 12 -14 22 -11 22 8 0 167 -225 167 -237 0 -2 20 -34 44 -71 45 -69 108
-211 153 -342 14 -41 38 -109 54 -150 51 -137 69 -315 68 -654 0 -132 -4 -281
-8 -331 -9 -110 -47 -254 -95 -357 -51 -112 -113 -265 -131 -323 -8 -28 -18
-102 -21 -165 -8 -134 1 -160 81 -242 42 -44 44 -48 22 -48 -48 0 -59 -36 -29
-98 15 -31 16 -41 5 -62 -19 -36 -16 -68 7 -82 14 -9 20 -24 21 -48 0 -41 52
-146 124 -252 73 -108 210 -254 349 -372 211 -180 276 -264 276 -359 0 -98
-29 -127 -225 -223 -166 -83 -203 -114 -231 -197 -21 -62 -20 -150 1 -200 18
-45 77 -105 158 -165 95 -71 130 -144 104 -220 -28 -81 -101 -142 -222 -185
-116 -42 -144 -56 -161 -82 -25 -38 -11 -91 29 -111 52 -28 116 -78 123 -97 8
-26 -3 -76 -25 -113 -11 -18 -56 -59 -100 -93 -98 -75 -126 -110 -145 -185
-25 -93 -7 -162 72 -284 60 -92 68 -124 47 -178 -19 -51 -81 -106 -143 -128
-123 -44 -355 -38 -492 13 -47 17 -179 59 -295 92 -115 33 -228 66 -250 74
-60 20 -293 38 -408 32 -134 -6 -200 -33 -261 -105 -65 -76 -73 -106 -111
-445 -14 -120 -32 -248 -40 -285 -21 -95 -62 -365 -80 -523 -9 -83 -15 -227
-15 -379 0 -323 16 -401 117 -584 31 -57 179 -190 279 -252 156 -97 367 -179
579 -228 66 -15 143 -34 170 -41 51 -14 545 -88 665 -99 36 -4 196 -11 357
-16 277 -10 466 -27 543 -50 53 -15 88 -12 111 11 15 15 19 28 15 45 -6 23 -1
21 67 -25 169 -114 494 -428 681 -659 261 -322 619 -629 926 -794 105 -57 346
-161 420 -182 30 -8 87 -24 125 -35 304 -87 733 -104 975 -39 108 29 176 67
352 194 121 89 181 141 266 232 187 199 372 416 372 435 0 34 -20 57 -48 57
-28 0 -106 -43 -129 -71 -6 -8 -69 -43 -140 -77 -112 -54 -143 -64 -248 -82
-181 -31 -434 -44 -580 -29 -203 20 -457 80 -605 144 -97 41 -246 120 -273
143 -9 8 -25 20 -36 26 -96 56 -134 84 -217 157 -105 92 -236 233 -318 343
-76 102 -133 201 -208 361 -78 167 -115 281 -157 480 -5 28 -19 91 -30 140
-11 50 -36 212 -56 360 -49 369 -80 558 -104 635 -12 36 -21 74 -21 85 0 25
-118 375 -132 393 -6 6 -7 12 -2 12 12 0 75 -109 122 -210 125 -272 192 -473
282 -850 28 -118 57 -240 65 -270 7 -30 21 -98 30 -150 9 -52 27 -135 40 -185
12 -49 28 -115 35 -145 7 -30 23 -77 36 -105 99 -218 144 -305 194 -380 8 -12
28 -42 44 -66 49 -75 254 -269 401 -380 238 -180 288 -207 525 -284 248 -80
284 -86 497 -92 201 -6 284 1 448 39 105 24 313 119 391 179 28 21 54 39 59
39 4 0 32 23 63 51 30 28 80 68 111 89 169 119 196 155 152 199 -31 31 -57 26
-179 -33 -200 -99 -311 -121 -597 -121 -293 0 -381 15 -665 107 -263 85 -375
144 -541 286 -99 84 -171 167 -290 334 -78 109 -96 142 -167 317 -111 275
-152 423 -206 746 -48 286 -65 441 -76 680 -22 491 -31 642 -44 720 -16 97
-58 241 -85 288 -11 20 -25 53 -30 74 -9 34 -69 141 -126 228 -11 16 -15 26
-9 22 11 -6 69 -91 125 -182 36 -58 62 -124 103 -260 44 -151 68 -294 101
-610 27 -254 105 -785 130 -885 7 -30 18 -89 25 -130 40 -268 161 -577 288
-733 156 -192 462 -445 639 -528 174 -82 275 -109 443 -121 165 -12 227 -6
405 44 175 49 242 88 381 221 135 130 196 214 255 349 22 51 47 107 55 123 57
107 92 335 74 483 -16 129 -32 183 -99 331 -71 156 -154 263 -286 369 -144
115 -281 166 -480 178 -92 6 -107 4 -195 -23 -121 -39 -197 -79 -285 -152
-159 -131 -222 -303 -185 -502 21 -111 89 -209 144 -209 61 0 71 41 35 132
-15 36 -22 77 -23 128 -1 85 12 116 87 211 79 99 235 159 372 144 85 -9 201
-50 262 -91 76 -52 188 -174 223 -243 126 -251 108 -515 -51 -728 -21 -29 -39
-56 -39 -61 0 -24 -133 -133 -221 -180 -166 -90 -255 -110 -403 -92 -96 11
-276 60 -337 90 -71 37 -216 146 -283 215 -130 132 -209 281 -245 462 -36 178
-42 326 -25 549 23 291 24 749 1 939 -30 245 -96 525 -152 635 -7 14 -25 61
-40 105 -30 90 -152 341 -188 389 -76 102 -10 42 83 -74 37 -47 88 -114 113
-151 89 -129 271 -510 300 -629 35 -148 59 -595 51 -950 -13 -555 33 -893 153
-1120 62 -118 93 -159 170 -230 154 -141 362 -186 554 -121 102 34 158 62 224
111 71 53 97 84 155 180 67 112 84 171 85 295 0 97 -1 102 -40 178 -93 184
-293 296 -477 266 -118 -19 -188 -80 -223 -195 -49 -163 27 -326 179 -383 121
-45 171 -38 234 33 62 71 49 156 -23 156 -24 0 -39 -6 -47 -20 -20 -31 -56
-24 -99 19 -48 48 -52 90 -13 126 64 60 187 28 228 -59 55 -115 -31 -299 -180
-382 -51 -28 -71 -34 -122 -34 -71 0 -149 26 -219 73 -87 58 -198 245 -230
387 -14 61 -16 123 -15 330 1 140 6 311 12 380 6 69 17 206 25 305 20 245 20
607 -1 715 -8 45 -14 89 -12 98 8 36 49 -119 58 -218 13 -136 18 -158 38 -169
26 -14 71 -1 84 22 15 29 4 326 -17 437 -66 358 -127 569 -238 820 -179 408
-330 648 -600 953 -38 42 -66 77 -62 77 4 0 46 -35 93 -77 130 -119 369 -386
447 -501 98 -145 103 -153 121 -192 9 -19 29 -53 44 -75 38 -55 83 -148 108
-220 56 -165 108 -379 119 -487 3 -39 12 -76 20 -84 22 -22 61 -17 90 12 l26
26 -7 182 c-9 234 -22 369 -47 481 -10 49 -24 117 -29 151 -19 120 -140 401
-219 509 -20 28 -54 77 -76 110 -39 59 -66 95 -172 226 -106 131 -463 439
-616 529 -28 17 -61 36 -71 43 -96 60 -153 90 -374 201 -139 69 -290 142 -337
161 -193 80 -436 206 -575 298 -184 123 -215 147 -326 256 -105 102 -184 215
-249 354 -44 96 -111 304 -101 314 3 3 10 -7 16 -23 49 -137 165 -369 207
-418 11 -11 32 -40 48 -64 36 -54 116 -128 218 -201 116 -83 124 -87 227 -132
52 -22 118 -51 145 -64 28 -13 93 -37 145 -55 305 -101 913 -368 1135 -498
159 -94 192 -117 385 -267 121 -94 293 -261 354 -344 94 -129 220 -391 257
-533 50 -199 167 -523 232 -646 74 -140 101 -177 228 -315 162 -174 278 -245
440 -268 126 -18 200 -7 311 48 79 38 106 58 183 136 173 176 228 309 229 557
l1 135 -44 95 c-81 174 -158 268 -266 321 -78 38 -155 41 -217 9 -50 -26 -58
-35 -58 -72 0 -26 -3 -28 -43 -28 -64 0 -127 -44 -161 -111 -59 -119 -16 -221
101 -237 l47 -7 -28 -18 c-15 -10 -51 -21 -79 -24 -69 -7 -111 21 -149 98 -38
77 -45 168 -24 339 26 223 38 395 40 575 1 160 -1 178 -32 310 -19 77 -40 159
-48 182 -32 89 -176 284 -296 399 -96 92 -329 274 -351 274 -5 0 -21 9 -35 21
-88 69 -458 240 -572 264 -19 4 -89 22 -155 41 -169 46 -567 108 -900 140
-334 31 -524 77 -738 179 -106 50 -127 73 -30 32 208 -88 341 -127 450 -134
82 -5 102 -3 180 22 115 35 157 60 231 139 85 92 127 182 153 338 47 274 2
475 -159 711 -73 107 -269 265 -386 310 -85 32 -222 48 -312 37 -195 -25 -344
-167 -361 -342 -7 -85 6 -121 79 -225 55 -76 63 -83 94 -83 53 0 67 47 41 140
-7 25 -11 55 -9 67 6 40 77 108 143 138 56 25 70 27 133 22 98 -9 178 -51 272
-145 140 -140 196 -314 144 -451 -26 -71 -102 -160 -178 -208 -120 -77 -364
-127 -450 -92 -31 13 -22 14 100 14 125 0 137 2 188 27 84 42 152 102 179 160
71 153 68 296 -11 415 -65 98 -144 143 -250 143 -135 0 -215 -73 -239 -218
-14 -85 -5 -126 41 -190 36 -50 108 -76 178 -66 71 11 104 75 64 124 -15 18
-21 20 -44 11 -23 -9 -29 -7 -38 9 -17 31 -11 60 17 86 38 36 80 30 111 -16
28 -42 24 -87 -15 -171 -30 -67 -79 -102 -161 -120 -92 -19 -167 1 -262 69
-74 53 -159 164 -193 251 -38 93 -48 175 -57 451 -5 151 -14 293 -19 315 -6
22 -11 56 -11 76 0 20 -7 55 -15 78 -16 45 -8 52 21 20 23 -25 196 -123 244
-137 53 -16 159 -30 320 -42 171 -13 297 -33 371 -59 145 -49 281 -142 409
-278 60 -63 75 -84 121 -164 9 -16 21 -34 26 -41 27 -36 114 -253 127 -320 24
-116 21 -312 -5 -409 -18 -68 -19 -81 -7 -106 37 -77 132 -7 153 112 4 22 16
76 28 120 17 67 21 111 21 270 0 169 -2 200 -23 280 -30 113 -118 297 -184
383 -69 90 -44 70 69 -55 107 -119 152 -201 223 -408 71 -210 80 -443 26 -662
-15 -61 -25 -119 -22 -127 4 -9 18 -21 31 -28 20 -9 30 -8 51 6 28 18 40 43
60 121 7 28 27 100 45 160 32 109 32 113 32 315 l0 205 -40 150 c-72 273 -173
456 -347 630 -97 97 -264 205 -390 251 -27 10 -59 24 -71 31 -12 7 -54 20 -95
28 -41 8 -103 22 -139 30 -37 8 -149 17 -260 21 -190 6 -198 7 -329 46 -128
38 -356 144 -406 188 -16 14 -115 81 -183 125 -9 6 -68 48 -132 95 -63 47
-136 98 -161 115 -76 49 -102 67 -146 102 -22 18 -52 37 -65 43 -12 6 -50 31
-83 55 -33 24 -80 56 -105 71 -25 15 -65 39 -89 53 -24 14 -51 31 -61 36 -10
6 -25 17 -34 24 -30 25 -242 142 -311 173 -38 16 -92 40 -120 53 -84 39 -244
105 -255 105 -5 0 -53 14 -106 31 -54 17 -118 37 -143 44 -230 64 -284 78
-341 90 -36 8 -112 24 -170 37 l-105 23 -1392 3 -1393 2 0 -3573z"/>
<path d="M0 4874 c0 -385 3 -754 7 -820 l6 -119 90 -65 c129 -93 367 -328 503
-495 64 -79 122 -153 128 -164 6 -11 57 -95 112 -188 108 -179 135 -235 253
-535 56 -142 61 -192 71 -693 16 -804 19 -843 92 -1065 48 -148 52 -157 135
-282 55 -82 74 -103 130 -138 113 -72 189 -91 358 -91 307 0 520 135 665 421
28 54 34 79 38 147 4 77 3 83 -21 107 -55 55 -97 24 -111 -79 -9 -67 -44 -117
-102 -146 -70 -34 -131 -35 -264 -5 -130 30 -188 62 -265 148 -72 80 -114 241
-115 432 0 69 12 148 57 365 56 272 57 278 57 446 1 267 -30 404 -166 755 -52
132 -189 410 -245 496 -35 54 -91 133 -213 298 -141 193 -390 450 -640 661
-228 194 -213 179 -158 150 25 -14 52 -32 58 -40 7 -8 16 -15 21 -15 11 0 297
-193 366 -247 403 -312 571 -493 811 -867 18 -27 41 -73 52 -102 11 -30 36
-88 55 -129 73 -153 145 -431 165 -631 5 -55 10 -188 10 -296 0 -194 -9 -271
-40 -328 -6 -11 -10 -48 -8 -83 3 -62 3 -62 35 -65 45 -4 58 20 104 195 63
236 70 295 76 628 5 330 4 342 -61 660 -19 94 -44 193 -55 220 -11 28 -41 102
-65 165 -62 161 -157 359 -192 399 -31 36 -74 105 -98 157 -8 17 -35 58 -60
91 -25 33 -46 64 -46 67 0 18 -369 444 -456 526 -165 155 -453 387 -539 434
-27 15 -82 50 -121 79 -40 29 -85 60 -100 69 -80 49 -186 135 -246 200 l-67
73 -1 -701z"/>
<path d="M2 2960 l3 -895 22 -31 c62 -87 207 -463 249 -648 52 -230 168 -515
256 -627 15 -20 28 -41 28 -47 0 -5 44 -54 98 -109 142 -145 357 -281 451
-286 83 -4 82 60 -1 120 -98 72 -172 155 -221 251 -54 103 -68 157 -98 374
-21 154 -21 161 -5 385 9 125 21 284 27 353 14 152 6 416 -16 565 -9 61 -34
166 -56 233 -21 68 -39 129 -39 135 0 7 -13 39 -28 72 -16 33 -32 78 -36 100
-4 21 -18 57 -31 80 -25 45 -177 284 -209 330 -12 17 -26 37 -31 46 -48 75
-144 212 -174 249 -21 25 -58 77 -83 115 -25 39 -60 83 -78 100 l-31 30 3
-895z"/>
<path d="M5546 1787 c-15 -11 -17 -25 -15 -73 14 -249 -9 -625 -62 -1001 -17
-116 -19 -156 -10 -167 22 -26 510 -181 696 -220 39 -8 106 -27 150 -41 97
-31 219 -49 470 -70 238 -19 375 -19 539 0 231 28 399 71 440 114 33 34 31 60
-6 80 -24 14 -40 13 -170 -9 -116 -20 -176 -25 -313 -24 -167 0 -173 1 -330
43 -196 51 -377 127 -481 202 -21 15 -56 37 -76 49 -55 30 -332 303 -379 374
-47 70 -155 288 -193 391 -51 132 -131 297 -162 331 -33 36 -67 44 -98 21z"/>
<path d="M0 855 l0 -855 259 0 259 0 11 33 c9 26 8 50 -3 103 -7 38 -17 113
-20 167 -7 91 -46 273 -79 362 -9 22 -25 83 -37 135 -25 107 -78 275 -117 365
-14 33 -39 92 -55 130 -46 107 -204 415 -214 415 -2 0 -4 -385 -4 -855z"/>
</g>
</svg>
