<svg viewBox="5.413 5.413 89.174 89.174" width="89.174" height="89.174" xmlns="http://www.w3.org/2000/svg" fill="#F10">
  <g>
    <path d="M71.104,35.421c-0.615-3.526-2.7-6.292-5.385-8.616c-2.371-2.054-5.149-3.246-8.212-3.636    c-2.487-0.317-5.001-0.605-7.505-0.66c-2.505,0.054-5.02,0.343-7.509,0.66c-3.06,0.39-5.84,1.583-8.21,3.636    c-2.684,2.324-4.769,5.089-5.384,8.616c-0.797,4.573-0.051,8.955,2.507,12.929c0.153,0.238,0.367,0.438,0.552,0.656    c0,0,0.642,0.464,1.021,1.095c0.094,0.158,0.268,0.449,0.437,0.733c-0.15,1.155-0.304,2.31-0.332,3.468    c-0.086,3.41,0.468,4.689,3.715,6.301c0.814,0.405,1.666,0.739,2.458,1.184c1.806,1.016,3.383,2.235,3.476,4.566    c0.031,0.809,0.623,1.162,1.244,1.047c2.591-0.482,4.306-0.711,6.025-0.706c1.718-0.006,3.435,0.224,6.023,0.706    c0.623,0.115,1.213-0.238,1.245-1.047c0.094-2.332,1.67-3.55,3.477-4.566c0.791-0.445,1.643-0.779,2.458-1.184    c3.246-1.611,3.8-2.891,3.714-6.301c-0.029-1.158-0.183-2.313-0.331-3.468c0.168-0.284,0.342-0.575,0.437-0.733    c0.379-0.631,1.021-1.095,1.021-1.095c0.185-0.218,0.398-0.418,0.552-0.656C71.154,44.376,71.9,39.994,71.104,35.421z     M43.262,55.081c-1.847,1.479-4.174,1.01-5.76-0.972c-1.042-1.301-1.688-2.792-1.673-4.508c-0.029-1.706,0.815-2.876,2.686-3.268    c1.817-0.379,3.68-0.613,5.534-0.728c1.73-0.107,3.059,1.317,2.841,3.042C46.561,51.255,45.286,53.46,43.262,55.081z     M49.249,60.035c-0.198,0.933-0.602,1.884-1.146,2.664c-0.628,0.896-1.501,0.671-1.776-0.379    c-0.178-0.676-0.202-1.393-0.296-2.092c0.402-1.773,1.284-3.188,2.616-4.322c0.554-0.474,0.96-0.314,0.941,0.396    C49.552,57.549,49.507,58.82,49.249,60.035z M53.678,62.32c-0.276,1.05-1.149,1.274-1.776,0.379    c-0.546-0.78-0.949-1.731-1.147-2.664c-0.257-1.214-0.302-2.485-0.338-3.733c-0.021-0.71,0.386-0.87,0.94-0.396    c1.331,1.135,2.214,2.549,2.616,4.322C53.88,60.927,53.855,61.644,53.678,62.32z M62.501,54.109    c-1.587,1.981-3.913,2.451-5.762,0.972c-2.023-1.62-3.298-3.826-3.627-6.433c-0.217-1.725,1.111-3.149,2.843-3.042    c1.854,0.115,3.715,0.348,5.532,0.728c1.87,0.392,2.715,1.562,2.688,3.268C64.189,51.316,63.543,52.808,62.501,54.109z"/>
    <path d="M86.856,48.406c-0.293-0.52-0.702-0.99-1.126-1.416c-0.903-0.906-1.354-1.968-1.438-3.244    c-0.035-0.526-0.229-1.084-0.497-1.543c-0.688-1.184-2.096-1.277-2.974-0.219c-0.387,0.464-0.711,0.987-1.02,1.509    c-0.965,1.636-2.264,2.934-3.942,3.814c-2.125,1.114-4.234,2.281-6.438,3.226c-0.291,0.125-0.556,0.263-0.792,0.415    c0.097,1.558,0.006,3.086-0.288,4.579c0.252-0.039,0.499-0.096,0.727-0.191c2.436-1.033,4.83-2.165,7.252-3.226    c2.051-0.898,4.107-1.791,6.441-1.476c0.682,0.092,1.371,0.144,2.058,0.214c0-0.014,0.002-0.027,0.004-0.041    c0.222,0,0.442,0.006,0.664,0C87.035,50.76,87.625,49.762,86.856,48.406z"/>
    <path d="M59.057,66.206c-0.096,0.157-0.27,0.449-0.438,0.732c0.087,0.67,0.174,1.34,0.238,2.009    c0.138,0.083,0.285,0.168,0.446,0.263c2.019,1.185,4.069,2.355,5.906,3.787c1.07,0.836,1.763,2.165,2.604,3.289    c0.48,0.642,1.022,1.152,1.871,1.204c0.665,0.019,1.164-0.291,1.36-0.887c0.184-0.564,0.287-1.179,0.285-1.772    c-0.005-1.019,0.34-1.804,1.15-2.437c0.542-0.423,1.044-0.912,1.488-1.435c0.907-1.065,0.666-2.292-0.658-2.692    c-0.886-0.267-1.896-0.14-2.851-0.144c-1.233-0.004-2.486,0.187-3.691,0.017c-1.013-0.144-1.982-0.645-2.943-1.056    c-1.334-0.573-2.65-1.187-3.971-1.794C59.633,65.481,59.292,65.812,59.057,66.206z"/>
    <path d="M13.144,48.406c0.293-0.52,0.702-0.99,1.128-1.416c0.902-0.906,1.353-1.968,1.437-3.244    c0.036-0.526,0.229-1.084,0.497-1.543c0.688-1.184,2.096-1.277,2.976-0.219c0.385,0.464,0.709,0.987,1.017,1.509    c0.967,1.636,2.265,2.934,3.943,3.814c2.126,1.114,4.235,2.281,6.438,3.226c0.291,0.125,0.556,0.263,0.792,0.415    c-0.097,1.558-0.004,3.086,0.288,4.579c-0.252-0.039-0.498-0.096-0.726-0.191c-2.437-1.033-4.829-2.165-7.255-3.226    c-2.047-0.898-4.105-1.791-6.438-1.476c-0.683,0.092-1.371,0.144-2.057,0.214c-0.002-0.014-0.004-0.027-0.005-0.041    c-0.222,0-0.442,0.006-0.665,0C12.966,50.76,12.374,49.762,13.144,48.406z"/>
    <path d="M40.861,66.206c0.094,0.157,0.267,0.449,0.436,0.732c-0.088,0.67-0.174,1.34-0.237,2.009    c-0.139,0.083-0.287,0.168-0.447,0.263c-2.017,1.185-4.067,2.355-5.904,3.787c-1.073,0.836-1.765,2.165-2.605,3.289    c-0.48,0.642-1.022,1.152-1.872,1.204c-0.663,0.019-1.163-0.291-1.358-0.887c-0.185-0.564-0.287-1.179-0.286-1.772    c0.005-1.019-0.34-1.804-1.15-2.437c-0.54-0.423-1.044-0.912-1.489-1.435c-0.907-1.065-0.666-2.292,0.659-2.692    c0.885-0.267,1.896-0.14,2.851-0.144c1.232-0.004,2.486,0.187,3.69,0.017c1.012-0.144,1.983-0.645,2.943-1.056    c1.335-0.573,2.651-1.187,3.973-1.794C40.283,65.481,40.623,65.812,40.861,66.206z"/>
  </g>
</svg>