<svg version="1.0" xmlns="http://www.w3.org/2000/svg" width="1280pt" height="1280pt" viewBox="0 0 1280 1280" preserveAspectRatio="xMidYMid meet">
<g transform="translate(0,1280) scale(0.1,-0.1)" fill="#00d0fa" stroke="none">
<path d="M6276 11179 c-836 -41 -1657 -310 -2366 -775 -493 -323 -953 -766
-1287 -1239 -754 -1069 -1037 -2364 -798 -3647 136 -737 468 -1468 934 -2058
1050 -1332 2681 -2008 4351 -1804 517 63 1010 209 1488 440 1272 614 2214
1765 2563 3132 245 959 180 2002 -181 2913 -344 868 -917 1604 -1675 2151
-363 261 -799 487 -1225 633 -442 152 -855 231 -1335 255 -219 11 -236 11
-469 -1z m464 -829 c1221 -69 2321 -683 3027 -1690 388 -553 620 -1180 695
-1880 16 -152 16 -624 -1 -765 -75 -642 -259 -1182 -578 -1693 -82 -132 -275
-402 -286 -402 -1 0 -1252 1250 -2780 2778 l-2779 2779 94 69 c378 284 732
471 1156 611 479 158 954 221 1452 193z m-506 -4239 l2778 -2778 -90 -71
c-463 -357 -1037 -618 -1623 -736 -534 -108 -1133 -99 -1669 26 -1223 284
-2259 1158 -2749 2318 -293 694 -380 1459 -252 2211 89 521 305 1059 604 1509
43 64 216 300 221 300 0 0 1251 -1250 2780 -2779z"/>
<path d="M5751 9915 c-380 -83 -589 -327 -651 -760 -36 -257 43 -592 186 -787
50 -67 144 -150 217 -189 l62 -34 344 -5 345 -5 17 -87 c36 -185 105 -376 176
-493 151 -247 340 -382 628 -448 86 -20 125 -21 960 -24 566 -2 881 -7 902
-14 40 -13 79 -58 93 -107 6 -22 10 -181 10 -399 l0 -363 178 0 178 0 -4 133
c-20 868 -18 828 -42 891 -27 72 -87 139 -153 173 -105 53 -111 53 -1062 52
-969 0 -948 -2 -1100 62 -263 109 -422 382 -465 799 -5 52 -10 103 -10 113 0
16 -26 17 -403 17 -455 0 -461 1 -543 73 -88 77 -147 200 -179 372 -14 71 -14
101 -5 176 28 234 113 375 275 455 108 53 179 64 423 64 l212 0 0 175 0 175
-262 -1 c-184 0 -282 -5 -327 -14z"/>
<path d="M7127 9593 c-4 -3 -7 -87 -7 -185 l0 -178 359 0 359 0 53 -28 c89
-46 139 -137 139 -252 0 -115 -53 -234 -141 -313 -25 -23 -224 -197 -441 -387
-218 -190 -397 -348 -397 -352 -1 -5 416 -8 927 -8 872 0 932 -1 1019 -19 239
-50 384 -181 454 -411 23 -74 23 -84 27 -667 l3 -593 169 0 170 0 0 558 c0
602 -4 660 -55 815 -113 348 -380 573 -780 659 -29 6 -257 13 -555 17 l-505 6
135 117 c143 124 145 127 197 230 105 212 105 463 0 648 -86 153 -251 267
-470 325 -87 24 -106 25 -373 25 -154 0 -284 -3 -287 -7z"/>
<path d="M7786 5848 c61 -62 288 -295 504 -518 l394 -405 68 -3 68 -3 0 521 0
520 -572 0 -573 0 111 -112z"/>
<path d="M8950 5435 l0 -525 220 0 220 0 0 525 0 525 -220 0 -220 0 0 -525z"/>
<path d="M9530 5435 l0 -525 150 0 150 0 0 525 0 525 -150 0 -150 0 0 -525z"/>
<path d="M3110 5410 l0 -560 2103 1 2102 0 -565 560 -564 559 -1538 0 -1538 0
0 -560z"/>
</g>
</svg>
