<svg version="1.0" xmlns="http://www.w3.org/2000/svg" width="1280pt" height="1167pt" viewBox="0 0 1280 1167" preserveAspectRatio="xMidYMid meet">
<g transform="translate(0,1167) scale(0.1,-0.1)" fill="#00d0fa" stroke="none">
<path d="M7112 11654 c-12 -8 -29 -28 -37 -45 -20 -38 -152 -367 -280 -700
-163 -422 -246 -612 -393 -904 l-85 -170 -24 -165 c-49 -344 -94 -679 -147
-1095 -31 -236 -65 -497 -75 -580 -11 -82 -45 -346 -77 -585 -31 -239 -57
-436 -58 -437 -1 -1 -51 7 -111 17 -61 10 -144 22 -186 26 l-75 6 -81 237
c-45 130 -142 407 -216 616 -165 466 -273 786 -327 968 -30 103 -53 158 -89
215 -70 113 -129 219 -329 593 -244 456 -330 598 -412 679 -36 36 -155 145
-265 242 -110 97 -220 196 -245 222 -24 25 -48 46 -52 46 -45 0 152 -339 350
-601 68 -91 93 -136 168 -305 216 -487 427 -866 607 -1091 71 -89 49 -22 227
-718 93 -364 240 -974 255 -1057 l7 -36 -89 -7 c-251 -18 -394 -50 -523 -115
-67 -34 -80 -36 -80 -15 0 8 -12 40 -27 72 -27 58 -41 74 -263 290 -58 56
-172 185 -255 286 l-150 185 -59 12 c-215 43 -481 179 -1130 579 -179 110
-373 228 -430 260 l-105 60 -788 66 c-433 36 -823 70 -865 74 -43 4 -78 4 -78
0 0 -4 22 -23 48 -43 59 -43 141 -66 237 -66 38 0 88 -5 110 -9 22 -5 105 -17
185 -26 80 -9 296 -38 480 -65 184 -27 400 -56 480 -65 l145 -17 115 -66 c221
-128 480 -309 920 -645 109 -84 195 -161 291 -260 144 -150 301 -293 668 -609
124 -106 226 -197 227 -203 1 -5 -16 -25 -37 -44 -49 -42 -35 -47 -274 108
-511 335 -763 451 -977 451 l-68 0 -172 -128 c-923 -684 -1587 -1051 -2421
-1338 -77 -26 -142 -54 -146 -63 -47 -88 -116 -1182 -127 -2031 l-6 -425 31
35 c89 101 124 253 135 590 3 102 20 354 36 560 17 206 33 466 37 578 4 128
10 205 17 210 6 5 67 32 136 61 160 68 457 217 630 316 283 162 487 298 1035
689 368 262 741 517 887 605 l87 53 83 -43 c104 -55 307 -190 508 -339 85 -64
178 -131 205 -150 28 -18 52 -35 54 -37 3 -2 -16 -25 -40 -51 -160 -167 -277
-340 -384 -565 -97 -205 -158 -418 -174 -607 -9 -104 2 -413 19 -555 35 -278
101 -519 195 -710 109 -221 224 -344 398 -425 117 -54 207 -73 357 -73 329 0
702 136 1212 440 97 58 212 134 255 168 195 156 408 419 597 736 l57 97 107
-43 c59 -23 115 -45 124 -48 15 -5 12 -22 -31 -149 -54 -158 -113 -319 -221
-598 -186 -481 -283 -756 -331 -940 -33 -124 -48 -279 -32 -327 15 -43 -82
-303 -595 -1598 -266 -671 -428 -1102 -419 -1111 23 -23 369 696 744 1546 239
541 483 1117 496 1172 5 17 15 28 30 30 43 6 104 149 161 382 54 221 99 454
241 1271 20 116 48 264 61 329 13 66 21 123 17 127 -5 3 -66 26 -138 49 -71
24 -132 44 -134 46 -7 6 31 84 40 84 5 0 120 -36 256 -79 137 -44 286 -91 333
-105 l85 -26 52 -73 c128 -180 254 -411 586 -1072 263 -524 352 -666 409 -652
53 14 227 -363 327 -709 41 -143 100 -380 121 -487 7 -32 13 -57 15 -55 7 6
-25 317 -46 458 -45 301 -118 567 -230 844 -46 113 -48 121 -32 138 15 17 15
25 5 66 -18 66 -75 162 -302 507 -228 347 -324 505 -426 700 -114 219 -186
396 -230 565 -13 52 -30 97 -36 101 -25 15 -202 42 -480 73 -158 18 -290 34
-293 37 -12 13 18 68 43 78 15 6 410 155 877 332 l850 321 85 -16 c272 -54
988 -207 1249 -268 549 -126 968 -245 1301 -368 109 -41 119 -46 193 -119 162
-157 364 -408 481 -598 31 -50 83 -147 116 -215 33 -68 60 -115 60 -106 0 9
-13 69 -30 133 -74 289 -238 596 -516 971 -69 94 -96 121 -168 172 -85 59 -89
60 -209 82 -1013 184 -1587 358 -2055 624 l-63 36 -217 -7 -217 -6 -800 -243
c-439 -134 -800 -242 -802 -240 -11 11 13 65 33 75 14 6 29 22 34 35 5 13 82
118 172 233 779 991 1234 1591 1563 2061 1 1 60 14 131 28 553 108 999 286
1829 729 401 214 776 402 959 480 l135 58 78 -74 c43 -40 300 -285 571 -544
272 -258 498 -472 504 -474 16 -5 -36 89 -88 159 -60 82 -164 208 -272 330
-151 170 -534 569 -650 677 l-113 105 -127 -52 c-70 -29 -329 -141 -577 -248
-1003 -433 -1343 -565 -1810 -707 -196 -59 -481 -133 -656 -170 l-76 -16 -48
-75 c-227 -359 -692 -958 -1144 -1474 -171 -196 -499 -550 -509 -550 -4 0 -22
29 -41 65 -81 157 -228 300 -373 363 -34 14 -34 1 -8 309 11 131 33 409 50
618 43 530 104 1289 136 1680 l27 330 60 95 c85 134 226 411 291 572 87 212
214 614 242 766 7 35 8 36 15 12 4 -14 47 -290 95 -615 48 -324 91 -594 94
-598 11 -13 30 203 37 408 6 209 -7 452 -38 695 -21 171 -73 459 -91 503 -18
47 -64 60 -106 31z"/>
</g>
</svg>
