<svg version="1.0" xmlns="http://www.w3.org/2000/svg" width="1255pt" height="1280pt" viewBox="0 0 1255 1280" preserveAspectRatio="xMidYMid meet">
<g transform="translate(0,1280) scale(0.1,-0.1)" fill="#00d0fa" stroke="none">
<path d="M7595 12658 c-231 -267 -292 -428 -239 -632 16 -63 90 -216 104 -216
13 0 100 72 159 131 135 135 190 288 161 444 -17 88 -95 349 -106 352 -5 1
-40 -34 -79 -79z"/>
<path d="M4579 12588 c-27 -146 -32 -335 -10 -413 40 -144 138 -259 294 -349
l48 -27 23 53 c46 106 60 177 60 293 0 129 -19 188 -88 282 -42 58 -277 283
-295 283 -5 0 -19 -55 -32 -122z"/>
<path d="M5686 12465 c-223 -78 -337 -139 -425 -226 -108 -107 -158 -245 -152
-423 l1 -29 59 7 c130 15 272 68 362 136 63 47 131 136 159 210 20 52 101 352
97 357 -2 1 -47 -14 -101 -32z"/>
<path d="M6580 12462 c0 -56 33 -290 50 -357 54 -211 205 -361 423 -420 37
-10 71 -15 75 -11 4 4 7 71 7 149 0 199 -27 283 -125 390 -61 67 -113 102
-292 196 -120 63 -138 70 -138 53z"/>
<path d="M7995 12021 c-33 -10 -84 -30 -112 -44 -70 -36 -179 -141 -226 -217
l-38 -61 38 -16 c87 -36 225 -63 323 -63 120 0 200 22 290 81 72 46 314 279
303 290 -5 4 -68 17 -141 28 -167 26 -351 27 -437 2z"/>
<path d="M3800 11964 c0 -4 39 -59 87 -122 150 -199 250 -283 393 -333 76 -26
238 -32 330 -11 86 20 88 22 60 83 -56 121 -152 242 -237 301 -24 16 -73 41
-110 55 -65 26 -78 27 -295 31 -126 2 -228 0 -228 -4z"/>
<path d="M9606 11759 c-161 -185 -224 -290 -253 -422 -26 -122 -1 -249 77
-385 35 -61 32 -61 127 20 207 176 270 352 209 583 -36 135 -77 269 -84 276
-4 4 -38 -29 -76 -72z"/>
<path d="M5923 11718 c-191 -224 -253 -346 -253 -503 0 -98 44 -236 100 -316
l21 -29 46 32 c82 60 188 180 227 259 63 129 68 226 21 393 -41 143 -73 247
-78 252 -2 3 -40 -37 -84 -88z"/>
<path d="M7203 11547 c-95 -206 -108 -252 -107 -382 0 -124 18 -186 82 -284
34 -51 127 -151 141 -151 24 0 138 190 172 286 31 88 29 218 -4 305 -26 68
-195 350 -214 356 -5 2 -37 -56 -70 -130z"/>
<path d="M3795 11603 c-267 -181 -365 -300 -396 -479 -18 -104 12 -304 46
-304 30 0 214 102 276 153 152 126 195 265 180 580 l-6 118 -100 -68z"/>
<path d="M2698 11548 c9 -121 35 -295 53 -355 61 -200 214 -343 424 -397 46
-12 61 -12 67 -3 15 23 9 266 -8 330 -31 121 -98 215 -204 287 -50 34 -319
180 -331 180 -3 0 -3 -19 -1 -42z"/>
<path d="M8600 11539 c0 -6 -9 -8 -21 -4 -21 7 -21 5 -14 -66 13 -141 37 -283
57 -344 45 -133 124 -233 240 -300 58 -34 190 -85 220 -85 8 0 24 20 36 44 41
81 24 288 -32 412 -30 64 -111 154 -181 199 -67 43 -279 155 -293 155 -7 0
-12 -5 -12 -11z"/>
<path d="M4915 11468 c21 -227 54 -368 112 -467 44 -76 133 -155 225 -200 78
-38 196 -76 206 -66 2 2 7 53 10 113 10 223 -49 377 -187 485 -48 38 -348 207
-366 207 -3 0 -3 -33 0 -72z"/>
<path d="M8230 11354 c-271 -96 -409 -191 -483 -332 -41 -78 -67 -184 -67
-273 l0 -59 34 0 c57 0 227 48 304 86 90 44 175 126 220 210 29 57 127 385
120 404 -2 4 -59 -12 -128 -36z"/>
<path d="M10030 11119 c-75 -14 -200 -83 -273 -149 -57 -52 -166 -196 -156
-204 13 -10 99 -38 166 -54 219 -55 378 -27 531 92 31 24 103 91 160 148 108
109 118 131 64 142 -148 32 -393 44 -492 25z"/>
<path d="M6415 11104 c-193 -28 -333 -125 -443 -305 l-22 -37 40 -16 c140 -56
336 -81 441 -56 91 21 179 73 280 163 114 103 205 195 198 201 -3 3 -62 15
-133 26 -128 20 -305 32 -361 24z"/>
<path d="M10808 10851 c-203 -234 -261 -348 -261 -516 0 -75 5 -103 30 -170
16 -44 43 -102 60 -128 l30 -48 52 41 c124 99 215 214 253 324 26 75 24 193
-6 302 -43 160 -79 274 -85 273 -3 0 -36 -35 -73 -78z"/>
<path d="M5623 10712 c-155 -181 -223 -288 -269 -422 -29 -85 -25 -252 8 -347
26 -73 90 -197 108 -208 12 -7 56 23 130 89 123 110 201 221 237 338 26 81 21
241 -10 348 -34 118 -95 312 -99 316 -2 2 -49 -50 -105 -114z"/>
<path d="M2490 10763 c-14 -2 -103 -25 -197 -50 -147 -39 -171 -48 -161 -61
26 -31 265 -203 329 -237 131 -69 266 -89 401 -60 79 16 238 88 238 107 0 7
-44 56 -98 109 -79 77 -115 104 -183 138 -111 55 -219 72 -329 54z"/>
<path d="M4365 10663 c-217 -148 -329 -269 -384 -413 -33 -86 -36 -258 -7
-363 22 -77 15 -76 131 -21 152 72 276 174 334 276 l30 52 7 -30 c35 -149 62
-223 113 -300 55 -86 161 -178 257 -225 90 -44 224 -82 238 -68 5 5 10 80 10
166 -1 174 -13 242 -64 343 -67 133 -145 200 -372 320 l-143 76 -3 129 c-1 71
-6 133 -10 137 -5 5 -66 -31 -137 -79z"/>
<path d="M3195 10598 c32 -357 78 -492 209 -624 56 -56 91 -81 167 -118 93
-45 201 -77 215 -63 4 3 9 60 12 125 11 264 -66 433 -253 558 -33 22 -127 75
-209 118 l-148 77 7 -73z"/>
<path d="M9790 10623 c0 -147 40 -341 91 -451 69 -149 210 -259 392 -305 l57
-15 7 26 c12 43 8 242 -5 300 -27 118 -105 232 -209 304 -42 28 -317 178 -328
178 -3 0 -5 -17 -5 -37z"/>
<path d="M7980 10614 c-65 -18 -203 -84 -208 -101 -5 -17 145 -164 213 -210
82 -54 150 -81 235 -93 76 -11 114 -8 225 17 82 18 275 72 292 82 21 11 -230
201 -337 256 -124 63 -294 83 -420 49z"/>
<path d="M7034 10474 c-171 -201 -236 -307 -272 -449 l-17 -70 -145 22 c-172
26 -358 29 -458 8 -178 -37 -321 -141 -436 -315 -20 -30 -36 -60 -36 -67 0
-14 163 -68 269 -88 151 -29 308 -12 425 47 71 35 167 113 271 217 55 56 103
101 107 101 5 0 8 -15 8 -33 0 -74 64 -248 120 -328 l21 -29 63 50 c135 106
255 254 305 375 30 72 40 213 22 308 -12 59 -95 339 -107 358 -15 26 -48 0
-140 -107z"/>
<path d="M1390 10257 c-6 -34 -16 -84 -21 -112 -17 -83 -22 -265 -10 -330 17
-94 72 -195 145 -267 59 -59 176 -138 202 -138 6 0 21 26 32 58 78 214 81 350
10 494 -24 50 -60 92 -172 201 -78 76 -148 143 -157 148 -14 7 -18 -1 -29 -54z"/>
<path d="M11285 10220 c-172 -24 -337 -133 -439 -290 -20 -30 -36 -60 -36 -66
0 -14 131 -58 218 -74 129 -23 278 -8 365 36 18 9 52 31 77 48 59 40 290 265
290 282 0 21 -28 30 -145 47 -147 21 -257 27 -330 17z"/>
<path d="M8575 10013 c-104 -217 -143 -353 -132 -468 12 -123 63 -227 171
-341 62 -67 50 -71 127 39 81 116 129 246 129 350 0 63 -36 187 -73 247 -38
64 -160 255 -167 263 -5 5 -29 -35 -55 -90z"/>
<path d="M2480 10066 c-335 -118 -475 -224 -540 -409 -25 -72 -45 -205 -36
-242 7 -26 8 -27 59 -20 86 11 198 44 273 80 121 58 208 153 256 277 26 69 98
348 90 348 -4 0 -50 -15 -102 -34z"/>
<path d="M8175 9969 c-282 -29 -378 -51 -505 -112 -68 -33 -101 -57 -165 -122
-82 -83 -125 -153 -166 -272 -34 -100 -34 -100 78 -108 310 -24 536 61 677
253 32 44 216 356 216 367 0 6 -32 5 -135 -6z"/>
<path d="M11790 9805 c-164 -61 -205 -80 -281 -131 -156 -103 -234 -241 -246
-431 l-6 -93 39 0 c93 0 267 58 361 119 95 62 156 142 200 265 13 37 83 299
83 311 0 12 -42 1 -150 -40z"/>
<path d="M9557 9765 c-48 -18 -121 -49 -162 -68 -256 -122 -384 -302 -385
-543 l0 -71 58 9 c275 43 443 156 537 361 30 65 99 323 90 337 -10 17 -46 10
-138 -25z"/>
<path d="M2945 9760 c-65 -13 -364 -96 -372 -104 -4 -3 -4 -8 -2 -9 320 -264
473 -341 674 -340 104 0 187 19 290 68 124 58 124 47 4 166 -163 162 -276 219
-443 225 -56 1 -123 -1 -151 -6z"/>
<path d="M10665 9689 c-301 -109 -437 -215 -505 -397 -25 -66 -49 -247 -34
-261 27 -25 293 51 383 109 132 86 189 178 251 410 22 85 43 161 45 168 7 20
-23 14 -140 -29z"/>
<path d="M3990 9603 c0 -3 -12 -72 -27 -152 -33 -184 -37 -381 -8 -476 51
-172 178 -321 345 -405 l58 -29 20 47 c81 190 101 394 52 536 -40 117 -111
204 -316 387 -107 94 -124 107 -124 92z"/>
<path d="M703 9573 c-57 -2 -103 -7 -103 -10 0 -4 38 -57 84 -118 196 -258
353 -358 566 -358 89 -1 240 27 240 44 0 5 -12 33 -26 62 -98 195 -233 321
-387 361 -65 17 -222 25 -374 19z"/>
<path d="M5172 9497 c-162 -110 -252 -185 -319 -266 -62 -75 -116 -180 -133
-262 -16 -74 -8 -244 15 -330 l19 -67 66 28 c276 118 450 299 495 515 23 110
15 453 -10 462 -6 2 -66 -34 -133 -80z"/>
<path d="M5765 9333 c-4 -21 -16 -87 -28 -148 -29 -158 -29 -384 1 -475 12
-35 20 -65 18 -67 -1 -2 -38 6 -82 17 -183 47 -348 34 -497 -40 -79 -40 -170
-105 -221 -158 l-28 -30 48 -36 c71 -52 227 -130 314 -158 60 -18 97 -23 185
-22 96 0 121 4 197 31 48 16 131 56 186 87 54 31 101 56 104 56 3 0 39 -20 80
-45 40 -25 79 -44 86 -43 18 4 55 96 83 206 16 63 22 116 22 192 0 196 -53
293 -276 504 -80 76 -155 145 -166 152 -19 14 -20 12 -26 -23z"/>
<path d="M6958 9262 c-256 -175 -373 -305 -425 -472 -24 -78 -24 -261 1 -358
10 -40 21 -74 25 -76 11 -7 203 88 271 134 141 96 235 227 266 372 18 86 20
488 2 488 -7 -1 -70 -40 -140 -88z"/>
<path d="M1652 9191 c-115 -135 -148 -183 -193 -277 -68 -144 -72 -263 -12
-414 29 -73 74 -151 85 -148 4 2 37 28 73 58 92 75 161 161 204 250 35 73 36
79 36 190 0 109 -3 123 -49 278 -27 89 -52 162 -55 161 -3 0 -43 -44 -89 -98z"/>
<path d="M3134 9122 c-291 -201 -405 -369 -404 -593 1 -101 31 -239 54 -239
23 0 200 91 262 136 125 89 221 228 249 361 24 112 16 416 -10 427 -7 2 -75
-39 -151 -92z"/>
<path d="M7520 9190 c-110 -22 -152 -35 -157 -47 -7 -17 88 -193 143 -264 151
-196 329 -266 650 -256 84 2 157 2 163 -2 7 -4 2 -25 -14 -60 -61 -131 -76
-273 -42 -401 17 -62 82 -204 112 -244 13 -18 16 -17 57 14 169 129 285 284
322 427 32 123 19 227 -58 472 -25 80 -46 151 -46 158 0 7 -4 13 -9 13 -9 0
-141 -151 -216 -247 -26 -34 -52 -60 -56 -57 -5 3 -30 33 -56 67 -189 250
-314 353 -488 407 -79 24 -235 34 -305 20z"/>
<path d="M1997 9103 c13 -146 35 -297 54 -363 67 -244 245 -403 515 -463 29
-6 34 21 34 174 0 140 -11 200 -55 294 -38 84 -95 150 -179 209 -61 44 -344
196 -363 196 -6 0 -9 -18 -6 -47z"/>
<path d="M11815 9076 c-100 -25 -228 -99 -299 -174 l-28 -30 42 -31 c196 -142
403 -189 577 -132 76 24 374 189 375 206 1 20 -271 131 -393 160 -76 18 -204
18 -274 1z"/>
<path d="M9400 9053 c-90 -15 -280 -94 -280 -116 0 -5 44 -53 98 -106 140
-139 269 -201 418 -201 79 0 137 11 317 62 122 34 145 43 136 55 -17 20 -163
132 -237 182 -152 103 -314 147 -452 124z"/>
<path d="M10710 8959 c-103 -18 -252 -102 -339 -192 l-44 -46 64 -41 c191
-123 367 -165 524 -125 68 18 113 40 287 138 170 96 169 103 -39 188 -184 76
-328 100 -453 78z"/>
<path d="M614 8883 c34 -94 81 -204 117 -273 119 -229 300 -340 557 -340 l64
0 -7 43 c-37 240 -143 407 -309 487 -70 33 -233 80 -403 115 l-33 7 14 -39z"/>
<path d="M11416 8668 c-10 -39 -7 -234 5 -290 30 -142 124 -264 264 -345 102
-59 275 -146 281 -141 7 8 -26 279 -42 348 -53 214 -183 356 -390 426 -91 30
-110 30 -118 2z"/>
<path d="M10275 8486 c-4 -51 -3 -122 3 -170 25 -195 99 -299 298 -420 l52
-31 -79 -105 c-103 -136 -141 -224 -147 -340 -5 -109 9 -178 58 -277 58 -116
50 -112 108 -69 74 54 183 175 220 243 71 133 75 253 16 445 -4 13 -1 16 10
12 21 -8 21 22 1 181 -25 201 -59 300 -136 403 -73 96 -236 192 -353 208 l-44
6 -7 -86z"/>
<path d="M4438 8483 c-290 -196 -410 -333 -454 -519 -20 -84 -15 -235 11 -337
20 -78 13 -76 132 -22 104 48 208 119 279 189 74 74 136 195 154 301 12 73 11
465 -2 465 -3 0 -57 -34 -120 -77z"/>
<path d="M3155 8388 c11 -138 34 -289 55 -366 70 -256 247 -421 520 -487 30
-8 56 -12 58 -10 12 11 23 174 17 249 -17 222 -101 374 -269 489 -51 35 -371
207 -384 207 -2 0 -1 -37 3 -82z"/>
<path d="M7155 8433 c-132 -18 -285 -98 -413 -217 l-63 -59 65 -43 c85 -57
204 -116 291 -146 58 -19 91 -23 195 -23 l125 0 -32 -80 c-54 -133 -67 -199
-67 -320 1 -92 5 -121 26 -177 36 -96 82 -168 164 -256 l72 -77 21 25 c44 51
112 159 145 231 103 218 89 387 -54 620 -65 107 -68 115 -51 129 10 8 76 49
148 90 115 66 131 78 129 100 -1 21 -17 31 -121 76 -260 111 -425 148 -580
127z"/>
<path d="M9570 8344 c-319 -34 -482 -100 -616 -247 -86 -95 -188 -326 -154
-347 25 -15 204 -22 301 -11 219 24 357 102 474 266 40 56 205 338 205 350 0
8 -69 4 -210 -11z"/>
<path d="M6167 8194 c-269 -183 -379 -308 -433 -489 -25 -85 -22 -239 6 -345
12 -44 24 -80 26 -80 2 0 47 20 99 44 242 113 383 259 430 444 21 83 27 512 7
512 -5 0 -65 -39 -135 -86z"/>
<path d="M1735 8246 c-33 -7 -129 -32 -214 -56 l-154 -44 39 -34 c173 -149
378 -273 504 -303 85 -21 222 -16 310 11 77 23 204 82 215 100 9 15 -161 186
-236 236 -105 69 -186 96 -304 100 -57 2 -126 -2 -160 -10z"/>
<path d="M4870 8149 c0 -65 37 -335 57 -414 31 -126 108 -262 190 -336 80 -72
246 -154 353 -173 33 -5 36 -4 55 36 17 36 20 62 19 177 0 154 -15 228 -66
329 -35 71 -117 160 -193 212 -59 41 -343 190 -361 190 -7 0 -14 -6 -17 -12
-3 -10 -7 -10 -20 1 -15 12 -17 11 -17 -10z"/>
<path d="M780 8109 c-30 -4 -82 -17 -114 -29 -66 -22 -367 -191 -360 -201 6
-10 230 -104 324 -135 77 -26 98 -29 220 -29 130 0 138 1 210 33 73 31 182
105 228 155 l23 25 -62 41 c-165 110 -332 160 -469 140z"/>
<path d="M8625 7568 c-406 -29 -610 -108 -750 -293 -64 -84 -151 -292 -131
-313 4 -4 87 -7 184 -7 139 0 191 4 242 18 149 41 261 116 347 234 54 73 216
351 211 362 -2 3 -48 3 -103 -1z"/>
<path d="M8955 7565 c-72 -13 -125 -30 -125 -40 0 -14 77 -157 116 -216 24
-36 77 -98 118 -137 l75 -71 -44 -84 c-82 -160 -95 -320 -40 -477 28 -77 88
-194 105 -205 15 -9 129 85 210 173 123 133 193 311 176 443 l-7 49 33 1 c18
1 96 4 172 8 l139 6 -92 123 c-207 277 -362 396 -563 431 -82 14 -184 13 -273
-4z"/>
<path d="M6315 7528 c18 -59 97 -252 130 -319 135 -267 321 -397 606 -424 42
-4 90 -4 106 -1 l30 7 -13 72 c-40 225 -132 395 -268 492 -99 70 -185 101
-466 165 -52 12 -103 24 -113 27 -16 4 -18 1 -12 -19z"/>
<path d="M2930 7500 c-36 -5 -105 -20 -155 -33 -49 -14 -136 -37 -192 -52 -57
-16 -103 -31 -103 -35 0 -8 216 -177 291 -228 115 -78 261 -134 380 -147 113
-12 262 21 394 87 103 51 104 43 -25 171 -198 196 -370 265 -590 237z"/>
<path d="M1894 7414 c35 -463 109 -674 297 -848 102 -94 301 -192 432 -211
l44 -7 7 47 c3 27 6 114 6 194 0 246 -51 396 -184 538 -85 91 -178 153 -420
278 l-189 98 7 -89z"/>
<path d="M11445 7403 c-316 -42 -517 -196 -596 -457 -10 -33 -16 -62 -13 -65
3 -3 71 -6 152 -6 327 0 443 78 645 432 26 45 47 89 47 98 0 19 -80 19 -235
-2z"/>
<path d="M1092 7203 c-105 -219 -132 -309 -132 -448 0 -99 24 -184 75 -269 42
-70 117 -160 152 -183 29 -19 29 -20 113 107 72 108 111 215 117 320 7 107 -8
177 -55 271 -36 71 -172 290 -196 317 -10 10 -25 -15 -74 -115z"/>
<path d="M5670 7229 c0 -16 529 -2119 536 -2130 3 -5 2 -9 -3 -9 -4 1 -46 66
-93 147 -323 552 -561 834 -885 1045 -287 188 -681 321 -1129 383 -168 23
-396 42 -402 34 -6 -11 14 -15 161 -39 946 -153 1414 -385 1730 -860 164 -246
290 -579 365 -971 17 -85 32 -164 35 -176 4 -19 1 -23 -18 -23 -47 0 -176 43
-272 90 -211 105 -401 280 -720 665 -416 502 -548 633 -784 774 -265 160 -579
201 -916 121 -116 -28 -379 -123 -404 -146 -17 -16 19 -10 95 15 296 98 553
104 815 20 103 -32 277 -124 373 -195 732 -544 1253 -1886 1408 -3624 17 -198
18 -983 0 -1145 -54 -499 -149 -808 -296 -964 -68 -71 -113 -93 -205 -99 -42
-3 -68 -8 -60 -12 17 -10 260 -54 492 -90 180 -27 291 -35 522 -34 263 1 232
-2 710 71 157 25 761 24 990 0 88 -9 176 -20 195 -23 l35 -5 -60 53 c-136 121
-123 99 -140 233 -23 174 -50 434 -65 620 -55 681 -64 889 -64 1485 0 532 5
672 39 1035 27 285 76 494 169 719 193 465 535 892 1021 1273 159 124 435 305
558 364 26 13 47 27 47 31 0 13 -16 9 -52 -11 -18 -10 -94 -51 -168 -91 -307
-167 -651 -383 -890 -560 -255 -189 -422 -345 -579 -539 -66 -81 -148 -174
-182 -204 -148 -135 -276 -143 -340 -23 -13 25 -34 51 -47 58 -43 22 -114 111
-148 183 -55 115 -68 181 -68 350 0 246 45 421 211 834 220 550 339 958 319
1096 -7 42 -26 64 -26 29 0 -26 -50 -182 -92 -289 -22 -55 -82 -188 -133 -295
-83 -172 -193 -448 -238 -595 -8 -27 -43 -138 -77 -245 -74 -234 -250 -850
-250 -874 0 -40 -18 -2 -25 51 -19 156 -85 431 -157 653 -93 286 -177 481
-477 1105 -120 248 -246 516 -282 597 -58 133 -79 170 -79 137z"/>
<path d="M4680 7224 c-83 -14 -153 -31 -295 -71 -88 -25 -161 -47 -163 -48 -5
-4 215 -176 286 -224 84 -57 212 -117 292 -137 90 -23 270 -15 360 16 62 21
196 84 213 100 12 11 -156 184 -228 235 -70 50 -149 91 -214 111 -46 15 -205
26 -251 18z"/>
<path d="M10310 6764 c-291 -33 -457 -105 -600 -261 -42 -46 -76 -97 -105
-158 -43 -90 -71 -182 -60 -194 4 -3 73 -8 155 -10 182 -4 279 13 395 69 143
69 220 157 373 425 38 66 67 126 64 133 -5 15 -57 14 -222 -4z"/>
<path d="M11030 6761 c-94 -18 -130 -31 -130 -49 0 -10 20 -53 45 -96 105
-185 223 -285 378 -321 51 -12 115 -15 268 -13 l202 3 -78 105 c-93 125 -221
256 -289 295 -114 66 -277 98 -396 76z"/>
<path d="M70 6633 c0 -5 36 -56 79 -115 160 -215 295 -331 442 -379 64 -21 92
-24 204 -23 129 1 245 22 245 45 0 17 -62 133 -108 202 -53 80 -149 172 -221
210 -98 54 -181 67 -423 67 -120 0 -218 -3 -218 -7z"/>
<path d="M1755 6345 c-127 -32 -196 -64 -420 -195 -82 -48 -163 -94 -179 -102
l-30 -16 30 -14 c77 -40 322 -141 415 -172 198 -67 388 -81 544 -41 130 33
310 141 413 247 l43 45 -83 55 c-148 100 -291 164 -431 193 -82 18 -233 18
-302 0z"/>
<path d="M11145 6109 c-119 -18 -230 -71 -313 -152 -55 -54 -136 -172 -128
-186 4 -6 53 -25 109 -43 95 -31 111 -33 242 -33 l140 0 89 44 c79 38 105 59
227 179 77 74 139 138 139 142 0 13 -339 61 -410 59 -19 -1 -62 -5 -95 -10z"/>
<path d="M9765 6001 c-28 -5 -76 -16 -108 -25 l-58 -17 51 -99 c91 -175 191
-287 320 -354 123 -65 227 -79 488 -70 105 4 192 10 192 13 0 10 -167 229
-228 298 -98 114 -238 205 -365 239 -65 17 -226 25 -292 15z"/>
<path d="M610 5864 c-143 -28 -229 -82 -402 -252 -82 -80 -148 -148 -148 -152
0 -10 286 -52 395 -57 208 -11 364 45 503 182 67 66 85 79 91 66 5 -9 30 -67
55 -130 65 -158 118 -244 200 -327 115 -115 240 -166 440 -180 l99 -7 -7 54
c-19 152 -93 322 -178 414 -96 103 -204 152 -460 210 -95 21 -118 30 -118 44
0 9 5 22 12 29 15 15 5 24 -52 45 -111 40 -199 58 -300 62 -58 2 -116 1 -130
-1z"/>
<path d="M2779 5689 c-379 -64 -614 -228 -719 -499 -35 -91 -141 -500 -130
-500 4 0 90 30 191 66 308 111 448 191 576 328 76 81 130 173 162 278 27 89
47 263 35 309 l-9 36 -106 -18z"/>
<path d="M10905 5464 c-35 -5 -155 -35 -155 -39 0 -16 54 -117 96 -182 89
-134 192 -212 330 -248 64 -17 464 -22 464 -7 0 14 -126 179 -197 259 -78 87
-190 165 -280 193 -64 20 -199 32 -258 24z"/>
<path d="M10584 5280 c-46 -18 -163 -214 -190 -320 -26 -103 -16 -220 28 -312
25 -53 163 -286 193 -325 6 -8 74 113 115 205 78 175 93 234 88 361 -3 103 -5
112 -45 192 -40 80 -116 179 -151 198 -10 5 -26 5 -38 1z"/>
<path d="M1280 4886 c-69 -20 -114 -41 -178 -84 -62 -43 -329 -298 -321 -307
19 -19 303 -55 430 -55 144 0 200 11 306 60 66 31 99 54 162 117 65 66 141
169 141 194 0 9 -149 57 -231 74 -84 18 -247 18 -309 1z"/>
<path d="M2063 4555 c-151 -69 -290 -176 -352 -274 -65 -101 -74 -143 -79
-393 -3 -171 -1 -228 8 -228 16 0 233 149 312 215 205 170 276 385 213 638
-20 77 -23 78 -102 42z"/>
</g>
</svg>
