<svg version="1.0" xmlns="http://www.w3.org/2000/svg" width="1280pt" height="960pt" viewBox="150 100 1000 800" preserveAspectRatio="xMidYMid meet">
<g transform="translate(0,960) scale(0.1,-0.1)" fill="#00d0fa" stroke="none">
<path d="M4739 7463 c-3 -30 -10 -48 -25 -62 -15 -15 -16 -14 -11 7 3 12 1 22
-4 22 -8 0 -13 -23 -10 -43 1 -5 -3 -6 -8 -2 -6 3 -8 12 -5 20 3 7 2 21 -3 30
-8 13 -13 12 -34 -12 -17 -20 -18 -23 -3 -10 25 21 35 22 28 2 -5 -12 -62 -38
-89 -39 -10 -1 -163 -72 -227 -106 -50 -27 -56 -25 -19 6 18 14 36 36 43 47 8
16 1 13 -31 -12 -22 -18 -41 -30 -41 -26 0 4 -16 -7 -36 -25 -20 -17 -47 -36
-60 -42 -13 -6 -21 -14 -19 -18 5 -8 -73 -44 -120 -56 -43 -10 -116 -51 -142
-80 l-22 -24 -104 40 c-58 23 -123 54 -146 70 -50 37 -52 29 -6 -29 19 -24 35
-46 35 -48 0 -7 -23 8 -47 30 -13 11 -25 18 -28 15 -3 -3 35 -52 86 -109 128
-146 127 -145 99 -172 l-22 -22 11 23 c13 24 9 27 -19 12 -17 -9 -19 -7 -16
25 3 42 -1 43 -32 8 -19 -22 -22 -24 -18 -8 4 14 -5 8 -30 -19 l-36 -38 -62
17 c-33 9 -328 93 -654 187 -327 94 -600 167 -609 164 -14 -6 -15 -9 -2 -21 8
-8 260 -113 559 -234 657 -264 623 -249 614 -263 -5 -7 -2 -9 9 -5 15 6 77
-13 160 -48 30 -12 37 -20 32 -33 -15 -39 -45 -183 -55 -263 -6 -48 -28 -152
-50 -233 -52 -190 -163 -508 -190 -546 -14 -19 -20 -41 -18 -62 2 -28 11 -37
49 -58 26 -14 72 -49 102 -78 l56 -52 76 3 c43 2 80 9 84 15 4 6 26 18 50 27
l42 15 65 -48 c142 -105 164 -108 94 -15 -23 29 -36 53 -31 53 5 0 13 -5 16
-11 4 -6 13 -8 20 -5 8 3 19 -3 27 -12 12 -16 11 -16 -7 -2 -18 14 -19 14 -7
-2 7 -9 21 -16 31 -15 20 1 14 16 -26 74 -30 41 -29 49 3 28 29 -19 67 -29 59
-14 -4 5 -12 6 -18 3 -9 -5 -9 -4 -1 6 16 16 -32 88 -87 132 l-39 32 52 45
c29 25 85 75 123 111 39 36 103 88 144 114 41 26 99 73 129 104 60 63 99 92
123 92 20 0 44 -55 54 -120 8 -52 -7 -239 -35 -425 -27 -190 -32 -303 -21
-460 l11 -139 -60 -101 c-102 -172 -116 -228 -101 -400 10 -118 40 -197 89
-236 25 -19 51 -55 52 -70 0 -4 -15 -10 -34 -13 -18 -4 -107 -31 -197 -62
-356 -120 -486 -157 -637 -180 -122 -18 -165 -38 -236 -110 -71 -72 -100 -131
-120 -247 -26 -152 -120 -382 -229 -566 -12 -19 -16 -31 -9 -27 6 4 -6 -20
-29 -54 -72 -108 -88 -181 -65 -302 8 -46 20 -116 26 -156 6 -40 17 -84 26
-97 9 -13 13 -28 11 -32 -3 -5 10 -29 30 -53 19 -25 49 -76 67 -114 l32 -69
117 172 c64 94 117 175 117 180 0 4 -11 25 -25 45 -13 20 -22 36 -18 36 3 0 0
7 -7 15 -6 8 -9 18 -6 24 3 5 -7 14 -23 19 -19 7 -30 19 -34 38 -8 41 1 56 25
43 25 -13 60 -3 38 11 -11 7 -12 10 -2 10 7 0 10 5 7 10 -3 6 3 10 15 10 28 0
62 19 55 30 -3 5 -12 7 -19 4 -17 -7 -28 57 -19 111 l7 40 7 -40 c4 -23 3 -45
-3 -52 -8 -9 -6 -13 5 -13 38 0 42 9 39 76 -2 36 2 104 8 150 12 80 23 104 33
67 3 -10 5 11 6 47 3 131 19 210 60 295 48 99 85 140 137 154 21 6 138 22 259
36 121 14 263 32 315 40 221 33 600 65 600 50 0 -2 -11 -48 -24 -102 -13 -54
-36 -148 -50 -208 -38 -165 -90 -315 -146 -426 -66 -130 -75 -173 -56 -269 21
-111 29 -126 116 -214 168 -172 306 -393 359 -573 12 -40 24 -73 27 -73 6 0
-4 41 -22 99 -8 24 -13 46 -10 48 2 3 7 -6 11 -19 19 -60 80 -167 118 -206 40
-40 118 -92 139 -92 6 0 0 9 -13 20 -13 10 -21 19 -17 20 4 0 33 -22 64 -50
53 -47 67 -55 87 -51 5 1 6 -3 2 -8 -3 -6 5 -15 17 -22 21 -11 22 -11 9 5 -15
18 -17 18 36 0 14 -4 15 -7 4 -13 -8 -5 22 -9 72 -10 47 -1 107 -8 134 -16 26
-8 51 -15 56 -15 14 0 6 137 -13 218 -35 144 -59 175 -150 189 -19 4 -37 9
-40 13 -3 5 -25 12 -50 17 -33 7 -45 14 -44 26 2 19 -7 22 -22 7 -12 -12 -44
-3 -44 11 0 4 8 6 18 3 13 -4 12 -2 -3 7 -19 13 -19 14 10 19 17 3 31 12 33
22 2 12 -2 15 -17 11 -19 -5 -19 -2 -11 28 6 19 10 35 10 36 0 1 -7 0 -15 -3
-8 -4 -15 -1 -15 5 0 6 -10 11 -23 11 -13 0 -45 14 -70 31 -51 34 -73 57 -41
45 22 -9 22 -9 54 -7 18 1 6 10 -48 36 -83 39 -98 55 -19 21 65 -30 107 -40
107 -26 0 5 -8 10 -19 10 -47 0 -201 98 -201 128 0 6 -5 12 -12 12 -6 0 -8 3
-5 6 4 4 13 1 21 -5 8 -7 25 -11 38 -9 18 3 14 7 -23 20 -58 20 -158 95 -192
145 -44 64 -90 171 -83 196 7 28 340 662 411 782 29 50 74 115 99 146 l47 57
82 -19 c270 -60 755 -119 974 -119 146 0 453 49 623 100 35 11 66 18 67 16 2
-2 15 -68 28 -147 29 -175 84 -361 169 -574 99 -248 111 -292 111 -415 -1 -85
-5 -114 -22 -151 l-21 -47 -93 -21 c-52 -12 -111 -26 -132 -33 -42 -13 -90
-63 -134 -138 -15 -25 -47 -72 -71 -105 -79 -107 -86 -127 -87 -250 -2 -132
-11 -150 -94 -196 -69 -39 -181 -110 -181 -115 0 -3 27 9 60 26 80 41 89 38
15 -5 -34 -18 -70 -44 -80 -57 -19 -21 -19 -22 -1 -8 18 14 19 14 8 -6 -6 -11
-18 -26 -26 -34 -9 -7 -16 -18 -16 -24 -1 -6 -14 -27 -31 -46 -16 -19 -25 -36
-20 -38 13 -4 4 -26 -40 -96 -21 -33 -36 -63 -33 -68 3 -4 94 -8 203 -8 223 0
211 -4 251 82 12 27 26 48 31 48 5 0 9 13 9 28 0 34 16 52 47 52 14 0 34 12
47 27 14 16 27 23 35 18 9 -5 4 -15 -19 -36 -28 -26 -29 -29 -11 -29 12 0 21
-5 21 -11 0 -16 71 -4 81 13 5 7 14 13 21 13 7 0 37 47 66 105 30 58 51 94 48
80 -17 -66 -18 -80 -8 -80 14 0 34 38 57 110 25 78 84 192 95 185 6 -3 10 1
10 10 0 30 96 220 137 270 39 48 148 124 113 79 -8 -10 -1 -7 15 7 17 15 71
51 120 81 103 62 572 300 627 317 41 13 85 53 101 91 15 37 9 130 -10 159 -9
14 -61 79 -115 144 -54 65 -139 180 -190 255 -50 75 -108 157 -129 182 -62 75
-61 81 22 135 111 72 205 150 317 265 91 91 111 118 157 210 78 155 105 267
112 465 4 121 1 177 -10 229 l-15 68 46 -6 c25 -3 51 -11 56 -16 6 -6 70 -10
148 -10 299 0 506 -64 765 -236 45 -30 107 -63 136 -73 85 -30 102 -40 412
-267 290 -212 335 -250 335 -284 0 -29 76 -115 124 -139 25 -13 55 -34 67 -47
26 -28 48 -33 28 -7 -8 10 12 -4 44 -31 31 -27 57 -50 57 -53 0 -2 -20 12 -45
33 -25 20 -45 34 -45 31 0 -2 26 -26 58 -53 31 -27 50 -40 42 -30 -29 38 9 9
198 -148 106 -88 198 -161 206 -162 7 -1 32 -16 56 -33 24 -17 47 -31 52 -31
6 0 24 -10 41 -22 l32 -21 -35 38 c-28 32 -30 36 -10 23 23 -14 57 -32 87 -47
7 -3 40 -26 75 -50 l63 -44 -50 47 -50 48 50 -35 c72 -49 85 -53 41 -13 -22
20 -36 36 -31 36 5 0 -2 12 -16 26 -16 17 -1 10 44 -21 81 -56 88 -54 12 5
-31 24 -53 45 -50 48 7 7 -25 42 -39 42 -6 0 0 -9 14 -20 14 -11 20 -20 14
-20 -6 0 -19 9 -29 20 -10 11 -15 20 -10 20 4 0 2 7 -6 16 -9 11 -1 9 27 -6
l39 -22 -40 37 c-22 20 -40 40 -40 45 0 4 -28 31 -63 58 -35 28 -63 54 -64 59
-1 4 -24 25 -52 46 -28 21 -51 43 -51 50 0 7 -8 11 -17 9 -9 -1 -20 3 -24 9
-5 8 -3 9 7 4 12 -8 12 -6 0 9 -8 9 -20 15 -27 12 -8 -3 -13 -1 -11 3 1 5 -69
59 -155 120 -180 127 -301 219 -306 232 -2 5 -8 7 -13 3 -5 -3 -9 -1 -9 4 0
14 -75 42 -111 42 -17 0 -40 5 -52 12 -12 6 -155 116 -317 244 -245 193 -303
243 -340 296 -55 79 -82 104 -195 183 -223 155 -443 231 -753 257 -137 12
-220 4 -316 -29 -69 -23 -81 -19 -156 61 -168 177 -473 329 -745 371 -124 20
-285 16 -440 -10 -182 -31 -735 -41 -735 -14 0 5 10 10 23 10 17 1 18 2 4 6
-9 2 -14 9 -11 15 4 6 1 14 -6 18 -9 6 -7 10 9 15 11 3 21 11 21 17 0 6 8 16
17 23 15 12 14 13 -12 9 -27 -4 -28 -3 -7 5 29 14 28 23 -2 15 -13 -3 -27 -1
-30 5 -4 6 -17 11 -29 12 -21 0 -21 1 -2 9 17 7 16 9 -10 10 -30 2 -30 2 -5
11 18 6 12 7 -25 4 -39 -4 -61 1 -100 19 -47 23 -48 24 -20 26 l30 1 -39 20
c-28 15 -35 23 -25 29 9 6 6 10 -14 15 -15 4 -32 16 -37 26 -6 10 -28 24 -51
30 -27 8 -36 15 -27 21 10 6 10 8 0 8 -27 0 -185 82 -173 89 8 5 5 13 -10 27
-24 21 -79 98 -79 111 0 4 8 -4 17 -17 44 -65 107 -129 136 -139 l32 -11 -27
22 c-45 37 -107 128 -114 167 -4 20 -12 43 -18 51 -8 11 -4 10 16 -3 37 -23
56 -22 34 2 -14 15 -15 21 -4 27 7 5 20 7 29 6 8 -1 26 2 40 7 21 8 21 10 4
11 -11 0 -27 5 -35 11 -15 10 1 9 65 -7 15 -3 14 -1 -5 9 -14 8 -44 18 -67 22
-39 6 -48 14 -44 38 1 5 -3 6 -9 2 -6 -3 -7 -12 -4 -18 4 -8 2 -7 -7 1 -20 19
4 31 66 33 43 1 46 2 20 8 -44 11 -175 85 -212 120 -18 17 -37 41 -44 53 -6
13 12 -1 41 -29 47 -49 70 -63 70 -47 0 4 -17 22 -37 41 -23 20 -29 30 -16 23
12 -5 25 -15 28 -20 9 -15 24 -12 21 5 -1 9 -17 28 -35 43 -19 16 -34 38 -35
55 -4 31 0 33 20 13 7 -8 22 -12 33 -9 19 5 18 7 -7 30 l-27 26 40 -6 c35 -6
37 -5 15 4 -24 11 -24 11 -5 19 17 7 16 9 -15 18 -26 7 -29 10 -12 11 12 1 22
6 22 11 0 7 -13 8 -34 4 -25 -4 -41 -1 -58 11 l-23 17 32 -7 c18 -3 40 -2 50
4 15 9 14 11 -12 11 -16 1 -39 5 -50 10 -15 6 -4 9 40 11 l60 2 -57 6 c-67 7
-87 21 -32 22 39 1 124 27 92 28 -9 1 -29 -3 -43 -9 -34 -13 -104 4 -136 33
-13 12 -36 28 -51 34 -15 7 -61 39 -102 71 l-74 60 53 -3 c38 -1 52 1 49 10
-5 12 27 29 71 38 11 3 2 6 -20 7 l-40 2 33 9 c17 5 32 12 32 15 0 4 -7 3 -16
0 -8 -3 -13 -2 -9 3 3 5 -1 12 -7 15 -7 3 -2 3 12 0 22 -4 23 -4 7 6 -10 7
-25 9 -33 6 -9 -3 -12 -1 -9 4 3 6 12 10 18 10 7 0 30 9 52 20 l40 20 -34 -6
c-24 -5 -32 -3 -26 6 5 7 -3 6 -21 -3 -43 -22 -85 -28 -119 -18 l-30 9 27 1
c14 1 28 5 30 10 2 4 25 18 52 30 67 29 54 35 -18 9 -47 -17 -62 -19 -77 -10
-10 7 -30 12 -45 12 -32 0 -174 65 -174 80 0 6 13 9 33 7 17 -2 23 -2 13 0
-16 4 -17 7 -5 15 11 7 11 11 2 15 -19 7 -15 23 5 23 11 0 27 10 38 22 l19 21
-25 -15 c-14 -9 -41 -18 -60 -21 l-35 -6 55 51 c30 29 47 46 38 39 -32 -24
-19 7 15 35 30 25 30 26 3 9 -16 -10 -45 -26 -65 -37 l-36 -20 35 31 c19 17
43 33 53 36 9 4 17 10 17 15 0 13 -49 -9 -77 -33 -22 -19 -22 -19 -16 2 3 11
9 21 13 21 4 0 10 7 14 15 7 20 -18 7 -56 -29 -16 -14 -28 -22 -28 -19 0 4 -7
-2 -15 -13 -8 -10 -15 -14 -15 -7 0 7 19 31 43 54 38 38 36 46 -4 12 -9 -7
-31 -18 -50 -23 l-34 -9 38 31 c21 17 43 40 49 52 6 12 -10 2 -39 -24 -46 -42
-54 -45 -106 -47 -32 -1 -57 3 -57 8 0 5 10 9 23 10 12 0 16 3 9 6 -6 2 -10 9
-6 14 7 12 -3 12 -25 0 -10 -6 -23 -6 -32 0 -11 7 -11 9 4 9 18 0 107 47 107
56 0 2 -18 -5 -40 -16 -48 -24 -57 -25 -39 -3 13 15 11 16 -13 11 -16 -3 -28
-2 -28 2 0 4 -12 6 -27 3 -16 -2 -43 -5 -61 -7 l-32 -3 25 33 c28 37 20 47
-10 14 -26 -29 -38 -24 -19 8 15 24 14 23 -15 -7 -24 -25 -38 -32 -56 -29 -13
3 -23 2 -21 -1 2 -3 -18 -7 -45 -8 -34 -1 -47 2 -43 10 4 8 2 7 -7 0 -18 -18
-34 -16 -19 2 10 12 9 15 -5 15 -15 0 -16 2 -4 18 13 16 13 16 -7 0 -30 -26
-37 -22 -17 10 17 26 17 27 -2 12 -11 -9 -16 -10 -11 -2 4 7 2 12 -6 12 -11 0
-11 2 0 8 13 9 30 82 18 82 -3 0 -6 -3 -7 -7z m558 -309 c-3 -3 -12 -4 -19 -1
-8 3 -5 6 6 6 11 1 17 -2 13 -5z m988 -1890 l30 -14 -35 6 c-45 7 -90 24 -90
34 0 9 47 -4 95 -26z m204 -35 c21 -7 19 -8 -9 -3 -19 3 -45 6 -57 5 -12 0
-24 3 -28 8 -3 5 5 7 17 3 15 -4 19 -2 13 7 -6 10 -3 11 16 1 12 -7 34 -17 48
-21z m1445 -2482 c39 -29 95 -70 124 -91 28 -21 52 -41 52 -46 0 -17 -175
-140 -184 -129 -18 24 -81 319 -68 319 2 0 36 -24 76 -53z"/>
<path d="M5067 7393 c-11 -13 -17 -26 -14 -29 2 -3 12 7 21 22 23 33 17 39 -7
7z"/>
<path d="M5226 7231 c-19 -7 -19 -8 2 -13 15 -4 22 -2 22 8 0 8 -1 14 -2 13
-2 0 -12 -4 -22 -8z"/>
<path d="M5549 7193 c-13 -16 -12 -17 4 -4 9 7 17 15 17 17 0 8 -8 3 -21 -13z"/>
<path d="M5504 7164 c-18 -14 -18 -15 4 -4 12 6 22 13 22 15 0 8 -5 6 -26 -11z"/>
<path d="M5426 7095 c-11 -8 -15 -15 -9 -15 6 0 16 7 23 15 16 19 11 19 -14 0z"/>
<path d="M5700 6885 c-19 -7 -28 -14 -20 -14 8 0 29 6 45 14 39 17 21 18 -25
0z"/>
<path d="M3755 6880 c-3 -5 -2 -10 4 -10 5 0 13 5 16 10 3 6 2 10 -4 10 -5 0
-13 -4 -16 -10z"/>
<path d="M5723 6733 c9 -2 23 -2 30 0 6 3 -1 5 -18 5 -16 0 -22 -2 -12 -5z"/>
<path d="M3474 6567 c-2 -34 0 -37 6 -17 11 33 12 60 3 60 -5 0 -9 -19 -9 -43z"/>
<path d="M3581 6575 c0 -5 6 -21 14 -35 8 -14 14 -20 14 -15 0 6 -6 21 -14 35
-8 14 -14 21 -14 15z"/>
<path d="M5948 6563 c7 -3 16 -2 19 1 4 3 -2 6 -13 5 -11 0 -14 -3 -6 -6z"/>
<path d="M3610 6505 c0 -5 5 -17 10 -25 5 -8 10 -10 10 -5 0 6 -5 17 -10 25
-5 8 -10 11 -10 5z"/>
<path d="M6004 6183 c3 -19 70 -63 95 -63 8 0 -9 12 -39 27 -30 15 -48 29 -42
31 7 2 10 8 6 13 -9 15 -22 10 -20 -8z"/>
<path d="M6158 6093 c6 -2 18 -2 25 0 6 3 1 5 -13 5 -14 0 -19 -2 -12 -5z"/>
<path d="M6080 5861 c0 -5 7 -12 16 -15 14 -5 15 -4 4 9 -14 17 -20 19 -20 6z"/>
<path d="M6638 5413 c6 -2 18 -2 25 0 6 3 1 5 -13 5 -14 0 -19 -2 -12 -5z"/>
</g>
</svg>
